<?xml version="1.0" standalone="no"?>
<!DOCTYPE svg PUBLIC "-//W3C//DTD SVG 1.1//EN" "http://www.w3.org/Graphics/SVG/1.1/DTD/svg11.dtd" >
<svg>
<metadata>
Created by FontForge 20090914 at Sun Aug 21 21:02:44 2022
 By www-data
Copyright 2014 - 2017 Adobe Systems Incorporated (http://www.adobe.com/), with Reserved Font Name 'Source'. Copyright 2019 Google LLC.
</metadata>
<defs>
<font id="DMSerifDisplay-Regular" horiz-adv-x="0" >
  <font-face 
    font-family="DM Serif Display"
    font-weight="400"
    font-stretch="normal"
    units-per-em="1000"
    panose-1="0 0 0 0 0 0 0 0 0 0"
    ascent="800"
    descent="-200"
    x-height="481"
    cap-height="660"
    bbox="-192 -265.003 1168 915.999"
    underline-thickness="50"
    underline-position="-50"
    unicode-range="U+000D-U+2265"
  />
<missing-glyph horiz-adv-x="640" 
d="M80 0v660h480v-660h-480zM199 599l121 -201l121 201h-242zM151 542v-424l128 212zM361 330l128 -212v424zM199 61h242l-121 201z" />
    <glyph glyph-name="f_f" unicode="ff" horiz-adv-x="687" 
d="M22 0l0.00585938 9.99707l13 3c12.667 4 22.667 10 30 18s11 18.667 11 32c0 24.667 0.166992 49.167 0.5 73.5s0.5 48.833 0.5 73.5v251h-56v11l22 4c14 2 23.667 6.83301 29 14.5s9.66602 18.5 12.999 32.5c6.66699 26 16.5 48.833 29.5 68.5
s27.833 37.834 44.5 54.501c25.333 24 52.166 40.833 80.499 50.5s56.166 14.5 83.499 14.5c17.333 0 34.166 -2.5 50.499 -7.5s29.666 -12.667 39.999 -23s15.5 -23.833 15.5 -40.5c0 -18 -5.16699 -32.167 -15.5 -42.5s-25.5 -15.5 -45.5 -15.5
c-16 0 -30.667 4.33301 -44 13s-26.333 24 -39 46l-14 17c-7.33301 10 -14.833 14.667 -22.5 14s-12.834 -6.33398 -15.501 -17.001c-4.66699 -24 -8.16699 -51.5 -10.5 -82.5s-3.5 -61.5 -3.5 -91.5h167c14 0 23.667 3.83301 29 11.5s9.66602 17.834 12.999 30.501
c6.66699 26 16.5 48.833 29.5 68.5s27.833 37.834 44.5 54.501c25.333 24 52.166 40.833 80.499 50.5s56.166 14.5 83.499 14.5c18 0 35 -2.5 51 -7.5s29.333 -12.667 40 -23s16 -23.833 16 -40.5c0 -18 -5.33301 -32.167 -16 -42.5s-26 -15.5 -46 -15.5
c-16 0 -30.667 4.33301 -44 13s-26.333 24 -39 46l-14 17c-7.33301 10 -14.666 14.667 -21.999 14s-12.666 -6.33398 -15.999 -17.001c-4.66699 -24 -8.16699 -51.5 -10.5 -82.5s-3.5 -61.5 -3.5 -91.5h112v-20h-112v-251v-72.5v-72.5
c0.666992 -25.333 14.334 -41.666 41.001 -48.999l25 -6v-10h-263v10l13 3c12.667 4 22.667 10 30 18s11.333 18.667 12 32v73.5v73.5v251h-201v-251v-72.5v-72.5c0.666992 -25.333 14 -41.666 40 -48.999l25 -6v-10h-262z" />
    <glyph glyph-name="f_i" unicode="fi" horiz-adv-x="582" 
d="M21 0l-0.00195312 10.001l15 3c26.667 7.33301 40 24.666 40 51.999c0.666992 24 1 49.167 1 75.5v69.5v251h-56v11l16 3c26.667 4.66699 43.334 21 50.001 49c17.333 63.333 50 110.333 98 141s106.333 46 175 46c41.333 0 75.166 -8.83301 101.499 -26.5
s39.5 -39.834 39.5 -66.501c0 -18 -5.5 -32.167 -16.5 -42.5s-25.833 -15.5 -44.5 -15.5c-20 0 -36 5.83301 -48 17.5s-22.333 25.834 -31 42.501l-23 44c-4.66699 8.66699 -10.334 14.667 -17.001 18s-14 2.66602 -22 -2.00098c-51.333 -26 -78 -92.333 -80 -199h213
c20 0 40 3.33301 60 10l15 5l13 -11l-3 -139v-141c0 -18.667 -0.166992 -40.667 -0.5 -66s-0.166016 -50 0.500977 -74c0 -26.667 12.667 -44 38 -52l7 -2v-11h-235v10l10 4c26 8 39 25.333 39 52c0.666992 24.667 0.833984 50.667 0.500977 78s-0.5 49.333 -0.5 66v67
c0 20 -0.166992 41.5 -0.5 64.5s-0.5 45.167 -0.5 66.5s-0.333008 39 -1 53h-155v-251c0 -19.333 -0.166992 -42.166 -0.5 -68.499s-0.166016 -51.5 0.500977 -75.5c0 -27.333 13.333 -44.333 40 -51l19 -5v-10h-257z" />
    <glyph glyph-name="f_l" unicode="fl" horiz-adv-x="620" 
d="M22 0v9.99805l13 3c12.667 3.33301 22.667 9.16602 30 17.499s11 19.166 11 32.499c0 24.667 0.166992 49.167 0.5 73.5s0.5 48.833 0.5 73.5v251h-56v11l22 4c13.333 1.33301 23 6 29 14s10.333 19 13 33c6.66699 26 16.5 48.833 29.5 68.5s27.833 37.834 44.5 54.501
c25.333 24 52.166 40.833 80.499 50.5s56.166 14.5 83.499 14.5c19.333 0 38 -3 56 -9s31.333 -15.667 40 -29l120 28l11 -9l-4 -140v-342c0 -24.667 0.166992 -49.167 0.5 -73.5s0.5 -48.5 0.5 -72.5c0 -27.333 11.667 -44.333 35 -51l14 -3v-10h-240v10l13 4
c23.333 8.66699 35 25.334 35 50.001c0 24 0.166992 48.167 0.5 72.5s0.5 48.833 0.5 73.5v381c-10 -6 -22.333 -9 -37 -9c-16 0 -30.667 4.33301 -44 13s-26.333 24 -39 46l-14 17c-7.33301 9.33301 -14.666 13.833 -21.999 13.5s-12.666 -5.83301 -15.999 -16.5
c-4.66699 -23.333 -8.16699 -50.666 -10.5 -81.999s-3.5 -62 -3.5 -92h112v-20h-112v-396c0 -25.333 13.333 -41.666 40 -48.999l25 -6v-10h-262z" />
    <glyph glyph-name=".notdef" horiz-adv-x="640" 
d="M80 0v660h480v-660h-480zM199 599l121 -201l121 201h-242zM151 542v-424l128 212zM361 330l128 -212v424zM199 61h242l-121 201z" />
    <glyph glyph-name="CR" unicode="&#xd;" horiz-adv-x="600" 
 />
    <glyph glyph-name="space" unicode=" " horiz-adv-x="218" 
 />
    <glyph glyph-name="exclam" unicode="!" horiz-adv-x="333" 
d="M167 672c24.667 0 44.001 -7.83105 58.001 -23.498s21 -36.167 21 -61.5c0 -20.667 -5.33301 -52.834 -16 -96.501s-21.667 -91.834 -33 -144.501l-21 -105h-19l-21 105c-10.667 51.333 -21.334 98.833 -32.001 142.5s-16 76.5 -16 98.5c0 25.333 7 45.833 21 61.5
s33.333 23.5 58 23.5zM167.001 -14.998c-24.667 0 -45.334 8.33301 -62.001 25s-25 37 -25 61c0 23.333 8.33301 43.5 25 60.5s37.334 25.5 62.001 25.5c24 0 44.333 -8.5 61 -25.5s25 -37.167 25 -60.5c0 -24 -8.33301 -44.333 -25 -61s-37 -25 -61 -25z" />
    <glyph glyph-name="quotedbl" unicode="&#x22;" horiz-adv-x="425" 
d="M102 403l-19.998 67c-5.33301 22.667 -11.333 46.5 -18 71.5s-12.334 47.833 -17.001 68.5s-7 36 -7 46c0 23.333 6.83301 41.666 20.5 54.999s30.5 20 50.5 20s37 -6.66699 51 -20s21 -31.666 21 -54.999c0 -10 -2.33301 -25.333 -7 -46s-10.334 -43.5 -17.001 -68.5
s-12.667 -48.833 -18 -71.5l-20 -67h-19zM304.002 403l-19.998 67c-5.33301 22.667 -11.333 46.5 -18 71.5s-12.334 47.833 -17.001 68.5s-7 36 -7 46c0 23.333 6.83301 41.666 20.5 54.999s30.5 20 50.5 20s37 -6.66699 51 -20s21 -31.666 21 -54.999
c0 -10 -2.33301 -25.333 -7 -46s-10.334 -43.5 -17.001 -68.5s-12.667 -48.833 -18 -71.5l-20 -67h-19z" />
    <glyph glyph-name="numbersign" unicode="#" horiz-adv-x="557" 
d="M110 0l27 175h-117v37h122l34 220h-123v37h128l27 175h33l-27 -175h178l27 175h33l-27 -175h113v-37h-118l-34 -220h119v-37h-124l-27 -175h-33l27 175h-178l-27 -175h-33zM175 212h178l34 220h-178z" />
    <glyph glyph-name="dollar" unicode="$" horiz-adv-x="532" 
d="M261 -15c-64 0 -115.171 11.168 -153.504 33.501s-57.5 53.5 -57.5 93.5c0 19.333 5.83301 34.833 17.5 46.5s25.834 17.5 42.501 17.5s31 -5 43 -15s19.667 -28 23 -54l3 -16c4.66699 -30.667 13.834 -52.667 27.501 -66s32.167 -20 55.5 -20v247l-30 11
c-56.667 19.333 -100.5 44.833 -131.5 76.5s-46.5 71.5 -46.5 119.5c0 53.333 18.5 97.666 55.5 132.999s88.167 54.333 153.5 57v90h24v-90c58.667 -1.33301 104.5 -14.5 137.5 -39.5s49.5 -54.5 49.5 -88.5c0 -20 -5.16699 -35.333 -15.5 -46s-24.5 -16 -42.5 -16
c-15.333 0 -29.166 5.33301 -41.499 16s-21.166 30.667 -26.499 60l-4 23c-4 20.667 -10 36.167 -18 46.5s-21 16.5 -39 18.5v-235l18 -6c70 -22.667 119.167 -51 147.5 -85s42.5 -73.667 42.5 -119c0 -35.333 -8.5 -66.833 -25.5 -94.5s-41.167 -50.167 -72.5 -67.5
s-68.333 -27.333 -111 -30v-101h-24v100h-1zM159.996 519.001c0 -30.667 8.5 -56 25.5 -76s42.833 -36 77.5 -48v229c-16 -1.33301 -32 -6 -48 -14s-29.167 -19.5 -39.5 -34.5s-15.5 -33.833 -15.5 -56.5zM384.996 127.001c0 30 -7.33301 53.333 -22 70
s-40.334 32.334 -77.001 47.001v-238c30.667 4.66699 54.834 17.667 72.501 39s26.5 48.666 26.5 81.999z" />
    <glyph glyph-name="percent" unicode="%" horiz-adv-x="871" 
d="M226 -21l-20 14l451 661l21 -14zM207 649c26 0 50.5 -7.16699 73.5 -21.5s41.5 -36.666 55.5 -66.999s21 -69.5 21 -117.5c0 -46.667 -7 -85.167 -21 -115.5s-32.5 -52.666 -55.5 -66.999s-47.5 -21.5 -73.5 -21.5s-50.5 7.16699 -73.5 21.5s-41.5 36.666 -55.5 66.999
s-21 68.833 -21 115.5c0 48 7 87.167 21 117.5s32.5 52.666 55.5 66.999s47.5 21.5 73.5 21.5zM151 443c0 -50.667 2.5 -89.334 7.5 -116.001s11.833 -45 20.5 -55s18 -15 28 -15c10.667 0 20.167 5 28.5 15s15 28.5 20 55.5s7.5 65.5 7.5 115.5
c0 50.667 -2.5 89.334 -7.5 116.001s-11.667 45.167 -20 55.5s-17.833 15.5 -28.5 15.5c-10 0 -19.333 -5 -28 -15s-15.5 -28.5 -20.5 -55.5s-7.5 -65.833 -7.5 -116.5zM664 401c26 0 50.5 -7.16699 73.5 -21.5s41.5 -36.666 55.5 -66.999s21 -69.5 21 -117.5
c0 -46.667 -7 -85.167 -21 -115.5s-32.5 -52.666 -55.5 -66.999s-47.5 -21.5 -73.5 -21.5s-50.5 7.16699 -73.5 21.5s-41.5 36.666 -55.5 66.999s-21 68.833 -21 115.5c0 48 7 87.167 21 117.5s32.5 52.666 55.5 66.999s47.5 21.5 73.5 21.5zM608 195
c0 -50.667 2.5 -89.334 7.5 -116.001s11.833 -45 20.5 -55s18 -15 28 -15c10.667 0 20.167 5 28.5 15s15 28.5 20 55.5s7.5 65.5 7.5 115.5c0 50.667 -2.5 89.334 -7.5 116.001s-11.667 45.167 -20 55.5s-17.833 15.5 -28.5 15.5c-10 0 -19.333 -5 -28 -15
s-15.5 -28.5 -20.5 -55.5s-7.5 -65.833 -7.5 -116.5z" />
    <glyph glyph-name="ampersand" unicode="&#x26;" horiz-adv-x="721" 
d="M231 -15c-44 0 -81.501 8.16797 -112.501 24.501s-54.5 37.833 -70.5 64.5s-24 56.334 -24 89.001c0 80.667 52 142.667 156 186c-18.667 25.333 -35.167 51 -49.5 77s-21.5 56.333 -21.5 91c0 47.333 16.833 85.166 50.5 113.499s77.834 42.5 132.501 42.5
c53.333 0 94.666 -11.833 123.999 -35.5s44 -54.834 44 -93.501c0 -32.667 -13.333 -61.334 -40 -86.001s-64.667 -47.334 -114 -68.001l39.5 -44.5l42.5 -46.5l52.5 -57l51.5 -56c16 22 31 48.667 45 80s25 64.333 33 99c5.33301 25.333 -4.33398 41.666 -29.001 48.999
l-7 3v10h113v-10l-9 -3c-22 -7.33301 -36.333 -22.666 -43 -45.999c-10 -37.333 -22.333 -72.666 -37 -105.999s-31.667 -63.666 -51 -90.999l107 -113c8.66699 -9.33301 17.334 -17 26.001 -23s18.334 -12 29.001 -18l14 -7v-10h-202l-67 72
c-12.667 -14 -27 -27.667 -43 -41s-35.333 -24.333 -58 -33s-50 -13 -82 -13zM293.999 403.001c26 23.333 44.8301 46.8301 56.4971 70.4971s17.5 49.834 17.5 78.501c0 26 -6.66699 47.167 -20 63.5s-31.666 24.5 -54.999 24.5c-22 0 -40.333 -8 -55 -24
s-22 -36.333 -22 -61c0 -15.333 2.83301 -31.333 8.5 -48s15.834 -35.667 30.501 -57c4 -5.33301 9.33301 -11.666 16 -18.999s14.334 -16.666 23.001 -27.999zM288.996 51.998c23.333 0 44.333 3.49902 63 10.499s34.667 15.833 48 26.5l-50 56.5l-49 56.5l-54.5 66
l-52.5 64c-17.333 -16 -30 -34.667 -38 -56s-12 -43.666 -12 -66.999c0 -45.333 13.5 -82.833 40.5 -112.5s61.833 -44.5 104.5 -44.5z" />
    <glyph glyph-name="quotesingle" unicode="'" horiz-adv-x="223" 
d="M102 403l-19.998 67c-5.33301 22.667 -11.333 46.5 -18 71.5s-12.334 47.833 -17.001 68.5s-7 36 -7 46c0 23.333 6.83301 41.666 20.5 54.999s30.5 20 50.5 20s37 -6.66699 51 -20s21 -31.666 21 -54.999c0 -10 -2.33301 -25.333 -7 -46s-10.334 -43.5 -17.001 -68.5
s-12.667 -48.833 -18 -71.5l-20 -67h-19z" />
    <glyph glyph-name="parenleft" unicode="(" horiz-adv-x="368" 
d="M310 -174c-74 57.333 -131.833 124.332 -173.5 200.999s-62.5 160.334 -62.5 251.001s20.833 174.334 62.5 251.001s99.5 143.667 173.5 201l12 -11c-35.333 -48 -63 -95 -83 -141s-34.167 -93.333 -42.5 -142s-12.5 -101.334 -12.5 -158.001s4.16699 -109.5 12.5 -158.5
s22.5 -96.5 42.5 -142.5s47.667 -93.333 83 -142z" />
    <glyph glyph-name="parenright" unicode=")" horiz-adv-x="368" 
d="M58 730c74 -57.333 131.833 -124.332 173.5 -200.999s62.5 -160.334 62.5 -251.001s-20.833 -174.334 -62.5 -251.001s-99.5 -143.667 -173.5 -201l-12 11c35.333 48 63 95 83 141s34.167 93.333 42.5 142s12.5 101.334 12.5 158.001s-4.16699 109.5 -12.5 158.5
s-22.5 96.5 -42.5 142.5s-47.667 93.333 -83 142z" />
    <glyph glyph-name="asterisk" unicode="*" horiz-adv-x="433" 
d="M216 738c15.333 0 27.002 -4.66895 35.002 -14.002s12 -21.333 12 -36c0 -10.667 -1.83301 -24.167 -5.5 -40.5s-8.83398 -34.833 -15.501 -55.5l-14 -48l39 29c25.333 19.333 46.666 32.833 63.999 40.5s31.333 11.5 42 11.5c11.333 0 21.666 -4.16699 30.999 -12.5
s14 -20.166 14 -35.499c0 -20.667 -11.5 -34.167 -34.5 -40.5s-56.167 -10.5 -99.5 -12.5l-49 -2l39 -27c31.333 -20.667 53.333 -39 66 -55s19 -31.667 19 -47c0 -10.667 -4.33301 -20.667 -13 -30s-19.334 -14 -32.001 -14c-19.333 0 -34.666 10 -45.999 30
s-23.333 47.667 -36 83l-16 45l-17 -45c-12.667 -39.333 -25.167 -67.833 -37.5 -85.5s-27.166 -26.5 -44.499 -26.5c-12.667 0 -23.334 4.66699 -32.001 14s-13 19.333 -13 30c0 16 7.33301 32.167 22 48.5s36 33.833 64 52.5l38 27l-48 2c-46 2 -79.833 6.33301 -101.5 13
s-32.5 20.334 -32.5 41.001c0 15.333 4.83301 27 14.5 35s19.834 12 30.501 12c26 0 61.333 -17.333 106 -52l39 -29l-14 48c-6.66699 21.333 -11.667 40.5 -15 57.5s-5 29.833 -5 38.5c0 14.667 4 26.667 12 36s19.333 14 34 14z" />
    <glyph glyph-name="plus" unicode="+" horiz-adv-x="541" 
d="M259 73v241h-229v20h229v237h24v-237h229v-20h-229v-241h-24z" />
    <glyph glyph-name="comma" unicode="," horiz-adv-x="300" 
d="M87 -159l-6.00293 14c22.667 14 39.834 30.833 51.501 50.5s19.834 44.167 24.501 73.5l-33 14c-19.333 9.33301 -34.166 21.5 -44.499 36.5s-15.5 30.167 -15.5 45.5c0 23.333 7.66699 42.833 23 58.5s35.333 23.5 60 23.5c25.333 0 45.833 -8.83301 61.5 -26.5
s23.5 -43.167 23.5 -76.5c0 -36.667 -7.5 -69.5 -22.5 -98.5s-33.5 -53.333 -55.5 -73s-44.333 -33.5 -67 -41.5z" />
    <glyph glyph-name="hyphen" unicode="-" horiz-adv-x="332" 
d="M40 240v27h252v-27h-252z" />
    <glyph glyph-name="period" unicode="." horiz-adv-x="300" 
d="M150 -15c-24 0 -44.333 8.33301 -61 25s-25 36.667 -25 60s8.33301 43.666 25 60.999s37 26 61 26s44.333 -8.66699 61 -26s25 -37.666 25 -60.999s-8.33301 -43.333 -25 -60s-37 -25 -61 -25z" />
    <glyph glyph-name="slash" unicode="/" horiz-adv-x="342" 
d="M26 -160l267 870h24l-267 -870h-24z" />
    <glyph glyph-name="zero" unicode="0" horiz-adv-x="502" 
d="M251 -15c-40 0 -77.5 11.333 -112.5 34s-63.167 58.334 -84.5 107.001s-32 112 -32 190c0 78.667 10.667 142.5 32 191.5s49.5 84.833 84.5 107.5s72.5 34 112.5 34s77.5 -11.333 112.5 -34s63.333 -58.5 85 -107.5s32.5 -112.833 32.5 -191.5
c0 -78 -10.833 -141.333 -32.5 -190s-50 -84.334 -85 -107.001s-72.5 -34 -112.5 -34zM251 5c16.667 0 30.834 4.33105 42.501 12.998s21.167 24.334 28.5 47.001s12.666 54.167 15.999 94.5s5 92.5 5 156.5s-1.66699 116.5 -5 157.5s-8.66602 72.833 -15.999 95.5
s-16.833 38.334 -28.5 47.001s-25.834 13 -42.501 13s-30.834 -4.33301 -42.501 -13s-21.167 -24.167 -28.5 -46.5s-12.666 -54 -15.999 -95s-5 -93.833 -5 -158.5c0 -64 1.66699 -116.333 5 -157s8.66602 -72.167 15.999 -94.5s16.833 -37.833 28.5 -46.5
s25.834 -13 42.501 -13z" />
    <glyph glyph-name="one" unicode="1" horiz-adv-x="350" 
d="M28 0l0.000976562 10l39 12c25.333 8.66699 38 25.667 38 51v484l-81 -11v13c39.333 8 77.166 19.333 113.499 34s70.5 31.667 102.5 51l13 -9l-4 -143v-419c0 -26 12.667 -42.667 38 -50l41 -13v-10h-300z" />
    <glyph glyph-name="two" unicode="2" horiz-adv-x="532" 
d="M69 466l7.00098 142.001c20 11.333 44.833 21 74.5 29s63.167 12 100.5 12c53.333 0 96.333 -7.5 129 -22.5s56.667 -35.5 72 -61.5s23 -55.333 23 -88c0 -46 -22.333 -90.833 -67 -134.5s-105.667 -91.834 -183 -144.501l-52 -39c-20 -15.333 -38.667 -30.333 -56 -45
h375v-114h-440v84l70.5 69.5l65.5 65.5c48 49.333 83.833 93.166 107.5 131.499s35.5 79.5 35.5 123.5c0 46 -8.33301 83.167 -25 111.5s-41.667 42.5 -75 42.5c-20.667 0 -39.834 -5.16699 -57.501 -15.5s-33.167 -28.166 -46.5 -53.499l-48 -93h-10z" />
    <glyph glyph-name="three" unicode="3" horiz-adv-x="532" 
d="M254 -15c-44.667 0 -81.168 5 -109.501 15s-56.166 21.667 -83.499 35l11 130h10l44 -81c29.333 -52.667 70 -79 122 -79c30.667 0 55.5 12.833 74.5 38.5s28.5 68.834 28.5 129.501c0 52.667 -8 90.5 -24 113.5s-43.333 34.5 -82 34.5h-60v20h53
c35.333 0 60.833 10.667 76.5 32s23.5 58.333 23.5 111c0 51.333 -7.66699 87.833 -23 109.5s-35.666 32.5 -60.999 32.5s-46.5 -7.33301 -63.5 -22s-30.833 -32 -41.5 -52l-45 -84l-10 1l10 147c21.333 9.33301 45.166 17.166 71.499 23.499s55.833 9.5 88.5 9.5
c70 0 123.167 -15.167 159.5 -45.5s54.5 -68.166 54.5 -113.499c0 -32.667 -14 -63.834 -42 -93.501s-72 -50.167 -132 -61.5c68 -6 117.333 -24.333 148 -55s46 -67.667 46 -111c0 -34.667 -9.83301 -66 -29.5 -94s-47.667 -50 -84 -66s-79.833 -24 -130.5 -24z" />
    <glyph glyph-name="four" unicode="4" horiz-adv-x="538" 
d="M287 0v162h-263v57l293 423h98v-406h95v-74h-95v-162h-128zM68 236h219v315z" />
    <glyph glyph-name="five" unicode="5" horiz-adv-x="532" 
d="M244 -15c-38.667 0 -73.167 3.5 -103.5 10.5s-57.166 18.5 -80.499 34.5l7 126h10l46 -82c13.333 -24 29.666 -41.5 48.999 -52.5s40.666 -16.5 63.999 -16.5c76.667 0 115 58.333 115 175c0 52.667 -10.167 92.667 -30.5 120s-50.5 41 -90.5 41
c-18.667 0 -37.167 -2.5 -55.5 -7.5s-35.166 -11.5 -50.499 -19.5l-18 11l22 309h350v-114h-330l-14 -173c15.333 11.333 36 22 62 32s53.333 15 82 15c43.333 0 81.833 -7.66699 115.5 -23s60 -37.833 79 -67.5s28.5 -66.167 28.5 -109.5
c0 -44.667 -11.167 -82.667 -33.5 -114s-52.833 -55 -91.5 -71s-82.667 -24 -132 -24z" />
    <glyph glyph-name="six" unicode="6" horiz-adv-x="530" 
d="M270 -15c-71.333 0 -128.837 23.6689 -172.504 71.002s-65.5 114 -65.5 200c0 51.333 10 99.333 30 144s48.5 84.667 85.5 120s81.333 64.166 133 86.499s109.167 36.5 172.5 42.5l3 -15c-81.333 -16.667 -143.166 -47.334 -185.499 -92.001
s-70.166 -105.334 -83.499 -182.001c38.667 22.667 82 34 130 34c40.667 0 74.334 -8.33301 101.001 -25s46.834 -39.167 60.501 -67.5s20.5 -60.166 20.5 -95.499c0 -47.333 -11.167 -87.5 -33.5 -120.5s-51 -58 -86 -75s-71.5 -25.5 -109.5 -25.5zM177.996 235.002
c0 -82.667 7.16699 -141.668 21.5 -177.001s36.833 -53 67.5 -53s53.167 14.5 67.5 43.5s21.5 77.5 21.5 145.5c0 62.667 -7.33301 106.334 -22 131.001s-38.667 37 -72 37c-28 0 -54 -7 -78 -21c-4 -32 -6 -67.333 -6 -106z" />
    <glyph glyph-name="seven" unicode="7" horiz-adv-x="489" 
d="M99 0l-10 10l346 520h-408v104h440v-65l-236 -569h-132z" />
    <glyph glyph-name="eight" unicode="8" horiz-adv-x="502" 
d="M28 139c0 34 13.668 64.001 41.001 90.001s61 47 101 63c-84.667 44 -127 104 -127 180c0 36.667 9.33301 68.167 28 94.5s44.167 46.666 76.5 60.999s68.5 21.5 108.5 21.5c40.667 0 74.667 -6.5 102 -19.5s47.833 -30.333 61.5 -52s20.5 -45.5 20.5 -71.5
c0 -20 -5.33301 -39.333 -16 -58s-24.834 -35.667 -42.501 -51s-36.834 -28 -57.501 -38c50 -24.667 87.5 -52.5 112.5 -83.5s37.5 -68.167 37.5 -111.5c0 -54 -20.667 -97.333 -62 -130s-96.666 -49 -165.999 -49c-70.667 0 -124.667 13.833 -162 41.5
s-56 65.167 -56 112.5zM160.001 529.001c0 -20 3.66699 -38.498 11 -55.498s21.5 -34 42.5 -51s51.5 -35.167 91.5 -54.5c20 23.333 32.667 45.666 38 66.999s8 42 8 62c0 47.333 -9 81.166 -27 101.499s-41.667 30.5 -71 30.5c-26 0 -48 -8.83301 -66 -26.5
s-27 -42.167 -27 -73.5zM133.001 149.003c0 -42.667 10.667 -77.334 32 -104.001s50 -40 86 -40c33.333 0 58.666 10.833 75.999 32.5s26 49.834 26 84.501c0 21.333 -4.66699 40.5 -14 57.5s-25.5 33.5 -48.5 49.5s-54.833 33 -95.5 51
c-3.33301 1.33301 -6.66602 3 -9.99902 5c-14.667 -14 -25.667 -27.167 -33 -39.5s-12.333 -26 -15 -41s-4 -33.5 -4 -55.5z" />
    <glyph glyph-name="nine" unicode="9" horiz-adv-x="532" 
d="M500 381c0 -67.333 -15.668 -128.502 -47.001 -183.502s-77.166 -101.167 -137.499 -138.5s-134.166 -63.666 -221.499 -78.999l-4 18c59.333 12.667 107 31 143 55s63.167 54.333 81.5 91s30.166 80.667 35.499 132c-14 -9.33301 -31.333 -16.833 -52 -22.5
s-44 -8.5 -70 -8.5c-37.333 0 -70.833 7.5 -100.5 22.5s-53.167 36.833 -70.5 65.5s-26 63.334 -26 104.001c0 43.333 10.667 80.833 32 112.5s49.5 56.167 84.5 73.5s73.5 26 115.5 26c76 0 134.5 -23.833 175.5 -71.5s61.5 -113.167 61.5 -196.5zM171.999 449.998
c0 -60.667 8.33301 -104.5 25 -131.5s44 -40.5 82 -40.5c28 0 52.333 6 73 18c1.33301 14.667 2.33301 29.5 3 44.5s1 30.833 1 47.5c0 61.333 -3 109.5 -9 144.5s-15.667 59.833 -29 74.5s-31.333 22 -54 22c-30.667 0 -53.667 -14 -69 -42s-23 -73.667 -23 -137z" />
    <glyph glyph-name="colon" unicode=":" horiz-adv-x="300" 
d="M150 330c-24 0 -44.333 8.33301 -61 25s-25 36.667 -25 60s8.33301 43.666 25 60.999s37 26 61 26s44.333 -8.66699 61 -26s25 -37.666 25 -60.999s-8.33301 -43.333 -25 -60s-37 -25 -61 -25zM150 -15c-24 0 -44.333 8.33301 -61 25s-25 36.667 -25 60
s8.33301 43.666 25 60.999s37 26 61 26s44.333 -8.66699 61 -26s25 -37.666 25 -60.999s-8.33301 -43.333 -25 -60s-37 -25 -61 -25z" />
    <glyph glyph-name="semicolon" unicode=";" horiz-adv-x="300" 
d="M150 330c-24 0 -44.333 8.33301 -61 25s-25 36.667 -25 60s8.33301 43.666 25 60.999s37 26 61 26s44.333 -8.66699 61 -26s25 -37.666 25 -60.999s-8.33301 -43.333 -25 -60s-37 -25 -61 -25zM87 -159l-6.00293 14c22.667 14 39.834 30.833 51.501 50.5
s19.834 44.167 24.501 73.5l-33 14c-19.333 9.33301 -34.166 21.5 -44.499 36.5s-15.5 30.167 -15.5 45.5c0 23.333 7.66699 42.833 23 58.5s35.333 23.5 60 23.5c25.333 0 45.833 -8.83301 61.5 -26.5s23.5 -43.167 23.5 -76.5c0 -36.667 -7.5 -69.5 -22.5 -98.5
s-33.5 -53.333 -55.5 -73s-44.333 -33.5 -67 -41.5z" />
    <glyph glyph-name="less" unicode="&#x3c;" horiz-adv-x="541" 
d="M42 312v26l417 228l12 -23l-397 -218l397 -218l-12 -23z" />
    <glyph glyph-name="equal" unicode="=" horiz-adv-x="541" 
d="M30 210v20h482v-20h-482zM30 418v20h482v-20h-482z" />
    <glyph glyph-name="greater" unicode="&#x3e;" horiz-adv-x="541" 
d="M499 338v-26l-417 -228l-12 23l397 218l-397 218l12 23z" />
    <glyph glyph-name="question" unicode="?" horiz-adv-x="506" 
d="M253 225l-9.00098 170.001c31.333 11.333 56.666 29 75.999 53s29 53 29 87c0 40 -7.33301 71.5 -22 94.5s-33 34.5 -55 34.5c-19.333 0 -34.166 -6.66699 -44.499 -20s-18.5 -31.333 -24.5 -54l-13 -48c-6 -22.667 -16.167 -38.834 -30.5 -48.501
s-29.333 -13.5 -45 -11.5s-29.167 9.16699 -40.5 21.5s-17 29.166 -17 50.499c0 26.667 9.83301 49.667 29.5 69s44.834 34.333 75.501 45s62.667 16 96 16c67.333 0 120.166 -14.333 158.499 -43s57.5 -71.667 57.5 -129c0 -39.333 -9.66699 -72.666 -29 -99.999
s-44.166 -49.5 -74.499 -66.5s-61.833 -30.167 -94.5 -39.5l-5 -81h-18zM253.999 -14.999c-24 0 -44.5 8.33301 -61.5 25s-25.5 37 -25.5 61c0 23.333 8.5 43.5 25.5 60.5s37.5 25.5 61.5 25.5c24.667 0 45.167 -8.5 61.5 -25.5s24.5 -37.167 24.5 -60.5
c0 -24 -8.16699 -44.333 -24.5 -61s-36.833 -25 -61.5 -25z" />
    <glyph glyph-name="at" unicode="@" horiz-adv-x="877" 
d="M398 -153c-71.333 0 -133.502 14.6738 -186.502 44.0068s-94 70.166 -123 122.499s-43.5 113.5 -43.5 183.5c0 60 10.5 117.5 31.5 172.5s51.333 104 91 147s87.334 77 143.001 102s117.834 37.5 186.501 37.5c72.667 0 134 -14.333 184 -43s88 -67.334 114 -116.001
s39 -103.334 39 -164.001c0 -44 -6.66699 -83.833 -20 -119.5s-31 -66.334 -53 -92.001s-46.667 -45.5 -74 -59.5s-55 -21 -83 -21c-35.333 0 -62.333 9.66699 -81 29s-29.667 41.666 -33 66.999c-20 -32.667 -42.167 -56.834 -66.5 -72.501s-49.166 -23.5 -74.499 -23.5
c-30.667 0 -57.5 11.667 -80.5 35s-34.5 59 -34.5 107c0 35.333 7.16699 70.5 21.5 105.5s33.166 67 56.499 96s49.166 52.333 77.499 70s56.5 26.5 84.5 26.5c30.667 0 57.334 -9.33301 80.001 -28l64 22l25 -17l-60 -333c-3.33301 -19.333 -1.5 -34.5 5.5 -45.5
s16.833 -16.5 29.5 -16.5c23.333 0 46.333 11.5 69 34.5s41.667 55 57 96s23 88.5 23 142.5c0 94 -24.5 167.167 -73.5 219.5s-115.5 78.5 -199.5 78.5c-57.333 0 -109 -11.667 -155 -35s-85.5 -55 -118.5 -95s-58.167 -85.333 -75.5 -136s-26 -103.334 -26 -158.001
c0 -72.667 13.333 -133.667 40 -183s63.5 -86.833 110.5 -112.5s100.5 -38.5 160.5 -38.5c27.333 0 54 2.66699 80 8s51.333 13.333 76 24l6 -18c-28.667 -13.333 -59.5 -23.833 -92.5 -31.5s-66.833 -11.5 -101.5 -11.5zM405.998 112.007
c11.333 0 22.998 2.83203 34.998 8.49902s24.667 15.834 38 30.501l50 275c-6.66699 8.66699 -14.667 14.667 -24 18s-18.666 5 -27.999 5c-18.667 0 -38.167 -10.333 -58.5 -31s-37.666 -48.667 -51.999 -84s-21.5 -75 -21.5 -119c0 -34.667 6 -60.5 18 -77.5
s26.333 -25.5 43 -25.5z" />
    <glyph glyph-name="A" unicode="A" horiz-adv-x="650" 
d="M8 0l0.000976562 10.002l25 9c13.333 5.33301 23.666 11.833 30.999 19.5s13.333 18.5 18 32.5l206 591h85l203 -595c5.33301 -14.667 11.333 -25.834 18 -33.501s17 -14.167 31 -19.5l12 -4v-10h-254v10l15 5c14 5.33301 22.5 12.833 25.5 22.5s2.5 21.167 -1.5 34.5
l-47 144h-222l-48 -141c-4.66699 -14.667 -6.16699 -26.334 -4.5 -35.001s9.5 -15.667 23.5 -21l22 -9v-10h-138zM160.001 236.002h209l-101 311z" />
    <glyph glyph-name="B" unicode="B" horiz-adv-x="598" 
d="M22 0l-0.000976562 9.99902l18 7c13.333 5.33301 22.5 12 27.5 20s7.5 18.667 7.5 32v522c0 14 -2.5 25 -7.5 33s-14.167 14.333 -27.5 19l-18 7v10h287c81.333 0 140 -14.833 176 -44.5s54 -67.167 54 -112.5c0 -34 -13.167 -64.833 -39.5 -92.5
s-71.5 -47.167 -135.5 -58.5c73.333 -8 127 -27.167 161 -57.5s51 -67.166 51 -110.499c0 -21.333 -4.66699 -42.833 -14 -64.5s-25.166 -41.5 -47.499 -59.5s-52.833 -32.5 -91.5 -43.5s-87.667 -16.5 -147 -16.5h-254zM222.999 352.999h42.999
c44.667 0 76.834 10.333 96.501 31s29.5 56.667 29.5 108c0 53.333 -9 91.333 -27 114s-47.333 34 -88 34h-54v-287zM222.998 19.999l49.999 -0.000976562c50 0 87.167 13.333 111.5 40s36.5 68.334 36.5 125.001c0 53.333 -11.667 91.333 -35 114s-61.666 34 -114.999 34
h-48v-313z" />
    <glyph glyph-name="C" unicode="C" horiz-adv-x="603" 
d="M366 -18c-64.667 0 -123.165 13.1729 -175.498 39.5059s-93.833 65.5 -124.5 117.5s-46 115.667 -46 191c0 57.333 9.33301 107.666 28 150.999s44.167 79.666 76.5 108.999s69.666 51.333 111.999 66s87.166 22 134.499 22c38 0 73 -4.33301 105 -13s62 -20.667 90 -36
l4 -123h-10l-50 80c-6.66699 12.667 -14 24.167 -22 34.5s-18 18.166 -30 23.499c-10 4.66699 -19.833 8.16699 -29.5 10.5s-21.834 3.5 -36.501 3.5c-38.667 0 -73.834 -10.333 -105.501 -31s-57 -54.834 -76 -102.501s-28.5 -112.834 -28.5 -195.501
c0 -82 9 -146.833 27 -194.5s42.5 -81.667 73.5 -102s65.833 -30.5 104.5 -30.5c21.333 0 38.333 1.5 51 4.5s25.334 7.5 38.001 13.5c12.667 5.33301 22.334 13.166 29.001 23.499s12.667 21.5 18 33.5l44 98h10l-3 -143c-28 -14.667 -59.333 -26.667 -94 -36
s-72.667 -14 -114 -14z" />
    <glyph glyph-name="D" unicode="D" horiz-adv-x="648" 
d="M22 0l0.000976562 10l21 8c21.333 8.66699 32 25.667 32 51v522c0 26.667 -10.667 43.667 -32 51l-21 8v10h264c70.667 0 131.5 -13.167 182.5 -39.5s90.333 -64 118 -113s41.5 -107.833 41.5 -176.5c0 -70 -15 -129.667 -45 -179s-71.833 -87 -125.5 -113
s-116.834 -39 -189.501 -39h-246zM225.001 20h43.002c48 0 86.667 9.5 116 28.5s50.833 51 64.5 96s20.5 106.833 20.5 185.5s-6.83301 140.5 -20.5 185.5s-34.834 77 -63.501 96s-66.334 28.5 -113.001 28.5h-47v-620z" />
    <glyph glyph-name="E" unicode="E" horiz-adv-x="555" 
d="M22 0l0.00292969 9.99805l23 9c11.333 4.66699 19.166 10.834 23.499 18.501s6.5 18.167 6.5 31.5v522c0 13.333 -1.83301 23.833 -5.5 31.5s-11.834 13.834 -24.501 18.501l-23 9v10h479l6 -154h-10l-43 94c-6 12 -12.333 21.667 -19 29s-16.667 11 -30 11h-180v-289
h107c13.333 0 23.5 3.5 30.5 10.5s13.167 16.5 18.5 28.5l20 40h10v-180h-10l-20 42c-6 12 -12.333 21.5 -19 28.5s-16.667 10.5 -30 10.5h-107v-311h202c13.333 0 23.666 3.5 30.999 10.5s13.333 16.833 18 29.5l41 94h10l-6 -154h-499z" />
    <glyph glyph-name="F" unicode="F" horiz-adv-x="538" 
d="M22 0l0.00292969 9.99805l18 6c13.333 4.66699 22.333 11 27 19s7 18.667 7 32c0.666992 40 1 80.333 1 121v122v40v120.5c0 40.333 -0.333008 80.5 -1 120.5c0 13.333 -1.83301 24 -5.5 32s-11.834 14.333 -24.501 19l-22 8v10h484l7 -166h-10l-57 105
c-6.66699 12.667 -14.334 22.667 -23.001 30s-20.667 11 -36 11h-161c-0.666992 -47.333 -1 -95.666 -1 -144.999v-147h104c15.333 0 26.666 3.33301 33.999 10s14.333 16.334 21 29.001l21 38h10v-175h-10l-22 38c-6.66699 12 -13.5 21.667 -20.5 29s-18.167 11 -33.5 11
h-104v-133.5c0 -42.333 0.333008 -83.833 1 -124.5c0 -26 12.667 -43 38 -51l30 -9v-10h-272z" />
    <glyph glyph-name="G" unicode="G" horiz-adv-x="656" 
d="M364 -18c-68 0 -127.83 14.1689 -179.497 42.502s-92 68.666 -121 120.999s-43.5 114.166 -43.5 185.499c0 69.333 14.333 130 43 182s70.167 92.5 124.5 121.5s120.166 43.5 197.499 43.5c35.333 0 68.166 -4 98.499 -12s59.166 -19.667 86.499 -35l4 -140h-10l-56 104
c-8.66699 16.667 -16.667 28.667 -24 36s-16.666 13 -27.999 17c-10.667 3.33301 -20.5 5.83301 -29.5 7.5s-20.833 2.5 -35.5 2.5c-41.333 0 -77.833 -11 -109.5 -33s-56.167 -57 -73.5 -105s-26 -111 -26 -189c0 -77.333 8.16699 -140.333 24.5 -189
s39.5 -84.167 69.5 -106.5s64.667 -33.5 104 -33.5c6 0 11.833 0.5 17.5 1.5s11.167 2.16699 16.5 3.5c12.667 2 21 7.33301 25 16s6 19 6 31v198c0 26 -13.333 42 -40 48l-46 12v10h282v-10l-14 -4c-25.333 -8 -38 -24.667 -38 -50v-217
c-34.667 -19.333 -69.834 -34 -105.501 -44s-75.5 -15 -119.5 -15z" />
    <glyph glyph-name="H" unicode="H" horiz-adv-x="691" 
d="M22 0l0.000976562 10l20 8c13.333 4.66699 22.166 11 26.499 19s6.5 18.333 6.5 31v523c0 13.333 -2.16699 24 -6.5 32s-13.166 14.333 -26.499 19l-20 8v10h254v-10l-17 -7c-12.667 -4.66699 -21.334 -10.834 -26.001 -18.501s-7 -18.167 -7 -31.5v-243h239v243
c0 13.333 -2.16699 23.833 -6.5 31.5s-13.166 13.834 -26.499 18.501l-18 7v10h255v-10l-20 -8c-12.667 -4.66699 -21.334 -11 -26.001 -19s-7 -18.667 -7 -32v-523c0 -12.667 2.33301 -23 7 -31s13.334 -14.333 26.001 -19l20 -8v-10h-255v10l18 6
c13.333 5.33301 22.166 11.833 26.499 19.5s6.5 18.167 6.5 31.5v263h-239v-263c0 -24.667 11 -41.667 33 -51l17 -6v-10h-254z" />
    <glyph glyph-name="I" unicode="I" horiz-adv-x="301" 
d="M22 0l0.000976562 10l20 8c13.333 4.66699 22.166 11 26.499 19s6.5 18.667 6.5 32v522c0 13.333 -2 24 -6 32s-13 14.333 -27 19l-20 8v10h257v-10l-20 -8c-13.333 -4.66699 -22.166 -11 -26.499 -19s-6.5 -18.667 -6.5 -32v-522c0 -13.333 2.16699 -23.833 6.5 -31.5
s13.166 -14.167 26.499 -19.5l20 -8v-10h-257z" />
    <glyph glyph-name="J" unicode="J" horiz-adv-x="427" 
d="M109 -18c-32.667 0 -57.8291 6.33496 -75.4961 19.002s-26.5 29.667 -26.5 51c0 18.667 6.5 33 19.5 43s28.167 15 45.5 15s32.666 -3.83301 45.999 -11.5s25.666 -20.834 36.999 -39.501l18 -31c3.33301 -4.66699 7.5 -7 12.5 -7s8.5 3 10.5 9
c4 13.333 6.83301 32.833 8.5 58.5s2.5 56.834 2.5 93.501c0 42 -1 96 -3 162s-4 147.333 -6 244c0 28.667 -10.667 46.667 -32 54l-23 8v10h262v-10l-22 -8c-12 -4.66699 -20.167 -10.834 -24.5 -18.501s-6.5 -18.5 -6.5 -32.5v-198c0 -65.333 -3 -119.333 -9 -162
s-15.667 -79.667 -29 -111c-16.667 -44.667 -43.834 -78.834 -81.501 -102.501s-78.834 -35.5 -123.501 -35.5z" />
    <glyph glyph-name="K" unicode="K" horiz-adv-x="654" 
d="M22 0v9.99902l21 8c13.333 4.66699 22 11 26 19s6 18.333 6 31v523c0 13.333 -2 24 -6 32s-12.667 14.333 -26 19l-21 8v10h249v-10l-22 -9c-11.333 -4 -19 -10 -23 -18s-6 -19 -6 -33v-523c0 -13.333 2.16699 -23.666 6.5 -30.999s12.833 -13.333 25.5 -18l19 -8v-10
h-249zM391 -0.000976562l0.000976562 9.99902l13 4c13.333 4 20.333 10.667 21 20s-3.33301 20 -12 32l-192 273l253 258c9.33301 9.33301 14.5 18.333 15.5 27s-5.5 15.334 -19.5 20.001l-17 6v10h146v-10l-26 -8c-14.667 -4.66699 -26.334 -10.334 -35.001 -17.001
s-18.667 -15.667 -30 -27l-179 -183l235 -343c10 -14.667 19.5 -26.667 28.5 -36s21.833 -16.666 38.5 -21.999l14 -4v-10h-254z" />
    <glyph glyph-name="L" unicode="L" horiz-adv-x="540" 
d="M22 0l-0.000976562 9.99902l21 8c14 5.33301 22.833 11.833 26.5 19.5s5.5 18.167 5.5 31.5v522c0 13.333 -2 24 -6 32s-12.667 14.333 -26 19l-21 8v10h255v-10l-18 -8c-12.667 -4.66699 -21.334 -11.167 -26.001 -19.5s-7 -19.166 -7 -32.499v-570h154
c24.667 0 42.834 6 54.501 18s22.834 29.333 33.501 52l39 84h10l-9 -174h-486z" />
    <glyph glyph-name="M" unicode="M" horiz-adv-x="791" 
d="M20 0l0.000976562 9.99902l20 7c22.667 7.33301 34 26.333 34 57v512c0 13.333 -1.5 24 -4.5 32s-10.833 14.667 -23.5 20l-26 12v10h193l185 -484l174 484h197v-10l-16 -6c-12.667 -4.66699 -21.334 -11.167 -26.001 -19.5s-7 -19.166 -7 -32.499v-523
c0 -13.333 1.66699 -23.666 5 -30.999s11.333 -13.666 24 -18.999l20 -9v-10h-249v10l21 9c12.667 5.33301 20.667 11.666 24 18.999s5 17.666 5 30.999v225l2 286l-209 -580h-50l-218 573l3 -249v-252c0 -14.667 2.16699 -26.5 6.5 -35.5s12.833 -15.5 25.5 -19.5l22 -7
v-10h-132z" />
    <glyph glyph-name="N" unicode="N" horiz-adv-x="653" 
d="M35 0l-0.00390625 9.99805l33 10c12 3.33301 20.667 9.83301 26 19.5s8 21.167 8 34.5v481c-7.33301 16 -13.166 28 -17.499 36s-9.16602 14.833 -14.499 20.5s-12.666 12.834 -21.999 21.501l-17 17v10h177l332 -453v377c0 13.333 -2.16699 25.333 -6.5 36
s-13.166 17.667 -26.499 21l-33 9v10h143v-10l-27 -9c-12 -4 -19.333 -11 -22 -21s-4 -21.667 -4 -35v-588h-56l-382 525v-448c0 -13.333 2 -24.666 6 -33.999s12.333 -16 25 -20l30 -10v-10h-152z" />
    <glyph glyph-name="O" unicode="O" horiz-adv-x="670" 
d="M335 -18c-40.667 0 -79.832 7.33496 -117.499 22.002s-71.334 36.5 -101.001 65.5s-53.167 65.167 -70.5 108.5s-26 94 -26 152c0 57.333 8.66699 107.666 26 150.999s41 79.5 71 108.5s63.833 51 101.5 66s76.5 22.5 116.5 22.5c40.667 0 79.834 -7.16699 117.501 -21.5
s71.334 -36 101.001 -65s53.167 -65.333 70.5 -109s26 -94.5 26 -152.5c0 -56.667 -8.66699 -106.834 -26 -150.501s-40.833 -80 -70.5 -109s-63.334 -51 -101.001 -66s-76.834 -22.5 -117.501 -22.5zM335.002 3.00195c36.667 0 66.334 9.83301 89.001 29.5
s39.167 53.334 49.5 101.001s15.5 113.167 15.5 196.5c0 84 -5.16699 149.833 -15.5 197.5s-26.833 81.334 -49.5 101.001s-52.334 29.5 -89.001 29.5c-36 0 -65.333 -9.83301 -88 -29.5s-39.167 -53.334 -49.5 -101.001s-15.5 -113.5 -15.5 -197.5
c0 -83.333 5.16699 -148.833 15.5 -196.5s26.833 -81.334 49.5 -101.001s52 -29.5 88 -29.5z" />
    <glyph glyph-name="P" unicode="P" horiz-adv-x="565" 
d="M22 0l0.00195312 10l20 7c13.333 4 22.166 10 26.499 18s6.5 18.667 6.5 32v524c0 13.333 -2.33301 24 -7 32s-13.667 14.333 -27 19l-19 8v10h243c99.333 0 171.166 -18.167 215.499 -54.5s66.5 -84.166 66.5 -143.499c0 -38 -9.16699 -72.833 -27.5 -104.5
s-48.5 -56.834 -90.5 -75.501s-98.667 -28 -170 -28h-34v-184c0 -26 13 -43 39 -51l30 -9v-10h-272zM225.002 274l37.999 -0.000976562c32.667 0 59.334 5.33301 80.001 16s36 29.334 46 56.001s15 63.667 15 111c0 48 -5.5 85.333 -16.5 112s-27.167 45.167 -48.5 55.5
s-48 15.5 -80 15.5h-34v-366z" />
    <glyph glyph-name="Q" unicode="Q" horiz-adv-x="670" 
d="M335 -18c-42.667 0 -82.999 7.67188 -120.999 23.0049l-44 -62c43.333 -10.667 92.833 -22.167 148.5 -34.5l164.5 -35.5c26 -5.33301 45.5 -7.83301 58.5 -7.5s24.833 3.83301 35.5 10.5l27 17l8 -11l-51 -55c-14.667 -15.333 -29 -27.833 -43 -37.5
s-29.667 -14.5 -47 -14.5c-14 0 -34 2.16699 -60 6.5s-55 9.66602 -87 15.999s-64 13 -96 20l-87 18.5c-10.667 2.66699 -20.334 3.16699 -29.001 1.5s-17 -6.83398 -25 -15.501l-12 -12l-12 9l126 198c-48.667 24.667 -89 63.167 -121 115.5s-48 118.166 -48 197.499
c0 57.333 8.66699 107.666 26 150.999s41 79.5 71 108.5s63.833 51 101.5 66s76.5 22.5 116.5 22.5c40.667 0 79.834 -7.16699 117.501 -21.5s71.334 -36 101.001 -65s53.167 -65.333 70.5 -109s26 -94.5 26 -152.5c0 -56.667 -8.66699 -106.834 -26 -150.501
s-40.833 -80 -70.5 -109s-63.334 -51 -101.001 -66s-76.834 -22.5 -117.501 -22.5zM335.001 3.00488c36.667 0 66.334 9.83301 89.001 29.5s39.167 53.334 49.5 101.001s15.5 113.167 15.5 196.5c0 84 -5.16699 149.833 -15.5 197.5s-26.833 81.334 -49.5 101.001
s-52.334 29.5 -89.001 29.5c-36 0 -65.333 -9.83301 -88 -29.5s-39.167 -53.334 -49.5 -101.001s-15.5 -113.5 -15.5 -197.5c0 -83.333 5.16699 -148.833 15.5 -196.5s26.833 -81.334 49.5 -101.001s52 -29.5 88 -29.5z" />
    <glyph glyph-name="R" unicode="R" horiz-adv-x="628" 
d="M22 0v9.99805l21 7c13.333 4.66699 22 10.834 26 18.501s6 18.5 6 32.5v523c0 13.333 -1.83301 23.833 -5.5 31.5s-11.834 13.834 -24.501 18.501l-23 9v10h286c78.667 0 139 -14.833 181 -44.5s63 -70.834 63 -123.501c0 -29.333 -11 -58.666 -33 -87.999
s-56.667 -52 -104 -68l139 -276c6 -11.333 12.833 -20.5 20.5 -27.5s17.834 -13.167 30.501 -18.5l13 -5v-9h-179l-148 315h-68v-247c0 -12.667 2 -23 6 -31s12.333 -14 25 -18l24 -9v-10h-256zM223 334.998l48 -0.000976562c48 0 82.667 12.833 104 38.5
s32 63.834 32 114.501c0 51.333 -10 89.5 -30 114.5s-53.667 37.5 -101 37.5h-53v-305z" />
    <glyph glyph-name="S" unicode="S" horiz-adv-x="521" 
d="M237 -18c-36.667 0 -74.0029 4.50098 -112.003 13.501s-69.667 20.833 -95 35.5l5 136h10l31 -65c9.33301 -18.667 19.333 -35.167 30 -49.5s25.334 -25.5 44.001 -33.5c13.333 -6.66699 26.166 -11.167 38.499 -13.5s26.166 -3.5 41.499 -3.5
c40.667 0 72.834 11 96.501 33s35.5 50.333 35.5 85c0 32.667 -8 58.167 -24 76.5s-41.667 36.166 -77 53.499l-41 18c-57.333 25.333 -102.166 54.5 -134.499 87.5s-48.5 76.833 -48.5 131.5c0 39.333 10.167 73.333 30.5 102s48.666 50.667 84.999 66s78.833 23 127.5 23
c35.333 0 68.833 -4.66699 100.5 -14s59.167 -22 82.5 -38l-6 -120h-10l-41 75c-11.333 23.333 -22.666 39.833 -33.999 49.5s-24.333 16.5 -39 20.5c-8.66699 2.66699 -16.667 4.5 -24 5.5s-16.666 1.5 -27.999 1.5c-34 0 -62.667 -9.83301 -86 -29.5
s-35 -46.167 -35 -79.5c0 -34 9 -61.167 27 -81.5s44.333 -38.5 79 -54.5l46 -20c64 -28 110 -57.833 138 -89.5s42 -72.5 42 -122.5c0 -58.667 -22.167 -106.5 -66.5 -143.5s-107.166 -55.5 -188.499 -55.5z" />
    <glyph glyph-name="T" unicode="T" horiz-adv-x="627" 
d="M156 0l0.00195312 10l41 10c27.333 6 41 22.667 41 50v570h-85c-24.667 0 -42.334 -6.5 -53.001 -19.5s-22 -30.833 -34 -53.5l-36 -70h-10l5 163h577l4 -163h-10l-36 70c-11.333 22.667 -22.333 40.5 -33 53.5s-28.334 19.5 -53.001 19.5h-85v-570
c0 -27.333 13.667 -44 41 -50l41 -10v-10h-315z" />
    <glyph glyph-name="U" unicode="U" horiz-adv-x="649" 
d="M339 -18c-50.667 0 -95.501 9.00293 -134.501 27.0029s-69.333 46.5 -91 85.5s-32.5 90.5 -32.5 154.5v345c0 25.333 -13 42 -39 50l-22 6v10h277v-10l-29 -8c-24.667 -6 -37 -22.667 -37 -50v-369c0 -62 13 -107.833 39 -137.5s63.333 -44.5 112 -44.5
c50.667 0 90.834 15.667 120.501 47s44.5 75.666 44.5 132.999v367c0 13.333 -2.16699 25.166 -6.5 35.499s-13.166 17.166 -26.499 20.499l-25 6v10h140v-10l-27 -7c-12.667 -2.66699 -21 -9 -25 -19s-6 -21.667 -6 -35v-366c0 -48.667 -9.66699 -91.167 -29 -127.5
s-46.333 -64.333 -81 -84s-75.334 -29.5 -122.001 -29.5z" />
    <glyph glyph-name="V" unicode="V" horiz-adv-x="632" 
d="M284 -3l-214 595.998c-4.66699 13.333 -10.834 23.833 -18.501 31.5s-18.167 13.5 -31.5 17.5l-24 8v10h288v-10l-31 -9c-15.333 -4 -23.833 -11 -25.5 -21s-0.166992 -22.333 4.5 -37l148 -439l149 440c5.33301 15.333 7.83301 28 7.5 38s-8.16602 17 -23.499 21l-26 7
v10h140v-10l-27 -8c-12.667 -3.33301 -21.667 -9.16602 -27 -17.499s-10.333 -19.166 -15 -32.499l-200 -595h-74z" />
    <glyph glyph-name="W" unicode="W" horiz-adv-x="921" 
d="M236 -3l-177.006 595c-4.66699 15.333 -9.66699 26.5 -15 33.5s-14.666 13.5 -27.999 19.5l-12 5v10h265v-10l-21 -8c-15.333 -6 -25.666 -13.333 -30.999 -22s-5.66602 -20.667 -0.999023 -36l109 -416l118 349l-23 71c-4.66699 14 -9 24.667 -13 32
s-10.667 13.333 -20 18l-22 12v10h251v-10l-31 -12c-13.333 -4.66699 -20.833 -11.5 -22.5 -20.5s-0.166992 -20.5 4.5 -34.5l127 -425l120 417c4.66699 16 6.33398 30 5.00098 42s-9.66602 20.667 -24.999 26l-21 7v10h139v-10l-26 -10
c-13.333 -4.66699 -22.666 -12 -27.999 -22s-10 -22.333 -14 -37l-166 -584h-69l-150 470l-154 -470h-69z" />
    <glyph glyph-name="X" unicode="X" horiz-adv-x="614" 
d="M10 0l-0.000976562 10l17 5c14 4.66699 25 10.834 33 18.501s16 17.5 24 29.5l154 238l-175 298c-6.66699 11.333 -12.334 20.166 -17.001 26.499s-13.334 12.166 -26.001 17.499l-16 7v10h268v-10l-23 -7c-14 -4.66699 -21.667 -12 -23 -22s2 -22 10 -36l103 -175
l110 174c8.66699 14 13.834 26.667 15.501 38s-5.16602 19 -20.499 23l-20 5v10h139v-10l-26 -8c-12.667 -3.33301 -22.5 -8.83301 -29.5 -16.5s-14.167 -17.167 -21.5 -28.5l-134 -209l190 -325c7.33301 -12 14.333 -21.167 21 -27.5s16 -12.166 28 -17.499l19 -8v-10h-280
v10l23 6c16 4 25 11.333 27 22s-1.33301 23 -10 37l-119 203l-131 -207c-8.66699 -13.333 -12.167 -25.333 -10.5 -36s8.83398 -17.667 21.501 -21l14 -4v-10h-135z" />
    <glyph glyph-name="Y" unicode="Y" horiz-adv-x="590" 
d="M165 0l-0.000976562 9.99609l30 8c23.333 6.66699 35 23.334 35 50.001v190l-165 336c-6 13.333 -11.5 23.333 -16.5 30s-12.5 12.334 -22.5 17.001l-18 9v10h268v-10l-18 -7c-14.667 -6 -22.667 -14.167 -24 -24.5s1.33398 -23.166 8.00098 -38.499l118 -262l132 272
c5.33301 10.667 7.5 21.667 6.5 33s-8.16699 18.666 -21.5 21.999l-14 5v10h120v-10l-19 -7c-12.667 -4.66699 -22 -11.167 -28 -19.5s-12 -18.833 -18 -31.5l-137 -288v-236c0 -13.333 2.5 -24.166 7.5 -32.499s13.833 -14.166 26.5 -17.499l31 -8v-10h-281z" />
    <glyph glyph-name="Z" unicode="Z" horiz-adv-x="560" 
d="M20 0l0.000976562 12.001l347 628h-190c-22 0 -39.833 -5 -53.5 -15s-25.834 -24.667 -36.501 -44l-46 -81h-10l7 160h489v-12l-347 -628h218c22 0 39.5 5.16699 52.5 15.5s24.833 25.166 35.5 44.499l43 80h10l-7 -160h-512z" />
    <glyph glyph-name="bracketleft" unicode="[" horiz-adv-x="342" 
d="M100 -159c1.33301 51.333 2.16602 103.669 2.49902 157.002s0.5 106.666 0.5 159.999v240c0 52.667 -0.166992 105.5 -0.5 158.5s-1.16602 105.833 -2.49902 158.5h223v-25l-109 -11c-0.666992 -42.667 -1.16699 -89.334 -1.5 -140.001s-0.5 -97.667 -0.5 -141v-240
c0 -42 0.166992 -88.5 0.5 -139.5s0.833008 -98.167 1.5 -141.5l109 -11v-25h-223z" />
    <glyph glyph-name="backslash" unicode="\" horiz-adv-x="336" 
d="M290 -160l-267 870h24l267 -870h-24z" />
    <glyph glyph-name="bracketright" unicode="]" horiz-adv-x="342" 
d="M242 715c-1.33301 -51.333 -2.16602 -103.669 -2.49902 -157.002s-0.5 -106.666 -0.5 -159.999v-240c0 -52.667 0.166992 -105.5 0.5 -158.5s1.16602 -105.833 2.49902 -158.5h-223v25l109 11c0.666992 42.667 1.16699 89.334 1.5 140.001s0.5 97.667 0.5 141v240
c0 42 -0.166992 88.5 -0.5 139.5s-0.833008 98.167 -1.5 141.5l-109 11v25h223z" />
    <glyph glyph-name="asciicircum" unicode="^" horiz-adv-x="541" 
d="M94 213l-24 16l182 270h38l182 -270l-25 -16l-176 188z" />
    <glyph glyph-name="underscore" unicode="_" horiz-adv-x="532" 
d="M40 -55v27h452v-27h-452z" />
    <glyph glyph-name="grave" unicode="`" horiz-adv-x="400" 
d="M258 563l-51.501 39.5l-71.5 52.5c-20.667 14.667 -35.5 27.5 -44.5 38.5s-13.5 22.833 -13.5 35.5c0 12 4.83301 22.167 14.5 30.5s20.834 12.5 33.501 12.5c13.333 0 25.5 -4.83301 36.5 -14.5s21.833 -25.167 32.5 -46.5l43 -79.5l33 -58.5z" />
    <glyph glyph-name="a" unicode="a" horiz-adv-x="518" 
d="M166 -15c-38.667 0 -71.166 11.001 -97.499 33.001s-39.5 53.667 -39.5 95c0 31.333 16 60.166 48 86.499s82.333 46.166 151 59.499l36 6.5l42 7.5v79c0 45.333 -5.5 77.166 -16.5 95.499s-28.167 27.5 -51.5 27.5c-16 0 -28.667 -5.16699 -38 -15.5
s-15.333 -28.166 -18 -53.499l-2 -11c-1.33301 -28.667 -8.33301 -49.667 -21 -63s-28.334 -20 -47.001 -20c-17.333 0 -31.666 5.33301 -42.999 16s-17 25 -17 43c0 27.333 9.5 50.333 28.5 69s44.167 32.667 75.5 42s65.333 14 102 14
c59.333 0 105.166 -14.5 137.499 -43.5s48.5 -76.167 48.5 -141.5v-221c0 -30 14 -45 42 -45h22l9 -8c-12.667 -16 -26.5 -28.333 -41.5 -37s-36.167 -13 -63.5 -13c-29.333 0 -52.5 6.83301 -69.5 20.5s-28.167 31.834 -33.5 54.501c-20 -21.333 -40.5 -39.5 -61.5 -54.5
s-48.167 -22.5 -81.5 -22.5zM227.001 46.001c13.333 0 25.834 3.16699 37.501 9.5s25.5 16.166 41.5 29.499v168l-20 -4c-6.66699 -1.33301 -14.334 -2.66602 -23.001 -3.99902c-30.667 -8 -55.167 -21.5 -73.5 -40.5s-27.5 -44.5 -27.5 -76.5
c0 -27.333 6.33301 -47.833 19 -61.5s28 -20.5 46 -20.5z" />
    <glyph glyph-name="b" unicode="b" horiz-adv-x="581" 
d="M191 -13l-169.001 12.999v10l10 2c26 6 39 22.667 39 50v535c0 14 -2.16699 24.667 -6.5 32s-13.166 12.333 -26.499 15l-14 4v10l178 43l12 -9l-4 -141v-101c22 15.333 46 26.833 72 34.5s52.333 11.5 79 11.5c38 0 71.667 -8.83301 101 -26.5s52.5 -45 69.5 -82
s25.5 -84.5 25.5 -142.5s-9.5 -106.167 -28.5 -144.5s-44.333 -67.166 -76 -86.499s-66.5 -29 -104.5 -29c-24.667 0 -49.5 3.33301 -74.5 10s-47.167 16 -66.5 28zM297.999 18.999c21.333 0 40.002 6.66699 56.002 20s28.667 36.166 38 68.499s14 76.833 14 133.5
s-4.33301 100.334 -13 131.001s-20.834 52 -36.501 64s-34.5 18 -56.5 18c-31.333 0 -60.333 -8.66699 -87 -26v-384c12.667 -8 25.667 -14.167 39 -18.5s28.666 -6.5 45.999 -6.5z" />
    <glyph glyph-name="c" unicode="c" horiz-adv-x="494" 
d="M268 -15c-45.333 0 -86.498 9.83008 -123.498 29.4971s-66.333 48.334 -88 86.001s-32.5 83.834 -32.5 138.501c0 54 11.833 100.167 35.5 138.5s55.334 67.666 95.001 87.999s83.167 30.5 130.5 30.5c38.667 0 71.334 -6.33301 98.001 -19s47 -29.167 61 -49.5
s21 -41.5 21 -63.5c0 -18.667 -5.66699 -33.167 -17 -43.5s-26 -15.5 -44 -15.5c-19.333 0 -35 7 -47 21s-19 32.333 -21 55c-0.666992 14.667 -0.333984 27.167 0.999023 37.5s1.33301 20.833 0 31.5c-2.66699 11.333 -6.83398 18.833 -12.501 22.5s-13.5 5.5 -23.5 5.5
c-40.667 0 -72.167 -17.667 -94.5 -53s-33.5 -91.666 -33.5 -168.999c0 -67.333 12.5 -118.833 37.5 -154.5s63.5 -53.5 115.5 -53.5c31.333 0 56.666 5.66699 75.999 17s38 28.333 56 51l10 -8c-16.667 -39.333 -42.334 -69.666 -77.001 -90.999s-75.667 -32 -123 -32z" />
    <glyph glyph-name="d" unicode="d" horiz-adv-x="574" 
d="M232 -15c-39.333 0 -74.668 8.83008 -106.001 26.4971s-56.166 45 -74.499 82s-27.5 84.5 -27.5 142.5c0 58.667 10.333 107.167 31 145.5s48 67 82 86s71 28.5 111 28.5c23.333 0 45.666 -2.33301 66.999 -7s40.333 -11.667 57 -21v130c0 14 -2.16699 24.333 -6.5 31
s-13.5 11.334 -27.5 14.001l-19 4v10l182 44l11 -9l-4 -140v-489c0 -13.333 2.33301 -24.166 7 -32.499s13.334 -14.166 26.001 -17.499l9 -3v-10l-171 -11l-9 36c-18 -12 -38.5 -21.667 -61.5 -29s-48.5 -11 -76.5 -11zM289.998 21.9971c28 0 53.667 8.33203 77 24.999v397
c-24.667 16 -50 24 -76 24c-32 0 -59.333 -18.5 -82 -55.5s-34 -95.167 -34 -174.5s10.667 -135.166 32 -167.499s49 -48.5 83 -48.5z" />
    <glyph glyph-name="e" unicode="e" horiz-adv-x="507" 
d="M271 496c43.333 0 80.334 -8.83301 111.001 -26.5s54.167 -41.667 70.5 -72s24.5 -64.833 24.5 -103.5c0 -7.33301 -0.333008 -14.833 -1 -22.5s-2 -14.5 -4 -20.5h-298c0.666992 -72 13.5 -123.833 38.5 -155.5s62.167 -47.5 111.5 -47.5c33.333 0 60.333 5.33301 81 16
s40 26.334 58 47.001l10 -9c-20.667 -36.667 -48.167 -65.334 -82.5 -86.001s-75.5 -31 -123.5 -31c-47.333 0 -89.333 10.167 -126 30.5s-65.334 49.5 -86.001 87.5s-31 83.333 -31 136c0 54.667 12 101.167 36 139.5s54.833 67.5 92.5 87.5s77.167 30 118.5 30z
M268.001 476c-19.333 0 -35.8311 -5.83203 -49.498 -17.499s-24.334 -32.334 -32.001 -62.001s-11.834 -71.5 -12.501 -125.5h171c6.66699 72.667 4 125 -8 157s-35 48 -69 48z" />
    <glyph glyph-name="f" unicode="f" horiz-adv-x="343" 
d="M22 0v9.99902l13 3c12.667 3.33301 22.667 9.16602 30 17.499s11 19.166 11 32.499c0 24.667 0.166992 49.167 0.5 73.5s0.5 48.833 0.5 73.5v251h-56v11l22 4c13.333 1.33301 23 6 29 14s10.333 19 13 33c6.66699 26 16.5 48.833 29.5 68.5s27.833 37.834 44.5 54.501
c25.333 24 52.166 40.833 80.499 50.5s56.166 14.5 83.499 14.5c26.667 0 51 -5.5 73 -16.5s33 -29.167 33 -54.5c0 -18 -5.33301 -32.167 -16 -42.5s-25.667 -15.5 -45 -15.5c-16 0 -30.667 4.33301 -44 13s-26.333 24 -39 46l-14 17
c-7.33301 9.33301 -14.666 13.833 -21.999 13.5s-12.666 -5.83301 -15.999 -16.5c-4.66699 -23.333 -8.16699 -50.666 -10.5 -81.999s-3.5 -62 -3.5 -92h112v-20h-112v-396c0 -25.333 13.333 -41.666 40 -48.999l25 -6v-10h-262z" />
    <glyph glyph-name="g" unicode="g" horiz-adv-x="531" 
d="M238 173c-46 0 -85 7.66992 -117 23.0029v-34c0 -20.667 10.333 -33 31 -37l188 -35c31.333 -6 59.666 -13.833 84.999 -23.5s45.666 -23.334 60.999 -41.001s23 -41.834 23 -72.501c0 -32.667 -10.667 -62.834 -32 -90.501s-52.833 -50 -94.5 -67
s-93.5 -25.5 -155.5 -25.5c-53.333 0 -95.666 5.5 -126.999 16.5s-53.5 25.167 -66.5 42.5s-19.5 35.666 -19.5 54.999c0 24 8.16699 48.167 24.5 72.5s36.5 43.833 60.5 58.5c-20.667 8 -35.667 18.333 -45 31s-14 26.334 -14 41.001c0 13.333 3.5 25.833 10.5 37.5
s15.5 23.5 25.5 35.5l33 42c-48.667 28 -73 72 -73 132c0 48 17.167 87 51.5 117s84.833 45 151.5 45c34 0 63.833 -4 89.5 -12s46.834 -19.333 63.501 -34c21.333 3.33301 41.5 8.83301 60.5 16.5s36.167 18.167 51.5 31.5l14 -10v-51h-113c24 -26.667 36 -61 36 -103
c0 -46.667 -17.167 -85.167 -51.5 -115.5s-84.833 -45.5 -151.5 -45.5zM237 193.003c26.667 0 46.167 10.999 58.5 32.999s18.5 58.667 18.5 110s-6.16699 87.5 -18.5 108.5s-31.166 31.5 -56.499 31.5c-24.667 0 -43.334 -10.833 -56.001 -32.5s-19 -58.167 -19 -109.5
s5.83301 -87.666 17.5 -108.999s30.167 -32 55.5 -32zM88 -83.998c0 -39.333 12.168 -69 36.501 -89s62.833 -30 115.5 -30c55.333 0 97 9 125 27s42 43.333 42 76c0 18.667 -6.83301 33.667 -20.5 45s-36.834 20 -69.501 26l-181 34l-16 4
c-9.33301 -13.333 -17 -28.5 -23 -45.5s-9 -32.833 -9 -47.5z" />
    <glyph glyph-name="h" unicode="h" horiz-adv-x="580" 
d="M23 0l0.000976562 10l12 4c24 8 36 24.667 36 50v534c0 14 -2.33301 24.333 -7 31s-13.667 11.667 -27 15l-15 4v10l176 43l16 -9l-4 -141v-125c23.333 19.333 48.5 35.833 75.5 49.5s56.833 20.5 89.5 20.5c43.333 0 77.833 -12.333 103.5 -37s38.5 -62.667 38.5 -114
v-282c0 -13.333 2.66699 -24 8 -32s14.666 -14 27.999 -18l8 -3v-10h-234v10l12 3c24 8 36 25 36 51v314c0 26.667 -4.5 45 -13.5 55s-24.833 15 -47.5 15c-14.667 0 -30.667 -2.83301 -48 -8.5s-35 -15.5 -53 -29.5v-348c0 -26 12 -42.667 36 -50l8 -2v-10h-234z" />
    <glyph glyph-name="i" unicode="i" horiz-adv-x="280" 
d="M140 548c-22.667 0 -41.834 7.16699 -57.501 21.5s-23.5 32.5 -23.5 54.5c0 22.667 7.83301 41 23.5 55s34.834 21 57.501 21s41.667 -7 57 -21s23 -32.333 23 -55c0 -22 -7.66699 -40.167 -23 -54.5s-34.333 -21.5 -57 -21.5zM22 0v10l14 4c13.333 4 22.5 10 27.5 18
s7.5 18.667 7.5 32v313c0 14 -2.5 24.5 -7.5 31.5s-14.167 11.833 -27.5 14.5l-14 3v10l183 59l10 -10l-3 -142v-280c0 -13.333 2.5 -24 7.5 -32s13.833 -14 26.5 -18l10 -3v-10h-234z" />
    <glyph glyph-name="j" unicode="j" horiz-adv-x="281" 
d="M148 548c-22.667 0 -41.667 7.16699 -57 21.5s-23 32.5 -23 54.5c0 22.667 7.66699 41 23 55s34.333 21 57 21s41.834 -7 57.501 -21s23.5 -32.333 23.5 -55c0 -22 -7.83301 -40.167 -23.5 -54.5s-34.834 -21.5 -57.501 -21.5zM0 -240
c-38 0 -65.334 6.49707 -82.001 19.4971s-25 29.833 -25 50.5c0 18.667 6.66699 33.667 20 45s29 17 47 17s34.333 -4.5 49 -13.5s26 -23.167 34 -42.5l10 -22c4.66699 -7.33301 10.167 -9.83301 16.5 -7.5s9.5 12.833 9.5 31.5v538c0 15.333 -3.5 26.5 -10.5 33.5
s-17.167 11.833 -30.5 14.5l-15 2v10l187 59l12 -10l-3 -142v-278c0 -43.333 -1.83301 -79.666 -5.5 -108.999s-10 -54.166 -19 -74.499s-21.833 -39.166 -38.5 -56.499c-23.333 -23.333 -48.666 -40 -75.999 -50s-54 -15 -80 -15z" />
    <glyph glyph-name="k" unicode="k" horiz-adv-x="582" 
d="M22 0l-0.000976562 10.002l15 5c22.667 7.33301 34 23.666 34 48.999v535c0 13.333 -2.66699 23.333 -8 30s-14.666 12 -27.999 16l-13 3v10l183 43l12 -9l-3 -140v-488c0 -26.667 11 -43.334 33 -50.001l14 -4v-10h-239zM392.999 0.00195312l-178.002 249.999l185 171
c8.66699 8 13.834 16.5 15.501 25.5s-4.16602 15.5 -17.499 19.5l-17 5v10h149v-10l-30 -8c-14.667 -4.66699 -26.5 -10.167 -35.5 -16.5s-19.833 -15.166 -32.5 -26.499l-112 -105l179 -249c10.667 -14.667 20.667 -26 30 -34s21.333 -14.667 36 -20l4 -2v-10h-176z" />
    <glyph glyph-name="l" unicode="l" horiz-adv-x="286" 
d="M23 0l-0.000976562 9.99902l12 4c24 8 36 24.667 36 50v535c0 13.333 -2.66699 23.5 -8 30.5s-14.666 12.167 -27.999 15.5l-13 3v10l183 43l12 -9l-4 -140v-342c0 -24.667 0.166992 -49.167 0.5 -73.5s0.5 -48.5 0.5 -72.5c0 -13.333 2.66699 -24.166 8 -32.499
s14.333 -14.5 27 -18.5l13 -3v-10h-239z" />
    <glyph glyph-name="m" unicode="m" horiz-adv-x="871" 
d="M20 0l-0.000976562 10.0029l14 4c12.667 3.33301 21.5 9 26.5 17s7.83301 18.667 8.5 32v313c0 14.667 -2.33301 25.5 -7 32.5s-13.667 11.833 -27 14.5l-15 4v10l171 58l10 -10l8 -68c22 22 47.167 40.667 75.5 56s57.833 23 88.5 23c32 0 57.667 -6.5 77 -19.5
s34 -33.167 44 -60.5c26 24.667 54.167 44.167 84.5 58.5s59.833 21.5 88.5 21.5c47.333 0 82.166 -11.333 104.499 -34s33.5 -58.334 33.5 -107.001v-293c0 -26 12 -42.333 36 -49l11 -3v-10h-231v10l10 3c12.667 4 21.5 10 26.5 18s7.5 18.667 7.5 32v306
c0 28 -5 47.167 -15 57.5s-26 15.5 -48 15.5c-17.333 0 -34.166 -3.83301 -50.499 -11.5s-33.5 -19.167 -51.5 -34.5c3.33301 -10.667 5.5 -22.334 6.5 -35.001s1.5 -26 1.5 -40v-259c0.666992 -26 12.667 -42.333 36 -49l9 -3v-10h-232v10l14 4
c12.667 4 21.5 9.83301 26.5 17.5s7.5 18.167 7.5 31.5v305c0 26.667 -4.83301 45.667 -14.5 57s-26.167 17 -49.5 17c-15.333 0 -30.666 -3.83301 -45.999 -11.5s-31.333 -18.834 -48 -33.501v-335c0 -26 11.667 -42.333 35 -49l9 -3v-10h-235z" />
    <glyph glyph-name="n" unicode="n" horiz-adv-x="578" 
d="M20 0l0.000976562 10.001l14 4c23.333 6.66699 35 23 35 49v313c0 14.667 -2.33301 25.5 -7 32.5s-13.667 11.833 -27 14.5l-15 4v10l171 58l10 -10l8 -60c23.333 20.667 49.666 37.667 78.999 51s58.333 20 87 20c44 0 77.833 -12 101.5 -36s35.5 -60.667 35.5 -110
v-288c0 -26 12.667 -42.333 38 -49l9 -3v-10h-236v10l13 4c23.333 7.33301 35 23.666 35 48.999v319c0 42.667 -21.333 64 -64 64c-29.333 0 -61.333 -14.667 -96 -44v-340c0 -26 11.667 -42.333 35 -49l9 -3v-10h-235z" />
    <glyph glyph-name="o" unicode="o" horiz-adv-x="545" 
d="M273 -15c-50.667 0 -94.668 10.5 -132.001 31.5s-66.166 50.833 -86.499 89.5s-30.5 84 -30.5 136s10.833 97 32.5 135s51.334 67.333 89.001 88s80.167 31 127.5 31s89.666 -10.167 126.999 -30.5s66.833 -49.5 88.5 -87.5s32.5 -83.333 32.5 -136
s-10.167 -98.167 -30.5 -136.5s-49 -68 -86 -89s-80.833 -31.5 -131.5 -31.5zM272.999 5c23.333 0 42 6.66699 56 20s24.167 37 30.5 71s9.5 82 9.5 144c0 62.667 -3.16699 111 -9.5 145s-16.5 57.667 -30.5 71s-32.667 20 -56 20s-42.166 -6.66699 -56.499 -20
s-24.666 -37 -30.999 -71s-9.5 -82.333 -9.5 -145c0 -62 3.16699 -110 9.5 -144s16.666 -57.667 30.999 -71s33.166 -20 56.499 -20z" />
    <glyph glyph-name="p" unicode="p" horiz-adv-x="578" 
d="M20 -230v10.002l12 4c24.667 6.66699 37 22.667 37 48v544c0 14.667 -2.5 25.667 -7.5 33s-14.167 12.333 -27.5 15l-14 3v10l170 58l10 -10l9 -31c22 13.333 46.5 23.666 73.5 30.999s54.833 11 83.5 11c57.333 0 102.833 -21.833 136.5 -65.5
s50.5 -106.167 50.5 -187.5c0 -80 -18.5 -143 -55.5 -189s-89.167 -69 -156.5 -69c-52.667 0 -97 7.66699 -133 23v-173c0 -26.667 12 -43.334 36 -50.001l19 -5v-10h-243zM293 14.002c33.333 0 59.834 17.332 79.501 51.999s29.5 92.334 29.5 173.001
s-9.33301 137.167 -28 169.5s-45.667 48.5 -81 48.5c-24.667 0 -52 -8 -82 -24v-403c25.333 -10.667 52.666 -16 81.999 -16z" />
    <glyph glyph-name="q" unicode="q" horiz-adv-x="565" 
d="M312 -230l0.000976562 9.99902l21 5c25.333 7.33301 38 24 38 50v199c-19.333 -14.667 -41.5 -26.5 -66.5 -35.5s-52.833 -13.5 -83.5 -13.5c-56.667 0 -103.667 21.333 -141 64s-56 104.667 -56 186c0 56 9.33301 103.333 28 142s44.5 68.167 77.5 88.5
s71.167 30.5 114.5 30.5c29.333 0 56.166 -4.33301 80.499 -13s45.833 -19.667 64.5 -33l114 46l10 -10l-3 -135v-519c0 -27.333 12 -43.666 36 -48.999l9 -3v-10h-243zM287.001 24.999c28 0 55 10.668 81 32.001v380c-11.333 7.33301 -23 12.666 -35 15.999
s-26.333 5 -43 5c-35.333 0 -63.333 -17.167 -84 -51.5s-31 -90.833 -31 -169.5c0 -76.667 10 -131.167 30 -163.5s47.333 -48.5 82 -48.5z" />
    <glyph glyph-name="r" unicode="r" horiz-adv-x="441" 
d="M20 0l0.00195312 10l15 4c13.333 4 22.5 10 27.5 18s7.5 18.333 7.5 31v313c0 14.667 -2.5 25.5 -7.5 32.5s-14.167 11.833 -27.5 14.5l-15 4v10l172 58l10 -10l9 -86v-8c9.33301 18.667 21.5 35.834 36.5 51.501s31.667 28.5 50 38.5s36.5 15 54.5 15
c25.333 0 44.666 -7 57.999 -21s20 -31.667 20 -53c0 -22.667 -6.5 -40.167 -19.5 -52.5s-28.5 -18.5 -46.5 -18.5c-28 0 -52.667 14 -74 42l-2 2c-6.66699 9.33301 -14.334 14.5 -23.001 15.5s-16.667 -3.16699 -24 -12.5c-6.66699 -6 -12.167 -13.167 -16.5 -21.5
s-8.5 -17.833 -12.5 -28.5v-279c0 -26.667 11.667 -43.334 35 -50.001l32 -9v-10h-259z" />
    <glyph glyph-name="s" unicode="s" horiz-adv-x="436" 
d="M193 -15c-32.667 0 -62.0029 3.83301 -88.0029 11.5s-50 17.167 -72 28.5l1 119h10l34 -60c14.667 -26.667 30.834 -46.5 48.501 -59.5s40.167 -19.5 67.5 -19.5c32 0 57.833 7.16699 77.5 21.5s29.5 33.5 29.5 57.5c0 22 -7 40 -21 54s-40 26.667 -78 38l-42 13
c-40.667 12 -72.667 30.667 -96 56s-35 56.333 -35 93c0 44 17.333 81.333 52 112s84.334 46 149.001 46c26 0 50.5 -2.83301 73.5 -8.5s45.167 -14.167 66.5 -25.5l-6 -108h-10l-35 62c-12.667 22 -25.167 37.5 -37.5 46.5s-30.833 13.5 -55.5 13.5
c-22.667 0 -44 -6.33301 -64 -19s-30 -30.667 -30 -54c0 -22.667 8.5 -40.667 25.5 -54s42.167 -25.666 75.5 -36.999l45 -13c48 -14.667 82.333 -34.834 103 -60.501s31 -56.5 31 -92.5c0 -48.667 -19.167 -87.667 -57.5 -117s-92.166 -44 -161.499 -44z" />
    <glyph glyph-name="t" unicode="t" horiz-adv-x="361" 
d="M210 -15c-42.667 0 -75.8359 10.665 -99.5029 31.998s-35.5 55.333 -35.5 102v342h-69v10l24 4c20.667 4.66699 38.5 11.334 53.5 20.001s29.833 20.334 44.5 35.001l82 91h10l-3 -140h112v-20h-113v-360c0 -23.333 5.16699 -41 15.5 -53s23.5 -18 39.5 -18
c14 0 26.333 3.5 37 10.5s21.334 16.5 32.001 28.5l10 -10c-13.333 -22.667 -31.666 -40.667 -54.999 -54s-51.666 -20 -84.999 -20z" />
    <glyph glyph-name="u" unicode="u" horiz-adv-x="567" 
d="M201 -15c-26 0 -49.835 5 -71.502 15s-38.667 26.167 -51 48.5s-18.166 51.833 -17.499 88.5l3 257c0 15.333 -2.66699 26.333 -8 33s-13.666 11.334 -24.999 14.001l-12 4v10l179 35l10 -10l-5 -142v-241c0 -21.333 6.16699 -37 18.5 -47s27.833 -15 46.5 -15
s35.334 2.66699 50.001 8s29.334 13.333 44.001 24l4 326c0 15.333 -2.33301 26.166 -7 32.499s-13.334 10.833 -26.001 13.5l-10 3v10l175 38l10 -10l-3 -142v-271c0 -14.667 2 -26 6 -34s12.667 -14.667 26 -20l10 -3v-10l-175 -10l-9 59
c-22 -18 -45.833 -33.167 -71.5 -45.5s-55.834 -18.5 -90.501 -18.5z" />
    <glyph glyph-name="v" unicode="v" horiz-adv-x="530" 
d="M244 -3l-176.999 425c-9.33301 22.667 -25.333 37.667 -48 45l-14 4v10h259v-10l-18 -4c-26 -6.66699 -34 -24 -24 -52l105 -279l98 277c5.33301 13.333 6.66602 24.333 3.99902 33s-10.667 15 -24 19l-25 6v10h145v-10l-29 -7
c-12.667 -3.33301 -22.5 -8.33301 -29.5 -15s-12.833 -16.667 -17.5 -30l-147 -422h-58z" />
    <glyph glyph-name="w" unicode="w" horiz-adv-x="781" 
d="M225 -3l-154 422.999c-7.33301 21.333 -22 36.333 -44 45l-17 6v10h245v-10l-15 -4c-26 -8 -34.667 -24 -26 -48l93 -283l83 220l-19 57c-4.66699 14.667 -9.5 25.834 -14.5 33.501s-11.5 13.167 -19.5 16.5l-17 8v10h207v-10l-14 -6c-10 -4 -16 -9.33301 -18 -16
s-0.666992 -16.667 4 -30l92 -278l95 276c9.33301 25.333 4.33301 41.333 -15 48l-22 6v10h120v-10l-24 -7c-11.333 -3.33301 -19.5 -8.5 -24.5 -15.5s-9.5 -16.5 -13.5 -28.5l-144 -423h-51l-111 327l-118 -327h-58z" />
    <glyph glyph-name="x" unicode="x" horiz-adv-x="568" 
d="M13 0l-0.00195312 10.001l26 6c15.333 3.33301 27.833 8.5 37.5 15.5s18.834 16.833 27.501 29.5l108 155l-136 216c-6.66699 10 -12.667 17.667 -18 23s-13.666 9.33301 -24.999 12l-14 4v10h254v-10l-17 -4c-23.333 -7.33301 -28 -22 -14 -44l82 -127l89 123
c7.33301 11.333 10.833 20.833 10.5 28.5s-6.83301 13.167 -19.5 16.5l-25 7v10h146v-10l-24 -6c-14.667 -4 -26 -9.16699 -34 -15.5s-16.667 -16.166 -26 -29.499l-105 -142l137 -213c16.667 -26 39 -42.667 67 -50l16 -5v-10h-276v10l17 4
c11.333 2.66699 18.5 8.16699 21.5 16.5s1.16699 17.833 -5.5 28.5l-88 137l-95 -138c-8 -10.667 -10.5 -19.834 -7.5 -27.501s9.83301 -12.834 20.5 -15.501l20 -5v-10h-150z" />
    <glyph glyph-name="y" unicode="y" horiz-adv-x="536" 
d="M112 -240c-26.667 0 -47.835 6.66797 -63.502 20.001s-23.5 30.333 -23.5 51c0 18.667 6.66699 33.667 20 45s28.333 17 45 17s30.667 -3.5 42 -10.5s21.333 -17.167 30 -30.5l7 -8c14.667 -20 29.334 -19.667 44.001 1c6 10 12.833 23.167 20.5 39.5
s16.5 38.166 26.5 65.499l-194 464c-4.66699 12.667 -9.66699 22.834 -15 30.501s-14 14.167 -26 19.5l-18 7v10h249v-9l-20 -8c-14.667 -4.66699 -22.167 -12.167 -22.5 -22.5s2.16699 -23.166 7.5 -38.499l104 -270l99 273c5.33301 15.333 7.33301 28.166 6 38.499
s-9.66602 17.5 -24.999 21.5l-21 5v10h139v-10l-22 -7c-15.333 -4.66699 -26 -11.334 -32 -20.001s-11.667 -20.667 -17 -36l-161 -439c-26 -70 -52 -122.333 -78 -157s-59.667 -52 -101 -52z" />
    <glyph glyph-name="z" unicode="z" horiz-adv-x="465" 
d="M23 0v15.999l273 445h-151c-17.333 0 -31 -4.66699 -41 -14s-19.333 -21.666 -28 -36.999l-36 -67h-10l7 138h400v-14l-267 -447h157c21.333 0 37 5 47 15s19.333 23.667 28 41l35 74h10l-9 -150h-415z" />
    <glyph glyph-name="braceleft" unicode="{" horiz-adv-x="338" 
d="M272 -159c-52 0 -94.167 10.498 -126.5 31.498s-48.5 52.833 -48.5 95.5c0 26.667 4.5 51.167 13.5 73.5l27 64.5c9 20.667 13.5 41.334 13.5 62.001c0 27.333 -8.16699 48.666 -24.5 63.999s-45.166 26.333 -86.499 33v26c41.333 6.66699 70.166 17.834 86.499 33.501
s24.5 36.834 24.5 63.501c0 21.333 -4.5 42.166 -13.5 62.499s-18 41.833 -27 64.5s-13.5 47 -13.5 73c0 43.333 16.167 75.333 48.5 96s74.5 31 126.5 31h36v-20l-20 -2c-28 -3.33301 -48.667 -12.5 -62 -27.5s-20 -34.5 -20 -58.5s2.16699 -46.833 6.5 -68.5l13 -64
c4.33301 -21 6.5 -42.833 6.5 -65.5c0 -38.667 -10.5 -68.334 -31.5 -89.001s-55.833 -34.667 -104.5 -42c48.667 -7.33301 83.5 -21.166 104.5 -41.499s31.5 -50.166 31.5 -89.499c0 -22.667 -2.16699 -44.5 -6.5 -65.5l-13 -63.5c-4.33301 -21.333 -6.5 -44.333 -6.5 -69
c0 -24 6.66699 -43.5 20 -58.5s34 -24.167 62 -27.5l20 -2v-20h-36z" />
    <glyph glyph-name="bar" unicode="|" horiz-adv-x="267" 
d="M121 -250v1000h24v-1000h-24z" />
    <glyph glyph-name="braceright" unicode="}" horiz-adv-x="338" 
d="M66 715c52 0 94.167 -10.498 126.5 -31.498s48.5 -52.833 48.5 -95.5c0 -26.667 -4.5 -51.167 -13.5 -73.5l-27 -64.5c-9 -20.667 -13.5 -41.334 -13.5 -62.001c0 -27.333 8.16699 -48.666 24.5 -63.999s45.166 -26.333 86.499 -33v-26
c-41.333 -6.66699 -70.166 -17.834 -86.499 -33.501s-24.5 -36.834 -24.5 -63.501c0 -21.333 4.5 -42.166 13.5 -62.499s18 -41.833 27 -64.5s13.5 -47 13.5 -73c0 -43.333 -16.167 -75.333 -48.5 -96s-74.5 -31 -126.5 -31h-36v20l20 2c28 3.33301 48.667 12.5 62 27.5
s20 34.5 20 58.5s-2.16699 46.833 -6.5 68.5l-13 64c-4.33301 21 -6.5 42.833 -6.5 65.5c0 38.667 10.5 68.334 31.5 89.001s55.833 34.667 104.5 42c-48.667 7.33301 -83.5 21.166 -104.5 41.499s-31.5 50.166 -31.5 89.499c0 22.667 2.16699 44.5 6.5 65.5l13 63.5
c4.33301 21.333 6.5 44.333 6.5 69c0 24 -6.66699 43.5 -20 58.5s-34 24.167 -62 27.5l-20 2v20h36z" />
    <glyph glyph-name="asciitilde" unicode="~" horiz-adv-x="541" 
d="M364 253c-20 0 -39.501 4.16602 -58.501 12.499s-38.167 22.833 -57.5 43.5c-20.667 23.333 -37.167 39.5 -49.5 48.5s-26.166 13.5 -41.499 13.5c-16.667 0 -32.334 -7.33301 -47.001 -22s-24.667 -39.667 -30 -75l-16 2c1.33301 54 12 94.333 32 121s46.333 40 79 40
c22.667 0 42.834 -4.33301 60.501 -13s36.5 -23.667 56.5 -45c21.333 -22.667 38.333 -38.5 51 -47.5s26 -13.5 40 -13.5c17.333 0 33.5 7 48.5 21s24.833 39 29.5 75l16 -2c-0.666992 -47.333 -10.667 -85.666 -30 -114.999s-47 -44 -83 -44z" />
    <glyph glyph-name="uni00A0" unicode="&#xa0;" horiz-adv-x="218" 
 />
    <glyph glyph-name="exclamdown" unicode="&#xa1;" horiz-adv-x="333" 
d="M166 318c-24 0 -44.333 8.5 -61 25.5s-25 37.167 -25 60.5c0 24 8.33301 44.333 25 61s37 25 61 25c24.667 0 45.334 -8.33301 62.001 -25s25 -37 25 -61c0 -23.333 -8.33301 -43.5 -25 -60.5s-37.334 -25.5 -62.001 -25.5zM166 -197
c-24.667 0 -44.001 8.00098 -58.001 24.001s-21 36.333 -21 61c0 21.333 5.33301 53.666 16 96.999s21.667 91.333 33 144l21 105h19l21 -105c10.667 -51.333 21.334 -98.833 32.001 -142.5s16 -76.5 16 -98.5c0 -24.667 -6.83301 -45 -20.5 -61s-33.167 -24 -58.5 -24z" />
    <glyph glyph-name="cent" unicode="&#xa2;" horiz-adv-x="532" 
d="M290 -45v98.001c-50 0.666992 -94.167 11.667 -132.5 33s-68.166 51 -89.499 89s-32 82.667 -32 134c0 77.333 22.833 139 68.5 185s107.5 70.333 185.5 73v87h25v-87c40 -1.33301 73.667 -8.66602 101 -21.999s48.166 -29.833 62.499 -49.5s21.5 -39.834 21.5 -60.501
c0 -18.667 -5.5 -32.667 -16.5 -42s-24.167 -14 -39.5 -14c-20 0 -35.833 7.33301 -47.5 22s-19.5 33 -23.5 55l-6 33c-2.66699 13.333 -8 25.333 -16 36s-20 17 -36 19v-432c41.333 0.666992 74.5 7.66699 99.5 21s47.5 31.666 67.5 54.999l16 -12
c-16 -36 -39.5 -64.667 -70.5 -86s-68.5 -33.333 -112.5 -36v-99h-25zM174 321.001c0 -60 9.5 -108.168 28.5 -144.501s48.167 -57.166 87.5 -62.499v430c-35.333 -4.66699 -63.5 -26 -84.5 -64s-31.5 -91 -31.5 -159z" />
    <glyph glyph-name="sterling" unicode="&#xa3;" horiz-adv-x="532" 
d="M43 0l-0.000976562 81.0039c36.667 24 63.167 49.667 79.5 77s24.5 56.333 24.5 87c0 10 -0.666992 19.167 -2 27.5s-3 16.166 -5 23.499h-85v22h77c-6 14.667 -12.833 29.167 -20.5 43.5s-14.167 30.166 -19.5 47.499s-8 37.666 -8 60.999c0 38 9.83301 70.333 29.5 97
s45.667 47 78 61s67.833 21 106.5 21c57.333 0 102.833 -11.833 136.5 -35.5s50.5 -54.5 50.5 -92.5c0 -20.667 -5.66699 -36.667 -17 -48s-25.666 -17 -42.999 -17c-18 0 -33 6 -45 18s-20.667 32.333 -26 61l-3 20c-4 26 -10.667 44.833 -20 56.5s-22.333 17.5 -39 17.5
c-26.667 0 -47.5 -13.167 -62.5 -39.5s-22.5 -63.833 -22.5 -112.5c0 -30.667 3.66699 -58.5 11 -83.5s13 -50.167 17 -75.5h173v-22h-170c0.666992 -14 0.333984 -27.667 -0.999023 -41c-1.33301 -21.333 -8.33301 -41.833 -21 -61.5s-28.334 -37.834 -47.001 -54.501
s-38 -31 -58 -43h378v-96h-446z" />
    <glyph glyph-name="currency" unicode="&#xa4;" horiz-adv-x="534" 
d="M92 325c0 21.333 3.16992 41.167 9.50293 59.5s15.166 34.833 26.499 49.5l-33 18c-20.667 11.333 -37.334 22.5 -50.001 33.5s-19 23.833 -19 38.5c0 11.333 4.16699 21.166 12.5 29.499s18.166 12.5 29.499 12.5c14.667 0 27.5 -6.33301 38.5 -19
s22.167 -29.334 33.5 -50.001l18 -34c31.333 24 67.666 36 108.999 36s77.333 -12 108 -36l19 34c11.333 20.667 22.5 37.334 33.5 50.001s23.5 19 37.5 19c11.333 0 21.333 -4.16699 30 -12.5s13 -18.166 13 -29.499c0 -14.667 -6.33301 -27.5 -19 -38.5
s-29.334 -22.167 -50.001 -33.5l-34 -18c11.333 -14 20.166 -30.333 26.499 -49s9.5 -38.667 9.5 -60s-3.16699 -41.166 -9.5 -59.499s-15.166 -34.5 -26.499 -48.5l34 -19c20.667 -10.667 37.334 -21.667 50.001 -33s19 -24 19 -38c0 -11.333 -4.16699 -21.333 -12.5 -30
s-18.5 -13 -30.5 -13c-14 0 -26.5 6.33301 -37.5 19s-22.167 29.334 -33.5 50.001l-18 34c-31.333 -24 -67.666 -36 -108.999 -36c-40.667 0 -76.667 12 -108 36l-19 -34c-11.333 -20.667 -22.5 -37.334 -33.5 -50.001s-23.833 -19 -38.5 -19
c-10.667 0 -20.334 4.16699 -29.001 12.5s-13 18.5 -13 30.5c0 14 6.33301 26.5 19 37.5s29.334 22.167 50.001 33.5l34 18c-11.333 14.667 -20.333 31.167 -27 49.5s-10 38.166 -10 59.499zM165.003 325.001c0 -32 10.167 -57.833 30.5 -77.5s44.166 -29.5 71.499 -29.5
s51 9.83301 71 29.5s30 45.5 30 77.5c0 31.333 -10 57 -30 77s-43.667 30 -71 30s-51.166 -10 -71.499 -30s-30.5 -45.667 -30.5 -77z" />
    <glyph glyph-name="yen" unicode="&#xa5;" horiz-adv-x="532" 
d="M142 0l-0.00292969 10.0029l18 6c24.667 8 37.334 24.667 38.001 50v97h-132v22h132v97l-3 7h-129v23h117l-132 267c-8 17.333 -21.667 31 -41 41l-8 4v10h227v-10l-7 -3c-24 -9.33301 -31 -25.333 -21 -48l113 -255l121 262c9.33301 19.333 4 32.666 -16 39.999l-8 4v10
h104v-10l-9 -4c-22 -8.66699 -38 -23.667 -48 -45l-120 -263h127v-23h-130v-99v-5h130v-22h-130c0 -14.667 -0.166992 -30.334 -0.5 -47.001s-0.166016 -33.334 0.500977 -50.001c0.666992 -25.333 13.334 -42 38.001 -50l18 -6v-10h-249z" />
    <glyph glyph-name="brokenbar" unicode="&#xa6;" horiz-adv-x="267" 
d="M145 320h-24v430h24v-430zM121 -250v450h24v-450h-24z" />
    <glyph glyph-name="section" unicode="&#xa7;" horiz-adv-x="522" 
d="M244 -107c-56.667 0 -101.665 9.8291 -134.998 29.4961s-50 46.167 -50 79.5c0 18 6 32.833 18 44.5s26.333 17.5 43 17.5c18 0 32.5 -5.16699 43.5 -15.5s19.833 -26.166 26.5 -47.499l11 -32c5.33301 -14.667 13.833 -27.667 25.5 -39s27.834 -17 48.501 -17
c22.667 0 41 7.33301 55 22s21 34 21 58c0 21.333 -5 38.833 -15 52.5s-25.167 26.334 -45.5 38.001s-46.833 24.5 -79.5 38.5c-54.667 22.667 -96.334 46.667 -125.001 72s-43 60.333 -43 105c0 24 7.16699 46.5 21.5 67.5s33.833 38.5 58.5 52.5
c-28 28.667 -42 63.334 -42 104.001c0 26.667 7.33301 51.667 22 75s36.667 42.333 66 57s65.666 22 108.999 22c56 0 100.333 -11 133 -33s49 -49.667 49 -83c0 -16.667 -5.16699 -30 -15.5 -40s-23.5 -15 -39.5 -15c-15.333 0 -29.5 5 -42.5 15s-24.167 29.333 -33.5 58
l-10 28c-4.66699 14 -11.334 26 -20.001 36s-22.334 15 -41.001 15c-23.333 0 -42.5 -7.33301 -57.5 -22s-22.5 -33.667 -22.5 -57c0 -31.333 10.667 -56.5 32 -75.5s51 -36.167 89 -51.5c65.333 -24 111.833 -48.833 139.5 -74.5s41.5 -57.5 41.5 -95.5
c0 -30 -7.33301 -55.333 -22 -76s-34 -38 -58 -52c14 -13.333 24.5 -28.5 31.5 -45.5s10.5 -36.167 10.5 -57.5c0 -27.333 -7.66699 -53.166 -23 -77.499s-37.666 -43.833 -66.999 -58.5s-65.333 -22 -108 -22zM261.002 230.996c26 -9.33301 49.334 -19.168 70.001 -29.501
s38.667 -21.5 54 -33.5c13.333 17.333 20 38.333 20 63c0 21.333 -12 40.5 -36 57.5s-61 34.833 -111 53.5c-52.667 19.333 -92.667 40.333 -120 63c-12 -17.333 -18 -36.666 -18 -57.999c0 -30.667 12.167 -53.667 36.5 -69s59.166 -31 104.499 -47z" />
    <glyph glyph-name="dieresis" unicode="&#xa8;" horiz-adv-x="400" 
d="M316 580c-18.667 0 -35.5 6.16699 -50.5 18.5s-22.5 29.166 -22.5 50.499s7.5 38.166 22.5 50.499s31.833 18.5 50.5 18.5c20 0 37.167 -6.16699 51.5 -18.5s21.5 -29.166 21.5 -50.499s-7.16699 -38.166 -21.5 -50.499s-31.5 -18.5 -51.5 -18.5zM84 580
c-19.333 0 -36.333 6.16699 -51 18.5s-22 29.166 -22 50.499s7.33301 38.166 22 50.499s31.667 18.5 51 18.5s36.333 -6.16699 51 -18.5s22 -29.166 22 -50.499s-7.33301 -38.166 -22 -50.499s-31.667 -18.5 -51 -18.5z" />
    <glyph glyph-name="copyright" unicode="&#xa9;" horiz-adv-x="747" 
d="M374 -18c-46.667 0 -90.667 8.16699 -132 24.5s-77.833 39.666 -109.5 69.999s-56.667 67 -75 110s-27.5 91.167 -27.5 144.5s9.16699 101.333 27.5 144s43.333 79.167 75 109.5s68.167 53.5 109.5 69.5s85.333 24 132 24s90.667 -8 132 -24s77.833 -39.167 109.5 -69.5
s56.667 -66.833 75 -109.5s27.5 -90.667 27.5 -144s-9.16699 -101.5 -27.5 -144.5s-43.333 -79.667 -75 -110s-68.167 -53.666 -109.5 -69.999s-85.333 -24.5 -132 -24.5zM374 6c57.333 0 109.666 13.334 156.999 40.001s85.166 64.334 113.499 113.001s42.5 106 42.5 172
s-14.167 123.167 -42.5 171.5s-66.166 85.666 -113.499 111.999s-99.666 39.5 -156.999 39.5s-109.666 -13.167 -156.999 -39.5s-85.166 -63.5 -113.499 -111.5s-42.5 -105.333 -42.5 -172c0 -66 14.167 -123.333 42.5 -172s66.166 -86.334 113.499 -113.001
s99.666 -40 156.999 -40zM392 127.001c-38 0 -72.333 7.83105 -103 23.498s-55 38.834 -73 69.501s-27 67.667 -27 111c0 44 9.5 81.5 28.5 112.5s44.167 54.5 75.5 70.5s65.333 24 102 24c23.333 0 44 -2.33301 62 -7s35.667 -12 53 -22l2 -95h-10l-22 46
c-8.66699 18.667 -19.667 33 -33 43s-27 15 -41 15c-30.667 0 -57.334 -15.667 -80.001 -47s-34 -77.666 -34 -138.999s11.333 -107.5 34 -138.5s49.334 -46.5 80.001 -46.5c18.667 0 34 4.66699 46 14s23 24.333 33 45l22 45h10l-3 -95
c-16 -8.66699 -34.167 -15.667 -54.5 -21s-42.833 -8 -67.5 -8z" />
    <glyph glyph-name="ordfeminine" unicode="&#xaa;" horiz-adv-x="354" 
d="M297 474c0 -16 5.66699 -24.001 17 -24.001c3.33301 0 6.83301 1 10.5 3s7.83398 5.66699 12.501 11l16 -12c-8 -16.667 -17.667 -28.334 -29 -35.001s-25.666 -10 -42.999 -10c-38.667 0 -62.334 16.667 -71.001 50c-16.667 -16 -31.667 -28.667 -45 -38
s-31 -14 -53 -14c-25.333 0 -46.333 7.33301 -63 22s-25 35.334 -25 62.001c0 21.333 8.16699 40.5 24.5 57.5s49.5 32.833 99.5 47.5c16 4.66699 35.667 10 59 16v21c0 29.333 -4 49.333 -12 60s-23 16 -45 16c-8 0 -15.667 -0.666992 -23 -2l-6 -34
c-1.33301 -18 -6.5 -31.167 -15.5 -39.5s-19.167 -12.5 -30.5 -12.5c-23.333 0 -37 10.667 -41 32c3.33301 26 17.666 47.167 42.999 63.5s60.333 24.5 105 24.5c40.667 0 70 -9.16699 88 -27.5s27 -49.166 27 -92.499v-145zM111 502.999c0 -16.667 4.5 -28.833 13.5 -36.5
s19.167 -11.5 30.5 -11.5c8 0 15.5 2 22.5 6s16.833 10.333 29.5 19v103l-22.5 -7.5c-7 -2.33301 -13.167 -4.5 -18.5 -6.5c-36.667 -14.667 -55 -36.667 -55 -66z" />
    <glyph glyph-name="guillemotleft" unicode="&#xab;" horiz-adv-x="536" 
d="M258 36l-231 203v23l231 203l10 -9l-132 -206l132 -205zM472 36l-231 203v23l231 203l10 -9l-132 -206l132 -205z" />
    <glyph glyph-name="logicalnot" unicode="&#xac;" horiz-adv-x="541" 
d="M27 357v20h450v-229h-20v209h-430z" />
    <glyph glyph-name="uni00AD" unicode="&#xad;" horiz-adv-x="332" 
d="M40 240v27h252v-27h-252z" />
    <glyph glyph-name="registered" unicode="&#xae;" horiz-adv-x="467" 
d="M233 311c-36.667 0 -70.3311 8.16699 -100.998 24.5s-55.334 39.666 -74.001 69.999s-28 66.166 -28 107.499c0 42 9.33301 78 28 108s43.5 53 74.5 69s64.5 24 100.5 24c36.667 0 70.5 -8 101.5 -24s55.833 -39 74.5 -69s28 -66 28 -108
c0 -41.333 -9.33301 -77.166 -28 -107.499s-43.334 -53.666 -74.001 -69.999s-64.667 -24.5 -102 -24.5zM233.003 328c34 0 64.833 7.5 92.5 22.5s49.667 36.333 66 64s24.5 60.5 24.5 98.5c0 38.667 -8.16699 71.667 -24.5 99s-38.333 48.333 -66 63s-58.5 22 -92.5 22
c-33.333 0 -63.833 -7.33301 -91.5 -22s-49.834 -35.667 -66.501 -63s-25 -60.333 -25 -99c0 -38 8.33301 -70.833 25 -98.5s38.834 -49 66.501 -64s58.167 -22.5 91.5 -22.5zM144.003 418l-0.000976562 9.99902l7 3c8.66699 4 13 10.667 13 20v134c0 9.33301 -4 16 -12 20
l-8 3v9h96c24.667 0 43.5 -4.5 56.5 -13.5s19.5 -21.167 19.5 -36.5c0 -24 -11 -40.333 -33 -49l32 -70c2.66699 -7.33301 8.33398 -13.333 17.001 -18l6 -3v-9h-68l-35 89h-18v-56c0 -9.33301 4.33301 -15.666 13 -18.999l7 -4v-10h-93zM217.002 517.999h9
c14.667 0 24.667 4.5 30 13.5s8 19.167 8 30.5c0 28.667 -12.667 43 -38 43h-9v-87z" />
    <glyph glyph-name="macron" unicode="&#xaf;" horiz-adv-x="400" 
d="M47 617v22h306v-22h-306z" />
    <glyph glyph-name="degree" unicode="&#xb0;" horiz-adv-x="328" 
d="M164 412c-23.333 0 -45 5.33301 -65 16s-36 25.834 -48 45.501s-18 43.167 -18 70.5s6 51 18 71s28 35.5 48 46.5s41.667 16.5 65 16.5s45 -5.5 65 -16.5s36 -26.5 48 -46.5s18 -43.667 18 -71s-6 -50.833 -18 -70.5s-28 -34.834 -48 -45.501s-41.667 -16 -65 -16z
M164 436c28.667 0 52.667 9.83301 72 29.5s29 45.834 29 78.501c0 33.333 -9.66699 60 -29 80s-43.333 30 -72 30s-52.667 -10 -72 -30s-29 -46.667 -29 -80c0 -32.667 9.66699 -58.834 29 -78.501s43.333 -29.5 72 -29.5z" />
    <glyph glyph-name="plusminus" unicode="&#xb1;" horiz-adv-x="541" 
d="M259 116v215h-229v20h229v211h24v-211h229v-20h-229v-215h-24zM30 0v20h482v-20h-482z" />
    <glyph glyph-name="uni00B2" unicode="&#xb2;" horiz-adv-x="345" 
d="M48 700l5.00098 95.001c13.333 7.33301 29.166 13.166 47.499 17.499s39.833 6.5 64.5 6.5c52.667 0 90.5 -10.5 113.5 -31.5s34.5 -46.833 34.5 -77.5s-15.333 -59.5 -46 -86.5s-72.667 -55.833 -126 -86.5c-6.66699 -4.66699 -16.5 -11 -29.5 -19
s-23.167 -15 -30.5 -21h238v-82h-285v59l42 41l39 39c30.667 31.333 53.167 58 67.5 80s21.5 47.333 21.5 76c0 27.333 -4.33301 49.833 -13 67.5s-25 26.5 -49 26.5c-8.66699 0 -17.167 -1.83301 -25.5 -5.5l-12.5 -5.5l-50 -93h-6z" />
    <glyph glyph-name="uni00B3" unicode="&#xb3;" horiz-adv-x="344" 
d="M166 405c-32.667 0 -57.501 3.1709 -74.501 9.50391l-52.5 19.5l7 89h6l55 -94l13 -5.5c8.66699 -3.66699 19.334 -5.5 32.001 -5.5c21.333 0 36.666 7.83301 45.999 23.5s14 42.834 14 81.501c0 35.333 -4.5 59.166 -13.5 71.499s-23.5 18.5 -43.5 18.5h-34v13h31
c18.667 0 32.334 5.5 41.001 16.5s13 34.833 13 71.5c0 33.333 -4.16699 56.666 -12.5 69.999s-19.5 20 -33.5 20c-12 0 -22 -1.83301 -30 -5.5l-12 -5.5l-50 -90h-6l5 98c14.667 5.33301 30.167 9.66602 46.5 12.999s35.5 5 57.5 5c47.333 0 82.833 -9.66699 106.5 -29
s35.5 -43.333 35.5 -72c0 -18.667 -9.33301 -37.334 -28 -56.001s-48.667 -31.667 -90 -39c45.333 -2.66699 78.333 -13.834 99 -33.501s31 -43.5 31 -71.5c0 -32.667 -14 -59.667 -42 -81s-67 -32 -117 -32z" />
    <glyph glyph-name="acute" unicode="&#xb4;" horiz-adv-x="400" 
d="M129 573l32.001 58.5l43 79.5c11.333 21.333 22.333 36.833 33 46.5s23 14.5 37 14.5c12.667 0 23.667 -4.16699 33 -12.5s14 -18.5 14 -30.5c0 -12.667 -4.33301 -24.5 -13 -35.5s-23.334 -23.833 -44.001 -38.5c-28.667 -20 -52.667 -37.5 -72 -52.5l-52 -39.5z" />
    <glyph glyph-name="uni00B5" unicode="&#xb5;" horiz-adv-x="584" 
d="M63 -177l27.002 285.001l-22 362l130 26l14 -11c-2.66699 -64.667 -5.16699 -119 -7.5 -163s-4.16602 -82.167 -5.49902 -114.5s-2 -63.166 -2 -92.499c11.333 -10 24.166 -16.667 38.499 -20s29.166 -5 44.499 -5c18 0 35 3.16699 51 9.5s30.333 19.166 43 38.499
l-10 332l129 26l15 -11c-4.66699 -68.667 -8.66699 -124.5 -12 -167.5s-5.66602 -77.833 -6.99902 -104.5s-2 -50.334 -2 -71.001c0.666992 -32 4.5 -53 11.5 -63s18.833 -15 35.5 -15c13.333 0 25.333 3.33301 36 10l7 -15c-10.667 -22 -24.667 -39.833 -42 -53.5
s-38.333 -20.5 -63 -20.5c-30.667 0 -53.834 11.167 -69.501 33.5s-24.5 51.833 -26.5 88.5c-24.667 -81.333 -62.334 -122 -113.001 -122c-16 0 -31.5 7 -46.5 21s-27.5 35.667 -37.5 65l27 -236l-126 -28z" />
    <glyph glyph-name="paragraph" unicode="&#xb6;" horiz-adv-x="611" 
d="M386 -119c1.33301 50.667 2.16895 101.831 2.50195 153.498s0.5 103.834 0.5 156.501v449h-75v-516c-54.667 0.666992 -104 11.334 -148 32.001s-78.833 50.834 -104.5 90.501s-38.5 88.834 -38.5 147.501c0 45.333 8.16699 84.666 24.5 117.999s38.5 61 66.5 83
s59.667 38.333 95 49s72 16 110 16h251v-10l-22 -7c-24.667 -8 -37.334 -24.667 -38.001 -50c-0.666992 -38.667 -1 -79.834 -1 -123.501v-119.5v-158c0 -52 0.166992 -104 0.5 -156s1.16602 -103.667 2.49902 -155h-126z" />
    <glyph glyph-name="periodcentered" unicode="&#xb7;" horiz-adv-x="300" 
d="M150 249c-24 0 -44.333 8.33301 -61 25s-25 36.667 -25 60s8.33301 43.666 25 60.999s37 26 61 26s44.333 -8.66699 61 -26s25 -37.666 25 -60.999s-8.33301 -43.333 -25 -60s-37 -25 -61 -25z" />
    <glyph glyph-name="cedilla" unicode="&#xb8;" horiz-adv-x="400" 
d="M146 -88l13 87.001h21l-6 -49c39.333 -4.66699 68.666 -14.667 87.999 -30s29 -34.333 29 -57c0 -24.667 -10.667 -45.334 -32 -62.001s-53.666 -25 -96.999 -25c-16 0 -29.833 1.16699 -41.5 3.5s-22.834 5.16602 -33.501 8.49902l4 17c19.333 -6 37 -9 53 -9
c18.667 0 33.167 5.5 43.5 16.5s15.5 26.167 15.5 45.5c0 16 -5.16699 28.333 -15.5 37s-24.166 14.334 -41.499 17.001z" />
    <glyph glyph-name="uni00B9" unicode="&#xb9;" horiz-adv-x="242" 
d="M14 415v6l46 16v318l-45 -5v8l47 18.5l45 18l58 22.5l9 -6l-3 -90v-284l49 -16v-6h-206z" />
    <glyph glyph-name="ordmasculine" unicode="&#xba;" horiz-adv-x="379" 
d="M190 739c30 0 57.6689 -6.66602 83.002 -19.999s45.666 -32.333 60.999 -57s23 -54.334 23 -89.001c0 -52 -15.833 -93 -47.5 -123s-71.5 -45 -119.5 -45c-48.667 0 -88.834 15.167 -120.501 45.5s-47.5 71.166 -47.5 122.499c0 34.667 7.66699 64.334 23 89.001
s35.833 43.667 61.5 57s53.5 20 83.5 20zM190.002 705.001c-24 0 -42 -10.833 -54 -32.5s-18 -55.167 -18 -100.5c0 -46 6 -79.667 18 -101s30 -32 54 -32c23.333 0 41 10.667 53 32s18 55 18 101c0 45.333 -6 78.833 -18 100.5s-29.667 32.5 -53 32.5z" />
    <glyph glyph-name="guillemotright" unicode="&#xbb;" horiz-adv-x="536" 
d="M64 469l231 -203v-23l-231 -203l-10 9l132 206l-132 205zM278 469l231 -203v-23l-231 -203l-10 9l132 206l-132 205z" />
    <glyph glyph-name="onequarter" unicode="&#xbc;" horiz-adv-x="698" 
d="M147 -21l-20 14l451 661l21 -14zM14 248v6l46 16v318l-45 -5v8l47 18.5l45 18l58 22.5l9 -6l-3 -90v-284l49 -16v-6h-206zM529 0v88h-161v44l181 267h75v-254h56v-57h-56v-88h-95zM399 145h130v189z" />
    <glyph glyph-name="onehalf" unicode="&#xbd;" horiz-adv-x="789" 
d="M147 -21l-20 14l451 661l21 -14zM14 252v6l46 16v318l-45 -5v8l47 18.5l45 18l58 22.5l9 -6l-3 -90v-284l49 -16v-6h-206zM492 285l5.00098 95.001c13.333 7.33301 29.166 13.166 47.499 17.499s39.833 6.5 64.5 6.5c52.667 0 90.5 -10.5 113.5 -31.5
s34.5 -46.833 34.5 -77.5s-15.333 -59.5 -46 -86.5s-72.667 -55.833 -126 -86.5c-6.66699 -4.66699 -16.5 -11 -29.5 -19s-23.167 -15 -30.5 -21h238v-82h-285v59l42 41l39 39c30.667 31.333 53.167 58 67.5 80s21.5 47.333 21.5 76c0 27.333 -4.33301 49.833 -13 67.5
s-25 26.5 -49 26.5c-8.66699 0 -17.167 -1.83301 -25.5 -5.5l-12.5 -5.5l-50 -93h-6z" />
    <glyph glyph-name="threequarters" unicode="&#xbe;" horiz-adv-x="776" 
d="M166 240c-32.667 0 -57.501 3.1709 -74.501 9.50391l-52.5 19.5l7 89h6l55 -94l13 -5.5c8.66699 -3.66699 19.334 -5.5 32.001 -5.5c21.333 0 36.666 7.83301 45.999 23.5s14 42.834 14 81.501c0 35.333 -4.5 59.166 -13.5 71.499s-23.5 18.5 -43.5 18.5h-34v13h31
c18.667 0 32.334 5.5 41.001 16.5s13 34.833 13 71.5c0 33.333 -4.16699 56.666 -12.5 69.999s-19.5 20 -33.5 20c-12 0 -22 -1.83301 -30 -5.5l-12 -5.5l-50 -90h-6l5 98c14.667 5.33301 30.167 9.66602 46.5 12.999s35.5 5 57.5 5c47.333 0 82.833 -9.66699 106.5 -29
s35.5 -43.333 35.5 -72c0 -18.667 -9.33301 -37.334 -28 -56.001s-48.667 -31.667 -90 -39c45.333 -2.66699 78.333 -13.834 99 -33.501s31 -43.5 31 -71.5c0 -32.667 -14 -59.667 -42 -81s-67 -32 -117 -32zM223.999 -20.9961l-20 14l451 661l21 -14zM605.999 0.00390625
v88h-161v44l181 267h75v-254h56v-57h-56v-88h-95zM475.999 145.004h130v189z" />
    <glyph glyph-name="questiondown" unicode="&#xbf;" horiz-adv-x="506" 
d="M252 336c-24.667 0 -45.167 8.5 -61.5 25.5s-24.5 37.167 -24.5 60.5c0 24 8.16699 44.333 24.5 61s36.833 25 61.5 25c24 0 44.5 -8.33301 61.5 -25s25.5 -37 25.5 -61c0 -23.333 -8.5 -43.5 -25.5 -60.5s-37.5 -25.5 -61.5 -25.5zM248 -191
c-67.333 0 -120.165 14.501 -158.498 43.501s-57.5 71.833 -57.5 128.5c0 39.333 9.66699 72.666 29 99.999s44.166 49.666 74.499 66.999s61.833 30.333 94.5 39l5 81h18l9 -170c-31.333 -10.667 -56.666 -28.167 -75.999 -52.5s-29 -53.5 -29 -87.5
c0 -40 7.33301 -71.5 22 -94.5s33 -34.5 55 -34.5c19.333 0 34.166 6.66699 44.499 20s18.5 31.333 24.5 54l13 48c6 22.667 16.167 38.834 30.5 48.501s29.333 13.5 45 11.5s29.167 -9.16699 40.5 -21.5s17 -29.166 17 -50.499c0 -26 -9.83301 -48.833 -29.5 -68.5
s-44.834 -34.834 -75.501 -45.501s-62.667 -16 -96 -16z" />
    <glyph glyph-name="Agrave" unicode="&#xc0;" horiz-adv-x="650" 
d="M8 0l0.000976562 10.002l25 9c13.333 5.33301 23.666 11.833 30.999 19.5s13.333 18.5 18 32.5l206 591h85l203 -595c5.33301 -14.667 11.333 -25.834 18 -33.501s17 -14.167 31 -19.5l12 -4v-10h-254v10l15 5c14 5.33301 22.5 12.833 25.5 22.5s2.5 21.167 -1.5 34.5
l-47 144h-222l-48 -141c-4.66699 -14.667 -6.16699 -26.334 -4.5 -35.001s9.5 -15.667 23.5 -21l22 -9v-10h-138zM160.001 236.002h209l-101 311zM382.001 713.002l-71.001 32l-72 31c-41.333 18.667 -62 38.667 -62 60c0 11.333 3.83301 20.833 11.5 28.5
s17.834 11.5 30.501 11.5c10 0 20.167 -3 30.5 -9s23.833 -18 40.5 -36l50 -52.5l52 -53.5z" />
    <glyph glyph-name="Aacute" unicode="&#xc1;" horiz-adv-x="650" 
d="M8 0l0.000976562 10.002l25 9c13.333 5.33301 23.666 11.833 30.999 19.5s13.333 18.5 18 32.5l206 591h85l203 -595c5.33301 -14.667 11.333 -25.834 18 -33.501s17 -14.167 31 -19.5l12 -4v-10h-254v10l15 5c14 5.33301 22.5 12.833 25.5 22.5s2.5 21.167 -1.5 34.5
l-47 144h-222l-48 -141c-4.66699 -14.667 -6.16699 -26.334 -4.5 -35.001s9.5 -15.667 23.5 -21l22 -9v-10h-138zM160.001 236.002h209l-101 311zM239.001 725.002l51.999 53.5l50 52.5c16.667 18 30.167 30 40.5 36s20.5 9 30.5 9c12.667 0 22.834 -3.83301 30.501 -11.5
s11.5 -17.167 11.5 -28.5c0 -21.333 -20.667 -41.333 -62 -60l-71.5 -31l-71.5 -32z" />
    <glyph glyph-name="Acircumflex" unicode="&#xc2;" horiz-adv-x="650" 
d="M8 0l0.000976562 10.002l25 9c13.333 5.33301 23.666 11.833 30.999 19.5s13.333 18.5 18 32.5l206 591h85l203 -595c5.33301 -14.667 11.333 -25.834 18 -33.501s17 -14.167 31 -19.5l12 -4v-10h-254v10l15 5c14 5.33301 22.5 12.833 25.5 22.5s2.5 21.167 -1.5 34.5
l-47 144h-222l-48 -141c-4.66699 -14.667 -6.16699 -26.334 -4.5 -35.001s9.5 -15.667 23.5 -21l22 -9v-10h-138zM160.001 236.002h209l-101 311zM167.001 694.002l-10 12l151 164h14l151 -164l-10 -12l-148 82z" />
    <glyph glyph-name="Atilde" unicode="&#xc3;" horiz-adv-x="650" 
d="M8 0l0.000976562 10.002l25 9c13.333 5.33301 23.666 11.833 30.999 19.5s13.333 18.5 18 32.5l206 591h85l203 -595c5.33301 -14.667 11.333 -25.834 18 -33.501s17 -14.167 31 -19.5l12 -4v-10h-254v10l15 5c14 5.33301 22.5 12.833 25.5 22.5s2.5 21.167 -1.5 34.5
l-47 144h-222l-48 -141c-4.66699 -14.667 -6.16699 -26.334 -4.5 -35.001s9.5 -15.667 23.5 -21l22 -9v-10h-138zM160.001 236.002h209l-101 311zM145.001 719.002c5.33301 41.333 16.3291 75.168 32.9961 101.501s39.334 39.5 68.001 39.5c16.667 0 31.334 -3 44.001 -9
s24.334 -13.333 35.001 -22c11.333 -8.66699 22.666 -18.167 33.999 -28.5s24.333 -15.5 39 -15.5c18.667 0 33.834 6.5 45.501 19.5s21.167 29.5 28.5 49.5l15 -5c-6 -40.667 -17.167 -74.334 -33.5 -101.001s-38.833 -40 -67.5 -40c-15.333 0 -29.5 3 -42.5 9
s-24.833 13 -35.5 21c-10.667 10 -22.167 20 -34.5 30s-25.5 15 -39.5 15c-18.667 0 -34.167 -6.66699 -46.5 -20s-22.166 -30 -29.499 -50z" />
    <glyph glyph-name="Adieresis" unicode="&#xc4;" horiz-adv-x="650" 
d="M8 0l0.000976562 10.002l25 9c13.333 5.33301 23.666 11.833 30.999 19.5s13.333 18.5 18 32.5l206 591h85l203 -595c5.33301 -14.667 11.333 -25.834 18 -33.501s17 -14.167 31 -19.5l12 -4v-10h-254v10l15 5c14 5.33301 22.5 12.833 25.5 22.5s2.5 21.167 -1.5 34.5
l-47 144h-222l-48 -141c-4.66699 -14.667 -6.16699 -26.334 -4.5 -35.001s9.5 -15.667 23.5 -21l22 -9v-10h-138zM160.001 236.002h209l-101 311zM193.001 720.002c-18 0 -34.167 5.83301 -48.5 17.5s-21.5 27.834 -21.5 48.501s7.16699 36.834 21.5 48.501
s30.5 17.5 48.5 17.5c19.333 0 35.833 -5.83301 49.5 -17.5s20.5 -27.834 20.5 -48.501s-6.83301 -36.834 -20.5 -48.501s-30.167 -17.5 -49.5 -17.5zM436.001 720.002c-18 0 -34 5.83301 -48 17.5s-21 27.834 -21 48.501s7 36.834 21 48.501s30 17.5 48 17.5
c19.333 0 35.833 -5.83301 49.5 -17.5s20.5 -27.834 20.5 -48.501s-6.83301 -36.834 -20.5 -48.501s-30.167 -17.5 -49.5 -17.5z" />
    <glyph glyph-name="Aring" unicode="&#xc5;" horiz-adv-x="650" 
d="M8 0l0.000976562 10.002l25 9c13.333 5.33301 23.666 11.833 30.999 19.5s13.333 18.5 18 32.5l206 591h85l203 -595c5.33301 -14.667 11.333 -25.834 18 -33.501s17 -14.167 31 -19.5l12 -4v-10h-254v10l15 5c14 5.33301 22.5 12.833 25.5 22.5s2.5 21.167 -1.5 34.5
l-47 144h-222l-48 -141c-4.66699 -14.667 -6.16699 -26.334 -4.5 -35.001s9.5 -15.667 23.5 -21l22 -9v-10h-138zM160.001 236.002h209l-101 311zM315.001 706.002c-27.333 0 -51.166 8.66699 -71.499 26s-30.5 41 -30.5 71s10.167 53.833 30.5 71.5
s44.166 26.5 71.499 26.5s51.166 -8.5 71.499 -25.5s30.5 -41.167 30.5 -72.5c0 -30.667 -10.167 -54.5 -30.5 -71.5s-44.166 -25.5 -71.499 -25.5zM315.001 732.002c21.333 0 38 6.83301 50 20.5s18 30.5 18 50.5s-6 37 -18 51s-28.667 21 -50 21
c-20.667 0 -37.167 -7 -49.5 -21s-18.5 -31 -18.5 -51s6.16699 -36.833 18.5 -50.5s28.833 -20.5 49.5 -20.5z" />
    <glyph glyph-name="AE" unicode="&#xc6;" horiz-adv-x="898" 
d="M17 0l-0.000976562 10l27 9c17.333 6 31.333 13.833 42 23.5s20 22.167 28 37.5l252 509c6 12 7 22.667 3 32s-12.667 16 -26 20l-30 9v10h531l6 -154h-10l-46 101c-9.33301 22 -26.333 33 -51 33h-174c-0.666992 -42.667 -1.16699 -86.667 -1.5 -132
s-0.5 -97.666 -0.5 -156.999h105c20.667 0 35.334 9 44.001 27l28 52h10v-180h-10l-28 54c-9.33301 18 -24 27 -44 27h-105v-138.5c0 -37 0.166992 -68.833 0.5 -95.5s0.833008 -52.334 1.5 -77.001h196c25.333 0 43 11.667 53 35l42 99h10l-6 -154h-497v10l15 6
c23.333 8.66699 35.333 26 36 52c0.666992 35.333 1 68.833 1 100.5v95.5h-189l-91 -187c-14 -27.333 -6.33301 -46.333 23 -57l30 -10v-10h-175zM239.999 285h179v351h-7z" />
    <glyph glyph-name="Ccedilla" unicode="&#xc7;" horiz-adv-x="603" 
d="M366 -18c-64.667 0 -123.165 13.1729 -175.498 39.5059s-93.833 65.5 -124.5 117.5s-46 115.667 -46 191c0 57.333 9.33301 107.666 28 150.999s44.167 79.666 76.5 108.999s69.666 51.333 111.999 66s87.166 22 134.499 22c38 0 73 -4.33301 105 -13s62 -20.667 90 -36
l4 -123h-10l-50 80c-6.66699 12.667 -14 24.167 -22 34.5s-18 18.166 -30 23.499c-10 4.66699 -19.833 8.16699 -29.5 10.5s-21.834 3.5 -36.501 3.5c-38.667 0 -73.834 -10.333 -105.501 -31s-57 -54.834 -76 -102.501s-28.5 -112.834 -28.5 -195.501
c0 -82 9 -146.833 27 -194.5s42.5 -81.667 73.5 -102s65.833 -30.5 104.5 -30.5c21.333 0 38.333 1.5 51 4.5s25.334 7.5 38.001 13.5c12.667 5.33301 22.334 13.166 29.001 23.499s12.667 21.5 18 33.5l44 98h10l-3 -143c-28 -14.667 -59.333 -26.667 -94 -36
s-72.667 -14 -114 -14zM345.002 -84.9941l13 87.001h21l-6 -49c39.333 -4.66699 68.666 -14.667 87.999 -30s29 -34.333 29 -57c0 -24.667 -10.667 -45.334 -32 -62.001s-53.666 -25 -96.999 -25c-16 0 -29.833 1.16699 -41.5 3.5s-22.834 5.16602 -33.501 8.49902l4 17
c19.333 -6 37 -9 53 -9c18.667 0 33.167 5.5 43.5 16.5s15.5 26.167 15.5 45.5c0 16 -5.16699 28.333 -15.5 37s-24.166 14.334 -41.499 17.001z" />
    <glyph glyph-name="Egrave" unicode="&#xc8;" horiz-adv-x="555" 
d="M22 0l0.00292969 9.99805l23 9c11.333 4.66699 19.166 10.834 23.499 18.501s6.5 18.167 6.5 31.5v522c0 13.333 -1.83301 23.833 -5.5 31.5s-11.834 13.834 -24.501 18.501l-23 9v10h479l6 -154h-10l-43 94c-6 12 -12.333 21.667 -19 29s-16.667 11 -30 11h-180v-289
h107c13.333 0 23.5 3.5 30.5 10.5s13.167 16.5 18.5 28.5l20 40h10v-180h-10l-20 42c-6 12 -12.333 21.5 -19 28.5s-16.667 10.5 -30 10.5h-107v-311h202c13.333 0 23.666 3.5 30.999 10.5s13.333 16.833 18 29.5l41 94h10l-6 -154h-499zM343.003 712.998l-71.001 32l-72 31
c-41.333 18.667 -62 38.667 -62 60c0 11.333 3.83301 20.833 11.5 28.5s17.834 11.5 30.501 11.5c10 0 20.167 -3 30.5 -9s23.833 -18 40.5 -36l50 -52.5l52 -53.5z" />
    <glyph glyph-name="Eacute" unicode="&#xc9;" horiz-adv-x="555" 
d="M22 0l0.00292969 9.99805l23 9c11.333 4.66699 19.166 10.834 23.499 18.501s6.5 18.167 6.5 31.5v522c0 13.333 -1.83301 23.833 -5.5 31.5s-11.834 13.834 -24.501 18.501l-23 9v10h479l6 -154h-10l-43 94c-6 12 -12.333 21.667 -19 29s-16.667 11 -30 11h-180v-289
h107c13.333 0 23.5 3.5 30.5 10.5s13.167 16.5 18.5 28.5l20 40h10v-180h-10l-20 42c-6 12 -12.333 21.5 -19 28.5s-16.667 10.5 -30 10.5h-107v-311h202c13.333 0 23.666 3.5 30.999 10.5s13.333 16.833 18 29.5l41 94h10l-6 -154h-499zM200.003 724.998l51.999 53.5
l50 52.5c16.667 18 30.167 30 40.5 36s20.5 9 30.5 9c12.667 0 22.834 -3.83301 30.501 -11.5s11.5 -17.167 11.5 -28.5c0 -21.333 -20.667 -41.333 -62 -60l-71.5 -31l-71.5 -32z" />
    <glyph glyph-name="Ecircumflex" unicode="&#xca;" horiz-adv-x="555" 
d="M22 0l0.00292969 9.99805l23 9c11.333 4.66699 19.166 10.834 23.499 18.501s6.5 18.167 6.5 31.5v522c0 13.333 -1.83301 23.833 -5.5 31.5s-11.834 13.834 -24.501 18.501l-23 9v10h479l6 -154h-10l-43 94c-6 12 -12.333 21.667 -19 29s-16.667 11 -30 11h-180v-289
h107c13.333 0 23.5 3.5 30.5 10.5s13.167 16.5 18.5 28.5l20 40h10v-180h-10l-20 42c-6 12 -12.333 21.5 -19 28.5s-16.667 10.5 -30 10.5h-107v-311h202c13.333 0 23.666 3.5 30.999 10.5s13.333 16.833 18 29.5l41 94h10l-6 -154h-499zM128.003 693.998l-10 12l151 164h14
l151 -164l-10 -12l-148 82z" />
    <glyph glyph-name="Edieresis" unicode="&#xcb;" horiz-adv-x="555" 
d="M22 0l0.00292969 9.99805l23 9c11.333 4.66699 19.166 10.834 23.499 18.501s6.5 18.167 6.5 31.5v522c0 13.333 -1.83301 23.833 -5.5 31.5s-11.834 13.834 -24.501 18.501l-23 9v10h479l6 -154h-10l-43 94c-6 12 -12.333 21.667 -19 29s-16.667 11 -30 11h-180v-289
h107c13.333 0 23.5 3.5 30.5 10.5s13.167 16.5 18.5 28.5l20 40h10v-180h-10l-20 42c-6 12 -12.333 21.5 -19 28.5s-16.667 10.5 -30 10.5h-107v-311h202c13.333 0 23.666 3.5 30.999 10.5s13.333 16.833 18 29.5l41 94h10l-6 -154h-499zM154.003 719.998
c-18 0 -34.167 5.83301 -48.5 17.5s-21.5 27.834 -21.5 48.501s7.16699 36.834 21.5 48.501s30.5 17.5 48.5 17.5c19.333 0 35.833 -5.83301 49.5 -17.5s20.5 -27.834 20.5 -48.501s-6.83301 -36.834 -20.5 -48.501s-30.167 -17.5 -49.5 -17.5zM397.003 719.998
c-18 0 -34 5.83301 -48 17.5s-21 27.834 -21 48.501s7 36.834 21 48.501s30 17.5 48 17.5c19.333 0 35.833 -5.83301 49.5 -17.5s20.5 -27.834 20.5 -48.501s-6.83301 -36.834 -20.5 -48.501s-30.167 -17.5 -49.5 -17.5z" />
    <glyph glyph-name="Igrave" unicode="&#xcc;" horiz-adv-x="301" 
d="M22 0l0.000976562 10l20 8c13.333 4.66699 22.166 11 26.499 19s6.5 18.667 6.5 32v522c0 13.333 -2 24 -6 32s-13 14.333 -27 19l-20 8v10h257v-10l-20 -8c-13.333 -4.66699 -22.166 -11 -26.499 -19s-6.5 -18.667 -6.5 -32v-522c0 -13.333 2.16699 -23.833 6.5 -31.5
s13.166 -14.167 26.499 -19.5l20 -8v-10h-257zM218.001 713l-71.001 32l-72 31c-41.333 18.667 -62 38.667 -62 60c0 11.333 3.83301 20.833 11.5 28.5s17.834 11.5 30.501 11.5c10 0 20.167 -3 30.5 -9s23.833 -18 40.5 -36l50 -52.5l52 -53.5z" />
    <glyph glyph-name="Iacute" unicode="&#xcd;" horiz-adv-x="301" 
d="M22 0l0.000976562 10l20 8c13.333 4.66699 22.166 11 26.499 19s6.5 18.667 6.5 32v522c0 13.333 -2 24 -6 32s-13 14.333 -27 19l-20 8v10h257v-10l-20 -8c-13.333 -4.66699 -22.166 -11 -26.499 -19s-6.5 -18.667 -6.5 -32v-522c0 -13.333 2.16699 -23.833 6.5 -31.5
s13.166 -14.167 26.499 -19.5l20 -8v-10h-257zM75.001 725l51.999 53.5l50 52.5c16.667 18 30.167 30 40.5 36s20.5 9 30.5 9c12.667 0 22.834 -3.83301 30.501 -11.5s11.5 -17.167 11.5 -28.5c0 -21.333 -20.667 -41.333 -62 -60l-71.5 -31l-71.5 -32z" />
    <glyph glyph-name="Icircumflex" unicode="&#xce;" horiz-adv-x="301" 
d="M22 0l0.000976562 10l20 8c13.333 4.66699 22.166 11 26.499 19s6.5 18.667 6.5 32v522c0 13.333 -2 24 -6 32s-13 14.333 -27 19l-20 8v10h257v-10l-20 -8c-13.333 -4.66699 -22.166 -11 -26.499 -19s-6.5 -18.667 -6.5 -32v-522c0 -13.333 2.16699 -23.833 6.5 -31.5
s13.166 -14.167 26.499 -19.5l20 -8v-10h-257zM3.00098 694l-10 12l151 164h14l151 -164l-10 -12l-148 82z" />
    <glyph glyph-name="Idieresis" unicode="&#xcf;" horiz-adv-x="301" 
d="M22 0l0.000976562 10l20 8c13.333 4.66699 22.166 11 26.499 19s6.5 18.667 6.5 32v522c0 13.333 -2 24 -6 32s-13 14.333 -27 19l-20 8v10h257v-10l-20 -8c-13.333 -4.66699 -22.166 -11 -26.499 -19s-6.5 -18.667 -6.5 -32v-522c0 -13.333 2.16699 -23.833 6.5 -31.5
s13.166 -14.167 26.499 -19.5l20 -8v-10h-257zM29.001 720c-18 0 -34.167 5.83301 -48.5 17.5s-21.5 27.834 -21.5 48.501s7.16699 36.834 21.5 48.501s30.5 17.5 48.5 17.5c19.333 0 35.833 -5.83301 49.5 -17.5s20.5 -27.834 20.5 -48.501s-6.83301 -36.834 -20.5 -48.501
s-30.167 -17.5 -49.5 -17.5zM272.001 720c-18 0 -34 5.83301 -48 17.5s-21 27.834 -21 48.501s7 36.834 21 48.501s30 17.5 48 17.5c19.333 0 35.833 -5.83301 49.5 -17.5s20.5 -27.834 20.5 -48.501s-6.83301 -36.834 -20.5 -48.501s-30.167 -17.5 -49.5 -17.5z" />
    <glyph glyph-name="Eth" unicode="&#xd0;" horiz-adv-x="648" 
d="M22 0l0.000976562 10l21 8c21.333 8.66699 32 25.667 32 51v256h-40v27h40v239c0 26.667 -10.667 43.667 -32 51l-21 8v10h264c70.667 0 131.5 -13.167 182.5 -39.5s90.333 -64 118 -113s41.5 -107.833 41.5 -176.5c0 -70 -15 -129.667 -45 -179s-71.833 -87 -125.5 -113
s-116.834 -39 -189.501 -39h-246zM225.001 20h43.002c48 0 86.667 9.5 116 28.5s50.833 51 64.5 96s20.5 106.833 20.5 185.5s-6.83301 140.5 -20.5 185.5s-34.834 77 -63.501 96s-66.334 28.5 -113.001 28.5h-47v-288h167v-27h-167v-305z" />
    <glyph glyph-name="Ntilde" unicode="&#xd1;" horiz-adv-x="653" 
d="M35 0l-0.00390625 9.99805l33 10c12 3.33301 20.667 9.83301 26 19.5s8 21.167 8 34.5v481c-7.33301 16 -13.166 28 -17.499 36s-9.16602 14.833 -14.499 20.5s-12.666 12.834 -21.999 21.501l-17 17v10h177l332 -453v377c0 13.333 -2.16699 25.333 -6.5 36
s-13.166 17.667 -26.499 21l-33 9v10h143v-10l-27 -9c-12 -4 -19.333 -11 -22 -21s-4 -21.667 -4 -35v-588h-56l-382 525v-448c0 -13.333 2 -24.666 6 -33.999s12.333 -16 25 -20l30 -10v-10h-152zM155.996 718.998c5.33301 41.333 16.3291 75.168 32.9961 101.501
s39.334 39.5 68.001 39.5c16.667 0 31.334 -3 44.001 -9s24.334 -13.333 35.001 -22c11.333 -8.66699 22.666 -18.167 33.999 -28.5s24.333 -15.5 39 -15.5c18.667 0 33.834 6.5 45.501 19.5s21.167 29.5 28.5 49.5l15 -5c-6 -40.667 -17.167 -74.334 -33.5 -101.001
s-38.833 -40 -67.5 -40c-15.333 0 -29.5 3 -42.5 9s-24.833 13 -35.5 21c-10.667 10 -22.167 20 -34.5 30s-25.5 15 -39.5 15c-18.667 0 -34.167 -6.66699 -46.5 -20s-22.166 -30 -29.499 -50z" />
    <glyph glyph-name="Ograve" unicode="&#xd2;" horiz-adv-x="670" 
d="M335 -18c-40.667 0 -79.832 7.33496 -117.499 22.002s-71.334 36.5 -101.001 65.5s-53.167 65.167 -70.5 108.5s-26 94 -26 152c0 57.333 8.66699 107.666 26 150.999s41 79.5 71 108.5s63.833 51 101.5 66s76.5 22.5 116.5 22.5c40.667 0 79.834 -7.16699 117.501 -21.5
s71.334 -36 101.001 -65s53.167 -65.333 70.5 -109s26 -94.5 26 -152.5c0 -56.667 -8.66699 -106.834 -26 -150.501s-40.833 -80 -70.5 -109s-63.334 -51 -101.001 -66s-76.834 -22.5 -117.501 -22.5zM335.002 3.00195c36.667 0 66.334 9.83301 89.001 29.5
s39.167 53.334 49.5 101.001s15.5 113.167 15.5 196.5c0 84 -5.16699 149.833 -15.5 197.5s-26.833 81.334 -49.5 101.001s-52.334 29.5 -89.001 29.5c-36 0 -65.333 -9.83301 -88 -29.5s-39.167 -53.334 -49.5 -101.001s-15.5 -113.5 -15.5 -197.5
c0 -83.333 5.16699 -148.833 15.5 -196.5s26.833 -81.334 49.5 -101.001s52 -29.5 88 -29.5zM402.002 713.002l-71.001 32l-72 31c-41.333 18.667 -62 38.667 -62 60c0 11.333 3.83301 20.833 11.5 28.5s17.834 11.5 30.501 11.5c10 0 20.167 -3 30.5 -9
s23.833 -18 40.5 -36l50 -52.5l52 -53.5z" />
    <glyph glyph-name="Oacute" unicode="&#xd3;" horiz-adv-x="670" 
d="M335 -18c-40.667 0 -79.832 7.33496 -117.499 22.002s-71.334 36.5 -101.001 65.5s-53.167 65.167 -70.5 108.5s-26 94 -26 152c0 57.333 8.66699 107.666 26 150.999s41 79.5 71 108.5s63.833 51 101.5 66s76.5 22.5 116.5 22.5c40.667 0 79.834 -7.16699 117.501 -21.5
s71.334 -36 101.001 -65s53.167 -65.333 70.5 -109s26 -94.5 26 -152.5c0 -56.667 -8.66699 -106.834 -26 -150.501s-40.833 -80 -70.5 -109s-63.334 -51 -101.001 -66s-76.834 -22.5 -117.501 -22.5zM335.002 3.00195c36.667 0 66.334 9.83301 89.001 29.5
s39.167 53.334 49.5 101.001s15.5 113.167 15.5 196.5c0 84 -5.16699 149.833 -15.5 197.5s-26.833 81.334 -49.5 101.001s-52.334 29.5 -89.001 29.5c-36 0 -65.333 -9.83301 -88 -29.5s-39.167 -53.334 -49.5 -101.001s-15.5 -113.5 -15.5 -197.5
c0 -83.333 5.16699 -148.833 15.5 -196.5s26.833 -81.334 49.5 -101.001s52 -29.5 88 -29.5zM259.002 725.002l51.999 53.5l50 52.5c16.667 18 30.167 30 40.5 36s20.5 9 30.5 9c12.667 0 22.834 -3.83301 30.501 -11.5s11.5 -17.167 11.5 -28.5
c0 -21.333 -20.667 -41.333 -62 -60l-71.5 -31l-71.5 -32z" />
    <glyph glyph-name="Ocircumflex" unicode="&#xd4;" horiz-adv-x="670" 
d="M335 -18c-40.667 0 -79.832 7.33496 -117.499 22.002s-71.334 36.5 -101.001 65.5s-53.167 65.167 -70.5 108.5s-26 94 -26 152c0 57.333 8.66699 107.666 26 150.999s41 79.5 71 108.5s63.833 51 101.5 66s76.5 22.5 116.5 22.5c40.667 0 79.834 -7.16699 117.501 -21.5
s71.334 -36 101.001 -65s53.167 -65.333 70.5 -109s26 -94.5 26 -152.5c0 -56.667 -8.66699 -106.834 -26 -150.501s-40.833 -80 -70.5 -109s-63.334 -51 -101.001 -66s-76.834 -22.5 -117.501 -22.5zM335.002 3.00195c36.667 0 66.334 9.83301 89.001 29.5
s39.167 53.334 49.5 101.001s15.5 113.167 15.5 196.5c0 84 -5.16699 149.833 -15.5 197.5s-26.833 81.334 -49.5 101.001s-52.334 29.5 -89.001 29.5c-36 0 -65.333 -9.83301 -88 -29.5s-39.167 -53.334 -49.5 -101.001s-15.5 -113.5 -15.5 -197.5
c0 -83.333 5.16699 -148.833 15.5 -196.5s26.833 -81.334 49.5 -101.001s52 -29.5 88 -29.5zM187.002 694.002l-10 12l151 164h14l151 -164l-10 -12l-148 82z" />
    <glyph glyph-name="Otilde" unicode="&#xd5;" horiz-adv-x="670" 
d="M335 -18c-40.667 0 -79.832 7.33496 -117.499 22.002s-71.334 36.5 -101.001 65.5s-53.167 65.167 -70.5 108.5s-26 94 -26 152c0 57.333 8.66699 107.666 26 150.999s41 79.5 71 108.5s63.833 51 101.5 66s76.5 22.5 116.5 22.5c40.667 0 79.834 -7.16699 117.501 -21.5
s71.334 -36 101.001 -65s53.167 -65.333 70.5 -109s26 -94.5 26 -152.5c0 -56.667 -8.66699 -106.834 -26 -150.501s-40.833 -80 -70.5 -109s-63.334 -51 -101.001 -66s-76.834 -22.5 -117.501 -22.5zM335.002 3.00195c36.667 0 66.334 9.83301 89.001 29.5
s39.167 53.334 49.5 101.001s15.5 113.167 15.5 196.5c0 84 -5.16699 149.833 -15.5 197.5s-26.833 81.334 -49.5 101.001s-52.334 29.5 -89.001 29.5c-36 0 -65.333 -9.83301 -88 -29.5s-39.167 -53.334 -49.5 -101.001s-15.5 -113.5 -15.5 -197.5
c0 -83.333 5.16699 -148.833 15.5 -196.5s26.833 -81.334 49.5 -101.001s52 -29.5 88 -29.5zM165.002 719.002c5.33301 41.333 16.3291 75.168 32.9961 101.501s39.334 39.5 68.001 39.5c16.667 0 31.334 -3 44.001 -9s24.334 -13.333 35.001 -22
c11.333 -8.66699 22.666 -18.167 33.999 -28.5s24.333 -15.5 39 -15.5c18.667 0 33.834 6.5 45.501 19.5s21.167 29.5 28.5 49.5l15 -5c-6 -40.667 -17.167 -74.334 -33.5 -101.001s-38.833 -40 -67.5 -40c-15.333 0 -29.5 3 -42.5 9s-24.833 13 -35.5 21
c-10.667 10 -22.167 20 -34.5 30s-25.5 15 -39.5 15c-18.667 0 -34.167 -6.66699 -46.5 -20s-22.166 -30 -29.499 -50z" />
    <glyph glyph-name="Odieresis" unicode="&#xd6;" horiz-adv-x="670" 
d="M335 -18c-40.667 0 -79.832 7.33496 -117.499 22.002s-71.334 36.5 -101.001 65.5s-53.167 65.167 -70.5 108.5s-26 94 -26 152c0 57.333 8.66699 107.666 26 150.999s41 79.5 71 108.5s63.833 51 101.5 66s76.5 22.5 116.5 22.5c40.667 0 79.834 -7.16699 117.501 -21.5
s71.334 -36 101.001 -65s53.167 -65.333 70.5 -109s26 -94.5 26 -152.5c0 -56.667 -8.66699 -106.834 -26 -150.501s-40.833 -80 -70.5 -109s-63.334 -51 -101.001 -66s-76.834 -22.5 -117.501 -22.5zM335.002 3.00195c36.667 0 66.334 9.83301 89.001 29.5
s39.167 53.334 49.5 101.001s15.5 113.167 15.5 196.5c0 84 -5.16699 149.833 -15.5 197.5s-26.833 81.334 -49.5 101.001s-52.334 29.5 -89.001 29.5c-36 0 -65.333 -9.83301 -88 -29.5s-39.167 -53.334 -49.5 -101.001s-15.5 -113.5 -15.5 -197.5
c0 -83.333 5.16699 -148.833 15.5 -196.5s26.833 -81.334 49.5 -101.001s52 -29.5 88 -29.5zM213.002 720.002c-18 0 -34.167 5.83301 -48.5 17.5s-21.5 27.834 -21.5 48.501s7.16699 36.834 21.5 48.501s30.5 17.5 48.5 17.5c19.333 0 35.833 -5.83301 49.5 -17.5
s20.5 -27.834 20.5 -48.501s-6.83301 -36.834 -20.5 -48.501s-30.167 -17.5 -49.5 -17.5zM456.002 720.002c-18 0 -34 5.83301 -48 17.5s-21 27.834 -21 48.501s7 36.834 21 48.501s30 17.5 48 17.5c19.333 0 35.833 -5.83301 49.5 -17.5s20.5 -27.834 20.5 -48.501
s-6.83301 -36.834 -20.5 -48.501s-30.167 -17.5 -49.5 -17.5z" />
    <glyph glyph-name="multiply" unicode="&#xd7;" horiz-adv-x="541" 
d="M77 115l-15 15l194 194l-194 194l15 15l194 -194l194 194l15 -15l-194 -194l194 -194l-15 -15l-194 194z" />
    <glyph glyph-name="Oslash" unicode="&#xd8;" horiz-adv-x="670" 
d="M71 -13l-22.9971 19.0029l59 73c-26.667 28.667 -47.834 64 -63.501 106s-23.5 90.333 -23.5 145c0 57.333 8.66699 107.666 26 150.999s41 79.5 71 108.5s63.833 51 101.5 66s76.5 22.5 116.5 22.5c36.667 0 72.5 -6 107.5 -18s66.5 -30 94.5 -54l63 77l23 -19l-64 -79
c27.333 -28.667 49.333 -64.334 66 -107.001s25 -92 25 -148c0 -56.667 -8.66699 -106.834 -26 -150.501s-40.833 -80 -70.5 -109s-63.334 -51 -101.001 -66s-76.834 -22.5 -117.501 -22.5c-38 0 -74.667 6.33301 -110 19s-67.333 31.667 -96 57zM182.003 330.003
c0 -58.667 3.00098 -108.333 9.00098 -149l281 345c-11.333 46 -28 79.5 -50 100.5s-51 31.5 -87 31.5c-54.667 0 -93.834 -25.667 -117.501 -77s-35.5 -135 -35.5 -251zM335.004 3.00391c55.333 0 94.832 25.499 118.499 76.499s35.5 134.5 35.5 250.5
c0 62.667 -3.33301 115.334 -10 158.001l-282 -346c10.667 -48.667 27.334 -84 50.001 -106s52 -33 88 -33z" />
    <glyph glyph-name="Ugrave" unicode="&#xd9;" horiz-adv-x="649" 
d="M339 -18c-50.667 0 -95.501 9.00293 -134.501 27.0029s-69.333 46.5 -91 85.5s-32.5 90.5 -32.5 154.5v345c0 25.333 -13 42 -39 50l-22 6v10h277v-10l-29 -8c-24.667 -6 -37 -22.667 -37 -50v-369c0 -62 13 -107.833 39 -137.5s63.333 -44.5 112 -44.5
c50.667 0 90.834 15.667 120.501 47s44.5 75.666 44.5 132.999v367c0 13.333 -2.16699 25.166 -6.5 35.499s-13.166 17.166 -26.499 20.499l-25 6v10h140v-10l-27 -7c-12.667 -2.66699 -21 -9 -25 -19s-6 -21.667 -6 -35v-366c0 -48.667 -9.66699 -91.167 -29 -127.5
s-46.333 -64.333 -81 -84s-75.334 -29.5 -122.001 -29.5zM466.999 713.003l-71.001 32l-72 31c-41.333 18.667 -62 38.667 -62 60c0 11.333 3.83301 20.833 11.5 28.5s17.834 11.5 30.501 11.5c10 0 20.167 -3 30.5 -9s23.833 -18 40.5 -36l50 -52.5l52 -53.5z" />
    <glyph glyph-name="Uacute" unicode="&#xda;" horiz-adv-x="649" 
d="M339 -18c-50.667 0 -95.501 9.00293 -134.501 27.0029s-69.333 46.5 -91 85.5s-32.5 90.5 -32.5 154.5v345c0 25.333 -13 42 -39 50l-22 6v10h277v-10l-29 -8c-24.667 -6 -37 -22.667 -37 -50v-369c0 -62 13 -107.833 39 -137.5s63.333 -44.5 112 -44.5
c50.667 0 90.834 15.667 120.501 47s44.5 75.666 44.5 132.999v367c0 13.333 -2.16699 25.166 -6.5 35.499s-13.166 17.166 -26.499 20.499l-25 6v10h140v-10l-27 -7c-12.667 -2.66699 -21 -9 -25 -19s-6 -21.667 -6 -35v-366c0 -48.667 -9.66699 -91.167 -29 -127.5
s-46.333 -64.333 -81 -84s-75.334 -29.5 -122.001 -29.5zM323.999 725.003l51.999 53.5l50 52.5c16.667 18 30.167 30 40.5 36s20.5 9 30.5 9c12.667 0 22.834 -3.83301 30.501 -11.5s11.5 -17.167 11.5 -28.5c0 -21.333 -20.667 -41.333 -62 -60l-71.5 -31l-71.5 -32z" />
    <glyph glyph-name="Ucircumflex" unicode="&#xdb;" horiz-adv-x="649" 
d="M339 -18c-50.667 0 -95.501 9.00293 -134.501 27.0029s-69.333 46.5 -91 85.5s-32.5 90.5 -32.5 154.5v345c0 25.333 -13 42 -39 50l-22 6v10h277v-10l-29 -8c-24.667 -6 -37 -22.667 -37 -50v-369c0 -62 13 -107.833 39 -137.5s63.333 -44.5 112 -44.5
c50.667 0 90.834 15.667 120.501 47s44.5 75.666 44.5 132.999v367c0 13.333 -2.16699 25.166 -6.5 35.499s-13.166 17.166 -26.499 20.499l-25 6v10h140v-10l-27 -7c-12.667 -2.66699 -21 -9 -25 -19s-6 -21.667 -6 -35v-366c0 -48.667 -9.66699 -91.167 -29 -127.5
s-46.333 -64.333 -81 -84s-75.334 -29.5 -122.001 -29.5zM251.999 694.003l-10 12l151 164h14l151 -164l-10 -12l-148 82z" />
    <glyph glyph-name="Udieresis" unicode="&#xdc;" horiz-adv-x="649" 
d="M339 -18c-50.667 0 -95.501 9.00293 -134.501 27.0029s-69.333 46.5 -91 85.5s-32.5 90.5 -32.5 154.5v345c0 25.333 -13 42 -39 50l-22 6v10h277v-10l-29 -8c-24.667 -6 -37 -22.667 -37 -50v-369c0 -62 13 -107.833 39 -137.5s63.333 -44.5 112 -44.5
c50.667 0 90.834 15.667 120.501 47s44.5 75.666 44.5 132.999v367c0 13.333 -2.16699 25.166 -6.5 35.499s-13.166 17.166 -26.499 20.499l-25 6v10h140v-10l-27 -7c-12.667 -2.66699 -21 -9 -25 -19s-6 -21.667 -6 -35v-366c0 -48.667 -9.66699 -91.167 -29 -127.5
s-46.333 -64.333 -81 -84s-75.334 -29.5 -122.001 -29.5zM277.999 720.003c-18 0 -34.167 5.83301 -48.5 17.5s-21.5 27.834 -21.5 48.501s7.16699 36.834 21.5 48.501s30.5 17.5 48.5 17.5c19.333 0 35.833 -5.83301 49.5 -17.5s20.5 -27.834 20.5 -48.501
s-6.83301 -36.834 -20.5 -48.501s-30.167 -17.5 -49.5 -17.5zM520.999 720.003c-18 0 -34 5.83301 -48 17.5s-21 27.834 -21 48.501s7 36.834 21 48.501s30 17.5 48 17.5c19.333 0 35.833 -5.83301 49.5 -17.5s20.5 -27.834 20.5 -48.501s-6.83301 -36.834 -20.5 -48.501
s-30.167 -17.5 -49.5 -17.5z" />
    <glyph glyph-name="Yacute" unicode="&#xdd;" horiz-adv-x="590" 
d="M165 0l-0.000976562 9.99609l30 8c23.333 6.66699 35 23.334 35 50.001v190l-165 336c-6 13.333 -11.5 23.333 -16.5 30s-12.5 12.334 -22.5 17.001l-18 9v10h268v-10l-18 -7c-14.667 -6 -22.667 -14.167 -24 -24.5s1.33398 -23.166 8.00098 -38.499l118 -262l132 272
c5.33301 10.667 7.5 21.667 6.5 33s-8.16699 18.666 -21.5 21.999l-14 5v10h120v-10l-19 -7c-12.667 -4.66699 -22 -11.167 -28 -19.5s-12 -18.833 -18 -31.5l-137 -288v-236c0 -13.333 2.5 -24.166 7.5 -32.499s13.833 -14.166 26.5 -17.499l31 -8v-10h-281z
M260.999 724.996l51.999 53.5l50 52.5c16.667 18 30.167 30 40.5 36s20.5 9 30.5 9c12.667 0 22.834 -3.83301 30.501 -11.5s11.5 -17.167 11.5 -28.5c0 -21.333 -20.667 -41.333 -62 -60l-71.5 -31l-71.5 -32z" />
    <glyph glyph-name="Thorn" unicode="&#xde;" horiz-adv-x="577" 
d="M22 0v9.99805l16 6c24 8 36 25 36 51c0.666992 38 1 79 1 123v120v40v119c0 44 -0.333008 85.333 -1 124c0 26 -12 43 -36 51l-16 6v10h254v-10l-15 -6c-24 -8.66699 -36 -25.667 -36 -51c0 -9.33301 -0.166992 -19 -0.5 -29s-0.5 -19.667 -0.5 -29h59
c98 0 168.5 -17 211.5 -51s64.5 -80.667 64.5 -140c0 -37.333 -8.5 -71.166 -25.5 -101.499s-46.5 -54.5 -88.5 -72.5s-101 -27 -177 -27h-44c0 -12.667 0.166992 -25.167 0.5 -37.5s0.5 -25.166 0.5 -38.499c0 -26 12 -43 36 -51l15 -6v-10h-254zM223 162.998
l53 0.000976562c44 0 78.167 13.5 102.5 40.5s36.5 72.833 36.5 137.5c0 65.333 -11.333 110.666 -34 135.999s-58 38 -106 38h-51c-0.666992 -27.333 -1 -54.833 -1 -82.5v-82.5v-187z" />
    <glyph glyph-name="germandbls" unicode="&#xdf;" horiz-adv-x="644" 
d="M410 -15c-25.333 0 -49.167 2.50391 -71.5 7.50391s-45.166 12.833 -68.499 23.5l1 124h11l23 -59c6 -16 12.833 -29.667 20.5 -41s18.834 -20 33.501 -26c7.33301 -2.66699 15.166 -4.83398 23.499 -6.50098s16.833 -2.5 25.5 -2.5c25.333 0 47.166 8 65.499 24
s27.5 38 27.5 66c0 24 -7.5 43 -22.5 57s-39.5 28.333 -73.5 43c-36 14.667 -64.333 32.167 -85 52.5s-31 45.833 -31 76.5c0 18.667 4.33301 34.334 13 47.001s20.167 24.667 34.5 36l46.5 38c44.667 40 67 84 67 132c0 35.333 -9.33301 63.166 -28 83.499
s-45.667 30.5 -81 30.5c-26.667 0 -49.334 -7.16699 -68.001 -21.5s-32.667 -37.166 -42 -68.499c-6.66699 -20.667 -11.334 -46.167 -14.001 -76.5s-4 -70.5 -4 -120.5v-198c0 -68 1 -136.667 3 -206h-190v10l5 2c25.333 8 38.333 24.667 39 50
c0.666992 13.333 1 28.833 1 46.5v52.5v45v221c0 47.333 6.66699 86.166 20 116.499s29 55.166 47 74.499c24.667 28.667 55.334 51.334 92.001 68.001s76.334 25 119.001 25c65.333 0 116 -12.833 152 -38.5s54 -56.167 54 -91.5c0 -26.667 -9 -49.834 -27 -69.501
s-43.333 -38.834 -76 -57.501c-30 -14.667 -51.5 -27.334 -64.5 -38.001s-19.5 -21.667 -19.5 -33c0 -13.333 9.66699 -25 29 -35s50.333 -23.667 93 -41c43.333 -19.333 74.333 -41.833 93 -67.5s28 -57.167 28 -94.5c0 -31.333 -8.83301 -59 -26.5 -83
s-41.667 -42.833 -72 -56.5s-64.5 -20.5 -102.5 -20.5z" />
    <glyph glyph-name="agrave" unicode="&#xe0;" horiz-adv-x="518" 
d="M166 -15c-38.667 0 -71.166 11.001 -97.499 33.001s-39.5 53.667 -39.5 95c0 31.333 16 60.166 48 86.499s82.333 46.166 151 59.499l36 6.5l42 7.5v79c0 45.333 -5.5 77.166 -16.5 95.499s-28.167 27.5 -51.5 27.5c-16 0 -28.667 -5.16699 -38 -15.5
s-15.333 -28.166 -18 -53.499l-2 -11c-1.33301 -28.667 -8.33301 -49.667 -21 -63s-28.334 -20 -47.001 -20c-17.333 0 -31.666 5.33301 -42.999 16s-17 25 -17 43c0 27.333 9.5 50.333 28.5 69s44.167 32.667 75.5 42s65.333 14 102 14
c59.333 0 105.166 -14.5 137.499 -43.5s48.5 -76.167 48.5 -141.5v-221c0 -30 14 -45 42 -45h22l9 -8c-12.667 -16 -26.5 -28.333 -41.5 -37s-36.167 -13 -63.5 -13c-29.333 0 -52.5 6.83301 -69.5 20.5s-28.167 31.834 -33.5 54.501c-20 -21.333 -40.5 -39.5 -61.5 -54.5
s-48.167 -22.5 -81.5 -22.5zM227.001 46.001c13.333 0 25.834 3.16699 37.501 9.5s25.5 16.166 41.5 29.499v168l-20 -4c-6.66699 -1.33301 -14.334 -2.66602 -23.001 -3.99902c-30.667 -8 -55.167 -21.5 -73.5 -40.5s-27.5 -44.5 -27.5 -76.5
c0 -27.333 6.33301 -47.833 19 -61.5s28 -20.5 46 -20.5zM294.002 563.001l-51.501 39.5l-71.5 52.5c-20.667 14.667 -35.5 27.5 -44.5 38.5s-13.5 22.833 -13.5 35.5c0 12 4.83301 22.167 14.5 30.5s20.834 12.5 33.501 12.5c13.333 0 25.5 -4.83301 36.5 -14.5
s21.833 -25.167 32.5 -46.5l43 -79.5l33 -58.5z" />
    <glyph glyph-name="aacute" unicode="&#xe1;" horiz-adv-x="518" 
d="M166 -15c-38.667 0 -71.166 11.001 -97.499 33.001s-39.5 53.667 -39.5 95c0 31.333 16 60.166 48 86.499s82.333 46.166 151 59.499l36 6.5l42 7.5v79c0 45.333 -5.5 77.166 -16.5 95.499s-28.167 27.5 -51.5 27.5c-16 0 -28.667 -5.16699 -38 -15.5
s-15.333 -28.166 -18 -53.499l-2 -11c-1.33301 -28.667 -8.33301 -49.667 -21 -63s-28.334 -20 -47.001 -20c-17.333 0 -31.666 5.33301 -42.999 16s-17 25 -17 43c0 27.333 9.5 50.333 28.5 69s44.167 32.667 75.5 42s65.333 14 102 14
c59.333 0 105.166 -14.5 137.499 -43.5s48.5 -76.167 48.5 -141.5v-221c0 -30 14 -45 42 -45h22l9 -8c-12.667 -16 -26.5 -28.333 -41.5 -37s-36.167 -13 -63.5 -13c-29.333 0 -52.5 6.83301 -69.5 20.5s-28.167 31.834 -33.5 54.501c-20 -21.333 -40.5 -39.5 -61.5 -54.5
s-48.167 -22.5 -81.5 -22.5zM227.001 46.001c13.333 0 25.834 3.16699 37.501 9.5s25.5 16.166 41.5 29.499v168l-20 -4c-6.66699 -1.33301 -14.334 -2.66602 -23.001 -3.99902c-30.667 -8 -55.167 -21.5 -73.5 -40.5s-27.5 -44.5 -27.5 -76.5
c0 -27.333 6.33301 -47.833 19 -61.5s28 -20.5 46 -20.5zM197.002 573.001l32.001 58.5l43 79.5c11.333 21.333 22.333 36.833 33 46.5s23 14.5 37 14.5c12.667 0 23.667 -4.16699 33 -12.5s14 -18.5 14 -30.5c0 -12.667 -4.33301 -24.5 -13 -35.5
s-23.334 -23.833 -44.001 -38.5c-28.667 -20 -52.667 -37.5 -72 -52.5l-52 -39.5z" />
    <glyph glyph-name="acircumflex" unicode="&#xe2;" horiz-adv-x="518" 
d="M166 -15c-38.667 0 -71.166 11.001 -97.499 33.001s-39.5 53.667 -39.5 95c0 31.333 16 60.166 48 86.499s82.333 46.166 151 59.499l36 6.5l42 7.5v79c0 45.333 -5.5 77.166 -16.5 95.499s-28.167 27.5 -51.5 27.5c-16 0 -28.667 -5.16699 -38 -15.5
s-15.333 -28.166 -18 -53.499l-2 -11c-1.33301 -28.667 -8.33301 -49.667 -21 -63s-28.334 -20 -47.001 -20c-17.333 0 -31.666 5.33301 -42.999 16s-17 25 -17 43c0 27.333 9.5 50.333 28.5 69s44.167 32.667 75.5 42s65.333 14 102 14
c59.333 0 105.166 -14.5 137.499 -43.5s48.5 -76.167 48.5 -141.5v-221c0 -30 14 -45 42 -45h22l9 -8c-12.667 -16 -26.5 -28.333 -41.5 -37s-36.167 -13 -63.5 -13c-29.333 0 -52.5 6.83301 -69.5 20.5s-28.167 31.834 -33.5 54.501c-20 -21.333 -40.5 -39.5 -61.5 -54.5
s-48.167 -22.5 -81.5 -22.5zM227.001 46.001c13.333 0 25.834 3.16699 37.501 9.5s25.5 16.166 41.5 29.499v168l-20 -4c-6.66699 -1.33301 -14.334 -2.66602 -23.001 -3.99902c-30.667 -8 -55.167 -21.5 -73.5 -40.5s-27.5 -44.5 -27.5 -76.5
c0 -27.333 6.33301 -47.833 19 -61.5s28 -20.5 46 -20.5zM119.002 545.001l-13 12l142 194h14l142 -194l-13 -12l-136 106z" />
    <glyph glyph-name="atilde" unicode="&#xe3;" horiz-adv-x="518" 
d="M166 -15c-38.667 0 -71.166 11.001 -97.499 33.001s-39.5 53.667 -39.5 95c0 31.333 16 60.166 48 86.499s82.333 46.166 151 59.499l36 6.5l42 7.5v79c0 45.333 -5.5 77.166 -16.5 95.499s-28.167 27.5 -51.5 27.5c-16 0 -28.667 -5.16699 -38 -15.5
s-15.333 -28.166 -18 -53.499l-2 -11c-1.33301 -28.667 -8.33301 -49.667 -21 -63s-28.334 -20 -47.001 -20c-17.333 0 -31.666 5.33301 -42.999 16s-17 25 -17 43c0 27.333 9.5 50.333 28.5 69s44.167 32.667 75.5 42s65.333 14 102 14
c59.333 0 105.166 -14.5 137.499 -43.5s48.5 -76.167 48.5 -141.5v-221c0 -30 14 -45 42 -45h22l9 -8c-12.667 -16 -26.5 -28.333 -41.5 -37s-36.167 -13 -63.5 -13c-29.333 0 -52.5 6.83301 -69.5 20.5s-28.167 31.834 -33.5 54.501c-20 -21.333 -40.5 -39.5 -61.5 -54.5
s-48.167 -22.5 -81.5 -22.5zM227.001 46.001c13.333 0 25.834 3.16699 37.501 9.5s25.5 16.166 41.5 29.499v168l-20 -4c-6.66699 -1.33301 -14.334 -2.66602 -23.001 -3.99902c-30.667 -8 -55.167 -21.5 -73.5 -40.5s-27.5 -44.5 -27.5 -76.5
c0 -27.333 6.33301 -47.833 19 -61.5s28 -20.5 46 -20.5zM88.002 585.001c5.33301 43.333 16.8311 77.001 34.498 101.001s39.834 36 66.501 36c17.333 0 31.5 -2.83301 42.5 -8.5s21.5 -12.834 31.5 -21.501l31.5 -28.5c10.333 -9 21.833 -13.5 34.5 -13.5
c18 0 33.5 6 46.5 18s23.5 28.333 31.5 49l15 -5c-5.33301 -42.667 -16.666 -76.334 -33.999 -101.001s-39.333 -37 -66 -37c-16.667 0 -31 2.83301 -43 8.5s-22.667 12.834 -32 21.501c-10 9.33301 -20.333 18.5 -31 27.5s-22.667 13.5 -36 13.5
c-18 0 -33.333 -5.83301 -46 -17.5s-23 -27.5 -31 -47.5z" />
    <glyph glyph-name="adieresis" unicode="&#xe4;" horiz-adv-x="518" 
d="M166 -15c-38.667 0 -71.166 11.001 -97.499 33.001s-39.5 53.667 -39.5 95c0 31.333 16 60.166 48 86.499s82.333 46.166 151 59.499l36 6.5l42 7.5v79c0 45.333 -5.5 77.166 -16.5 95.499s-28.167 27.5 -51.5 27.5c-16 0 -28.667 -5.16699 -38 -15.5
s-15.333 -28.166 -18 -53.499l-2 -11c-1.33301 -28.667 -8.33301 -49.667 -21 -63s-28.334 -20 -47.001 -20c-17.333 0 -31.666 5.33301 -42.999 16s-17 25 -17 43c0 27.333 9.5 50.333 28.5 69s44.167 32.667 75.5 42s65.333 14 102 14
c59.333 0 105.166 -14.5 137.499 -43.5s48.5 -76.167 48.5 -141.5v-221c0 -30 14 -45 42 -45h22l9 -8c-12.667 -16 -26.5 -28.333 -41.5 -37s-36.167 -13 -63.5 -13c-29.333 0 -52.5 6.83301 -69.5 20.5s-28.167 31.834 -33.5 54.501c-20 -21.333 -40.5 -39.5 -61.5 -54.5
s-48.167 -22.5 -81.5 -22.5zM227.001 46.001c13.333 0 25.834 3.16699 37.501 9.5s25.5 16.166 41.5 29.499v168l-20 -4c-6.66699 -1.33301 -14.334 -2.66602 -23.001 -3.99902c-30.667 -8 -55.167 -21.5 -73.5 -40.5s-27.5 -44.5 -27.5 -76.5
c0 -27.333 6.33301 -47.833 19 -61.5s28 -20.5 46 -20.5zM371.002 580.001c-18.667 0 -35.5 6.16699 -50.5 18.5s-22.5 29.166 -22.5 50.499s7.5 38.166 22.5 50.499s31.833 18.5 50.5 18.5c20 0 37.167 -6.16699 51.5 -18.5s21.5 -29.166 21.5 -50.499
s-7.16699 -38.166 -21.5 -50.499s-31.5 -18.5 -51.5 -18.5zM139.002 580.001c-19.333 0 -36.333 6.16699 -51 18.5s-22 29.166 -22 50.499s7.33301 38.166 22 50.499s31.667 18.5 51 18.5s36.333 -6.16699 51 -18.5s22 -29.166 22 -50.499s-7.33301 -38.166 -22 -50.499
s-31.667 -18.5 -51 -18.5z" />
    <glyph glyph-name="aring" unicode="&#xe5;" horiz-adv-x="518" 
d="M166 -15c-38.667 0 -71.166 11.001 -97.499 33.001s-39.5 53.667 -39.5 95c0 31.333 16 60.166 48 86.499s82.333 46.166 151 59.499l36 6.5l42 7.5v79c0 45.333 -5.5 77.166 -16.5 95.499s-28.167 27.5 -51.5 27.5c-16 0 -28.667 -5.16699 -38 -15.5
s-15.333 -28.166 -18 -53.499l-2 -11c-1.33301 -28.667 -8.33301 -49.667 -21 -63s-28.334 -20 -47.001 -20c-17.333 0 -31.666 5.33301 -42.999 16s-17 25 -17 43c0 27.333 9.5 50.333 28.5 69s44.167 32.667 75.5 42s65.333 14 102 14
c59.333 0 105.166 -14.5 137.499 -43.5s48.5 -76.167 48.5 -141.5v-221c0 -30 14 -45 42 -45h22l9 -8c-12.667 -16 -26.5 -28.333 -41.5 -37s-36.167 -13 -63.5 -13c-29.333 0 -52.5 6.83301 -69.5 20.5s-28.167 31.834 -33.5 54.501c-20 -21.333 -40.5 -39.5 -61.5 -54.5
s-48.167 -22.5 -81.5 -22.5zM227.001 46.001c13.333 0 25.834 3.16699 37.501 9.5s25.5 16.166 41.5 29.499v168l-20 -4c-6.66699 -1.33301 -14.334 -2.66602 -23.001 -3.99902c-30.667 -8 -55.167 -21.5 -73.5 -40.5s-27.5 -44.5 -27.5 -76.5
c0 -27.333 6.33301 -47.833 19 -61.5s28 -20.5 46 -20.5zM255.002 552.001c-32 0 -59.5 9.99902 -82.5 29.999s-34.5 47.333 -34.5 82c0 34 11.5 61 34.5 81s50.5 30 82.5 30s59.5 -9.66699 82.5 -29s34.5 -46.666 34.5 -81.999c0 -34.667 -11.5 -62 -34.5 -82
s-50.5 -30 -82.5 -30zM255.002 576c19.333 0 34 6.83301 44 20.5s15 36.167 15 67.5s-5 53.833 -15 67.5s-24.667 20.5 -44 20.5c-18.667 0 -33.167 -6.83301 -43.5 -20.5s-15.5 -36.167 -15.5 -67.5s5.16699 -53.833 15.5 -67.5s24.833 -20.5 43.5 -20.5z" />
    <glyph glyph-name="ae" unicode="&#xe6;" horiz-adv-x="785" 
d="M166 -15c-38.667 0 -71.1631 11.002 -97.4961 33.002s-39.5 53.667 -39.5 95c0 31.333 16 60.166 48 86.499s82.333 46.166 151 59.499l36 6.5l42 7.5v77c0 47.333 -5.83301 80 -17.5 98s-28.167 27 -49.5 27c-18.667 -0.666992 -32.167 -5.5 -40.5 -14.5
s-13.166 -22.5 -14.499 -40.5l-4 -25c-1.33301 -28.667 -8.33301 -49.667 -21 -63s-28.334 -20 -47.001 -20c-17.333 0 -31.666 5.33301 -42.999 16s-17 25 -17 43c0 27.333 9.5 50.333 28.5 69s44.167 32.667 75.5 42s65.333 14 102 14c31.333 0 59 -4.5 83 -13.5
s43 -24.167 57 -45.5c22 20 46 34.833 72 44.5s52.667 14.5 80 14.5c43.333 0 80.166 -8.83301 110.499 -26.5s53.666 -41.667 69.999 -72s24.5 -64.833 24.5 -103.5c0 -7.33301 -0.333008 -14.833 -1 -22.5s-2 -14.5 -4 -20.5h-298c1.33301 -70 15.333 -121.333 42 -154
s64.334 -49 113.001 -49c31.333 0 57.166 5.33301 77.499 16s39.166 26.334 56.499 47.001l10 -9c-20.667 -36.667 -48.167 -65.334 -82.5 -86.001s-75.5 -31 -123.5 -31c-44.667 0 -84.334 9 -119.001 27s-62.334 44 -83.001 78c-32.667 -34 -62.167 -60 -88.5 -78
s-55.833 -27 -88.5 -27zM453.004 271.002l169.999 0.000976562c6 61.333 3.16699 110.833 -8.5 148.5s-34.5 56.5 -68.5 56.5c-16 0 -31 -5.83301 -45 -17.5s-25.167 -32.334 -33.5 -62.001s-13.166 -71.5 -14.499 -125.5zM227.003 46.0029
c13.333 0 28.667 4.00098 46 12.001s37.666 24.667 60.999 50c-9.33301 18 -16.333 38.167 -21 60.5s-7 45.833 -7 70.5v14c-11.333 -2.66699 -25.666 -5.33398 -42.999 -8.00098c-30.667 -8 -55.167 -21.5 -73.5 -40.5s-27.5 -44.5 -27.5 -76.5
c0 -27.333 6.33301 -47.833 19 -61.5s28 -20.5 46 -20.5z" />
    <glyph glyph-name="ccedilla" unicode="&#xe7;" horiz-adv-x="494" 
d="M268 -15c-45.333 0 -86.498 9.83008 -123.498 29.4971s-66.333 48.334 -88 86.001s-32.5 83.834 -32.5 138.501c0 54 11.833 100.167 35.5 138.5s55.334 67.666 95.001 87.999s83.167 30.5 130.5 30.5c38.667 0 71.334 -6.33301 98.001 -19s47 -29.167 61 -49.5
s21 -41.5 21 -63.5c0 -18.667 -5.66699 -33.167 -17 -43.5s-26 -15.5 -44 -15.5c-19.333 0 -35 7 -47 21s-19 32.333 -21 55c-0.666992 14.667 -0.333984 27.167 0.999023 37.5s1.33301 20.833 0 31.5c-2.66699 11.333 -6.83398 18.833 -12.501 22.5s-13.5 5.5 -23.5 5.5
c-40.667 0 -72.167 -17.667 -94.5 -53s-33.5 -91.666 -33.5 -168.999c0 -67.333 12.5 -118.833 37.5 -154.5s63.5 -53.5 115.5 -53.5c31.333 0 56.666 5.66699 75.999 17s38 28.333 56 51l10 -8c-16.667 -39.333 -42.334 -69.666 -77.001 -90.999s-75.667 -32 -123 -32z
M248.002 -85.0029l13 87.001h21l-6 -49c39.333 -4.66699 68.666 -14.667 87.999 -30s29 -34.333 29 -57c0 -24.667 -10.667 -45.334 -32 -62.001s-53.666 -25 -96.999 -25c-16 0 -29.833 1.16699 -41.5 3.5s-22.834 5.16602 -33.501 8.49902l4 17c19.333 -6 37 -9 53 -9
c18.667 0 33.167 5.5 43.5 16.5s15.5 26.167 15.5 45.5c0 16 -5.16699 28.333 -15.5 37s-24.166 14.334 -41.499 17.001z" />
    <glyph glyph-name="egrave" unicode="&#xe8;" horiz-adv-x="507" 
d="M271 496c43.333 0 80.334 -8.83301 111.001 -26.5s54.167 -41.667 70.5 -72s24.5 -64.833 24.5 -103.5c0 -7.33301 -0.333008 -14.833 -1 -22.5s-2 -14.5 -4 -20.5h-298c0.666992 -72 13.5 -123.833 38.5 -155.5s62.167 -47.5 111.5 -47.5c33.333 0 60.333 5.33301 81 16
s40 26.334 58 47.001l10 -9c-20.667 -36.667 -48.167 -65.334 -82.5 -86.001s-75.5 -31 -123.5 -31c-47.333 0 -89.333 10.167 -126 30.5s-65.334 49.5 -86.001 87.5s-31 83.333 -31 136c0 54.667 12 101.167 36 139.5s54.833 67.5 92.5 87.5s77.167 30 118.5 30z
M268.001 476c-19.333 0 -35.8311 -5.83203 -49.498 -17.499s-24.334 -32.334 -32.001 -62.001s-11.834 -71.5 -12.501 -125.5h171c6.66699 72.667 4 125 -8 157s-35 48 -69 48zM312.003 563.001l-51.501 39.5l-71.5 52.5c-20.667 14.667 -35.5 27.5 -44.5 38.5
s-13.5 22.833 -13.5 35.5c0 12 4.83301 22.167 14.5 30.5s20.834 12.5 33.501 12.5c13.333 0 25.5 -4.83301 36.5 -14.5s21.833 -25.167 32.5 -46.5l43 -79.5l33 -58.5z" />
    <glyph glyph-name="eacute" unicode="&#xe9;" horiz-adv-x="507" 
d="M271 496c43.333 0 80.334 -8.83301 111.001 -26.5s54.167 -41.667 70.5 -72s24.5 -64.833 24.5 -103.5c0 -7.33301 -0.333008 -14.833 -1 -22.5s-2 -14.5 -4 -20.5h-298c0.666992 -72 13.5 -123.833 38.5 -155.5s62.167 -47.5 111.5 -47.5c33.333 0 60.333 5.33301 81 16
s40 26.334 58 47.001l10 -9c-20.667 -36.667 -48.167 -65.334 -82.5 -86.001s-75.5 -31 -123.5 -31c-47.333 0 -89.333 10.167 -126 30.5s-65.334 49.5 -86.001 87.5s-31 83.333 -31 136c0 54.667 12 101.167 36 139.5s54.833 67.5 92.5 87.5s77.167 30 118.5 30z
M268.001 476c-19.333 0 -35.8311 -5.83203 -49.498 -17.499s-24.334 -32.334 -32.001 -62.001s-11.834 -71.5 -12.501 -125.5h171c6.66699 72.667 4 125 -8 157s-35 48 -69 48zM215.003 573.001l32.001 58.5l43 79.5c11.333 21.333 22.333 36.833 33 46.5s23 14.5 37 14.5
c12.667 0 23.667 -4.16699 33 -12.5s14 -18.5 14 -30.5c0 -12.667 -4.33301 -24.5 -13 -35.5s-23.334 -23.833 -44.001 -38.5c-28.667 -20 -52.667 -37.5 -72 -52.5l-52 -39.5z" />
    <glyph glyph-name="ecircumflex" unicode="&#xea;" horiz-adv-x="507" 
d="M271 496c43.333 0 80.334 -8.83301 111.001 -26.5s54.167 -41.667 70.5 -72s24.5 -64.833 24.5 -103.5c0 -7.33301 -0.333008 -14.833 -1 -22.5s-2 -14.5 -4 -20.5h-298c0.666992 -72 13.5 -123.833 38.5 -155.5s62.167 -47.5 111.5 -47.5c33.333 0 60.333 5.33301 81 16
s40 26.334 58 47.001l10 -9c-20.667 -36.667 -48.167 -65.334 -82.5 -86.001s-75.5 -31 -123.5 -31c-47.333 0 -89.333 10.167 -126 30.5s-65.334 49.5 -86.001 87.5s-31 83.333 -31 136c0 54.667 12 101.167 36 139.5s54.833 67.5 92.5 87.5s77.167 30 118.5 30z
M268.001 476c-19.333 0 -35.8311 -5.83203 -49.498 -17.499s-24.334 -32.334 -32.001 -62.001s-11.834 -71.5 -12.501 -125.5h171c6.66699 72.667 4 125 -8 157s-35 48 -69 48zM137.003 545.001l-13 12l142 194h14l142 -194l-13 -12l-136 106z" />
    <glyph glyph-name="edieresis" unicode="&#xeb;" horiz-adv-x="507" 
d="M271 496c43.333 0 80.334 -8.83301 111.001 -26.5s54.167 -41.667 70.5 -72s24.5 -64.833 24.5 -103.5c0 -7.33301 -0.333008 -14.833 -1 -22.5s-2 -14.5 -4 -20.5h-298c0.666992 -72 13.5 -123.833 38.5 -155.5s62.167 -47.5 111.5 -47.5c33.333 0 60.333 5.33301 81 16
s40 26.334 58 47.001l10 -9c-20.667 -36.667 -48.167 -65.334 -82.5 -86.001s-75.5 -31 -123.5 -31c-47.333 0 -89.333 10.167 -126 30.5s-65.334 49.5 -86.001 87.5s-31 83.333 -31 136c0 54.667 12 101.167 36 139.5s54.833 67.5 92.5 87.5s77.167 30 118.5 30z
M268.001 476c-19.333 0 -35.8311 -5.83203 -49.498 -17.499s-24.334 -32.334 -32.001 -62.001s-11.834 -71.5 -12.501 -125.5h171c6.66699 72.667 4 125 -8 157s-35 48 -69 48zM389.003 580.001c-18.667 0 -35.5 6.16699 -50.5 18.5s-22.5 29.166 -22.5 50.499
s7.5 38.166 22.5 50.499s31.833 18.5 50.5 18.5c20 0 37.167 -6.16699 51.5 -18.5s21.5 -29.166 21.5 -50.499s-7.16699 -38.166 -21.5 -50.499s-31.5 -18.5 -51.5 -18.5zM157.003 580.001c-19.333 0 -36.333 6.16699 -51 18.5s-22 29.166 -22 50.499
s7.33301 38.166 22 50.499s31.667 18.5 51 18.5s36.333 -6.16699 51 -18.5s22 -29.166 22 -50.499s-7.33301 -38.166 -22 -50.499s-31.667 -18.5 -51 -18.5z" />
    <glyph glyph-name="igrave" unicode="&#xec;" horiz-adv-x="280" 
d="M22 0l-0.00292969 10l14 4c13.333 4 22.333 10 27 18s7 18.667 7 32c0 23.333 0.166992 48.5 0.5 75.5s0.5 50.5 0.5 70.5v48c0 20.667 -0.166992 40.167 -0.5 58.5s-0.5 38.5 -0.5 60.5c-0.666992 14 -3.16699 24.5 -7.5 31.5s-13.166 11.833 -26.499 14.5l-14 3v10
l183 59l10 -10l-3 -142v-280c0.666992 -13.333 3.33398 -24 8.00098 -32s13.334 -14 26.001 -18l10 -3v-10h-234zM175.997 563l-51.501 39.5l-71.5 52.5c-20.667 14.667 -35.5 27.5 -44.5 38.5s-13.5 22.833 -13.5 35.5c0 12 4.83301 22.167 14.5 30.5
s20.834 12.5 33.501 12.5c13.333 0 25.5 -4.83301 36.5 -14.5s21.833 -25.167 32.5 -46.5l43 -79.5l33 -58.5z" />
    <glyph glyph-name="iacute" unicode="&#xed;" horiz-adv-x="280" 
d="M22 0l-0.00292969 10l14 4c13.333 4 22.333 10 27 18s7 18.667 7 32c0 23.333 0.166992 48.5 0.5 75.5s0.5 50.5 0.5 70.5v48c0 20.667 -0.166992 40.167 -0.5 58.5s-0.5 38.5 -0.5 60.5c-0.666992 14 -3.16699 24.5 -7.5 31.5s-13.166 11.833 -26.499 14.5l-14 3v10
l183 59l10 -10l-3 -142v-280c0.666992 -13.333 3.33398 -24 8.00098 -32s13.334 -14 26.001 -18l10 -3v-10h-234zM78.9971 573l32.001 58.5l43 79.5c11.333 21.333 22.333 36.833 33 46.5s23 14.5 37 14.5c12.667 0 23.667 -4.16699 33 -12.5s14 -18.5 14 -30.5
c0 -12.667 -4.33301 -24.5 -13 -35.5s-23.334 -23.833 -44.001 -38.5c-28.667 -20 -52.667 -37.5 -72 -52.5l-52 -39.5z" />
    <glyph glyph-name="icircumflex" unicode="&#xee;" horiz-adv-x="280" 
d="M22 0l-0.00292969 10l14 4c13.333 4 22.333 10 27 18s7 18.667 7 32c0 23.333 0.166992 48.5 0.5 75.5s0.5 50.5 0.5 70.5v48c0 20.667 -0.166992 40.167 -0.5 58.5s-0.5 38.5 -0.5 60.5c-0.666992 14 -3.16699 24.5 -7.5 31.5s-13.166 11.833 -26.499 14.5l-14 3v10
l183 59l10 -10l-3 -142v-280c0.666992 -13.333 3.33398 -24 8.00098 -32s13.334 -14 26.001 -18l10 -3v-10h-234zM0.99707 545l-13 12l142 194h14l142 -194l-13 -12l-136 106z" />
    <glyph glyph-name="idieresis" unicode="&#xef;" horiz-adv-x="280" 
d="M22 0l-0.00292969 10l14 4c13.333 4 22.333 10 27 18s7 18.667 7 32c0 23.333 0.166992 48.5 0.5 75.5s0.5 50.5 0.5 70.5v48c0 20.667 -0.166992 40.167 -0.5 58.5s-0.5 38.5 -0.5 60.5c-0.666992 14 -3.16699 24.5 -7.5 31.5s-13.166 11.833 -26.499 14.5l-14 3v10
l183 59l10 -10l-3 -142v-280c0.666992 -13.333 3.33398 -24 8.00098 -32s13.334 -14 26.001 -18l10 -3v-10h-234zM252.997 580c-18.667 0 -35.5 6.16699 -50.5 18.5s-22.5 29.166 -22.5 50.499s7.5 38.166 22.5 50.499s31.833 18.5 50.5 18.5
c20 0 37.167 -6.16699 51.5 -18.5s21.5 -29.166 21.5 -50.499s-7.16699 -38.166 -21.5 -50.499s-31.5 -18.5 -51.5 -18.5zM20.9971 580c-19.333 0 -36.333 6.16699 -51 18.5s-22 29.166 -22 50.499s7.33301 38.166 22 50.499s31.667 18.5 51 18.5s36.333 -6.16699 51 -18.5
s22 -29.166 22 -50.499s-7.33301 -38.166 -22 -50.499s-31.667 -18.5 -51 -18.5z" />
    <glyph glyph-name="eth" unicode="&#xf0;" horiz-adv-x="552" 
d="M267 -15c-38.667 0 -75.834 9.33203 -111.501 27.999s-65 46.834 -88 84.501s-34.5 84.5 -34.5 140.5c0 52 11.333 96 34 132s52 63.5 88 82.5s74.333 28.5 115 28.5c32.667 0 61.334 -9 86.001 -27c-14.667 59.333 -36.667 108.333 -66 147l-160 -77l-12 21l156 75
c-16.667 19.333 -36 37.166 -58 53.499s-47 32.5 -75 48.5l8 17c67.333 -22 127.333 -53 180 -93l145 70l12 -21l-136 -65c51.333 -43.333 92 -94.666 122 -153.999s45 -125 45 -197c0 -66 -11.167 -120.667 -33.5 -164s-52.5 -75.833 -90.5 -97.5s-80 -32.5 -126 -32.5z
M277 4.99902c33.333 0 57.667 20 73 60s23 98.667 23 176c0 72 -8.33301 126.667 -25 164s-40.334 56 -71.001 56c-62 0 -93 -76.333 -93 -229c0 -74 7.83301 -130.333 23.5 -169s38.834 -58 69.501 -58z" />
    <glyph glyph-name="ntilde" unicode="&#xf1;" horiz-adv-x="578" 
d="M20 0l0.000976562 10.001l14 4c23.333 6.66699 35 23 35 49v313c0 14.667 -2.33301 25.5 -7 32.5s-13.667 11.833 -27 14.5l-15 4v10l171 58l10 -10l8 -60c23.333 20.667 49.666 37.667 78.999 51s58.333 20 87 20c44 0 77.833 -12 101.5 -36s35.5 -60.667 35.5 -110
v-288c0 -26 12.667 -42.333 38 -49l9 -3v-10h-236v10l13 4c23.333 7.33301 35 23.666 35 48.999v319c0 42.667 -21.333 64 -64 64c-29.333 0 -61.333 -14.667 -96 -44v-340c0 -26 11.667 -42.333 35 -49l9 -3v-10h-235zM130.001 585.001
c5.33301 43.333 16.8311 77.001 34.498 101.001s39.834 36 66.501 36c17.333 0 31.5 -2.83301 42.5 -8.5s21.5 -12.834 31.5 -21.501l31.5 -28.5c10.333 -9 21.833 -13.5 34.5 -13.5c18 0 33.5 6 46.5 18s23.5 28.333 31.5 49l15 -5
c-5.33301 -42.667 -16.666 -76.334 -33.999 -101.001s-39.333 -37 -66 -37c-16.667 0 -31 2.83301 -43 8.5s-22.667 12.834 -32 21.501c-10 9.33301 -20.333 18.5 -31 27.5s-22.667 13.5 -36 13.5c-18 0 -33.333 -5.83301 -46 -17.5s-23 -27.5 -31 -47.5z" />
    <glyph glyph-name="ograve" unicode="&#xf2;" horiz-adv-x="545" 
d="M273 -15c-50.667 0 -94.668 10.5 -132.001 31.5s-66.166 50.833 -86.499 89.5s-30.5 84 -30.5 136s10.833 97 32.5 135s51.334 67.333 89.001 88s80.167 31 127.5 31s89.666 -10.167 126.999 -30.5s66.833 -49.5 88.5 -87.5s32.5 -83.333 32.5 -136
s-10.167 -98.167 -30.5 -136.5s-49 -68 -86 -89s-80.833 -31.5 -131.5 -31.5zM272.999 5c23.333 0 42 6.66699 56 20s24.167 37 30.5 71s9.5 82 9.5 144c0 62.667 -3.16699 111 -9.5 145s-16.5 57.667 -30.5 71s-32.667 20 -56 20s-42.166 -6.66699 -56.499 -20
s-24.666 -37 -30.999 -71s-9.5 -82.333 -9.5 -145c0 -62 3.16699 -110 9.5 -144s16.666 -57.667 30.999 -71s33.166 -20 56.499 -20zM311.999 563l-51.501 39.5l-71.5 52.5c-20.667 14.667 -35.5 27.5 -44.5 38.5s-13.5 22.833 -13.5 35.5c0 12 4.83301 22.167 14.5 30.5
s20.834 12.5 33.501 12.5c13.333 0 25.5 -4.83301 36.5 -14.5s21.833 -25.167 32.5 -46.5l43 -79.5l33 -58.5z" />
    <glyph glyph-name="oacute" unicode="&#xf3;" horiz-adv-x="545" 
d="M273 -15c-50.667 0 -94.668 10.5 -132.001 31.5s-66.166 50.833 -86.499 89.5s-30.5 84 -30.5 136s10.833 97 32.5 135s51.334 67.333 89.001 88s80.167 31 127.5 31s89.666 -10.167 126.999 -30.5s66.833 -49.5 88.5 -87.5s32.5 -83.333 32.5 -136
s-10.167 -98.167 -30.5 -136.5s-49 -68 -86 -89s-80.833 -31.5 -131.5 -31.5zM272.999 5c23.333 0 42 6.66699 56 20s24.167 37 30.5 71s9.5 82 9.5 144c0 62.667 -3.16699 111 -9.5 145s-16.5 57.667 -30.5 71s-32.667 20 -56 20s-42.166 -6.66699 -56.499 -20
s-24.666 -37 -30.999 -71s-9.5 -82.333 -9.5 -145c0 -62 3.16699 -110 9.5 -144s16.666 -57.667 30.999 -71s33.166 -20 56.499 -20zM214.999 573l32.001 58.5l43 79.5c11.333 21.333 22.333 36.833 33 46.5s23 14.5 37 14.5c12.667 0 23.667 -4.16699 33 -12.5
s14 -18.5 14 -30.5c0 -12.667 -4.33301 -24.5 -13 -35.5s-23.334 -23.833 -44.001 -38.5c-28.667 -20 -52.667 -37.5 -72 -52.5l-52 -39.5z" />
    <glyph glyph-name="ocircumflex" unicode="&#xf4;" horiz-adv-x="545" 
d="M273 -15c-50.667 0 -94.668 10.5 -132.001 31.5s-66.166 50.833 -86.499 89.5s-30.5 84 -30.5 136s10.833 97 32.5 135s51.334 67.333 89.001 88s80.167 31 127.5 31s89.666 -10.167 126.999 -30.5s66.833 -49.5 88.5 -87.5s32.5 -83.333 32.5 -136
s-10.167 -98.167 -30.5 -136.5s-49 -68 -86 -89s-80.833 -31.5 -131.5 -31.5zM272.999 5c23.333 0 42 6.66699 56 20s24.167 37 30.5 71s9.5 82 9.5 144c0 62.667 -3.16699 111 -9.5 145s-16.5 57.667 -30.5 71s-32.667 20 -56 20s-42.166 -6.66699 -56.499 -20
s-24.666 -37 -30.999 -71s-9.5 -82.333 -9.5 -145c0 -62 3.16699 -110 9.5 -144s16.666 -57.667 30.999 -71s33.166 -20 56.499 -20zM136.999 545l-13 12l142 194h14l142 -194l-13 -12l-136 106z" />
    <glyph glyph-name="otilde" unicode="&#xf5;" horiz-adv-x="545" 
d="M273 -15c-50.667 0 -94.668 10.5 -132.001 31.5s-66.166 50.833 -86.499 89.5s-30.5 84 -30.5 136s10.833 97 32.5 135s51.334 67.333 89.001 88s80.167 31 127.5 31s89.666 -10.167 126.999 -30.5s66.833 -49.5 88.5 -87.5s32.5 -83.333 32.5 -136
s-10.167 -98.167 -30.5 -136.5s-49 -68 -86 -89s-80.833 -31.5 -131.5 -31.5zM272.999 5c23.333 0 42 6.66699 56 20s24.167 37 30.5 71s9.5 82 9.5 144c0 62.667 -3.16699 111 -9.5 145s-16.5 57.667 -30.5 71s-32.667 20 -56 20s-42.166 -6.66699 -56.499 -20
s-24.666 -37 -30.999 -71s-9.5 -82.333 -9.5 -145c0 -62 3.16699 -110 9.5 -144s16.666 -57.667 30.999 -71s33.166 -20 56.499 -20zM105.999 585c5.33301 43.333 16.8311 77.001 34.498 101.001s39.834 36 66.501 36c17.333 0 31.5 -2.83301 42.5 -8.5
s21.5 -12.834 31.5 -21.501l31.5 -28.5c10.333 -9 21.833 -13.5 34.5 -13.5c18 0 33.5 6 46.5 18s23.5 28.333 31.5 49l15 -5c-5.33301 -42.667 -16.666 -76.334 -33.999 -101.001s-39.333 -37 -66 -37c-16.667 0 -31 2.83301 -43 8.5s-22.667 12.834 -32 21.501
c-10 9.33301 -20.333 18.5 -31 27.5s-22.667 13.5 -36 13.5c-18 0 -33.333 -5.83301 -46 -17.5s-23 -27.5 -31 -47.5z" />
    <glyph glyph-name="odieresis" unicode="&#xf6;" horiz-adv-x="545" 
d="M273 -15c-50.667 0 -94.668 10.5 -132.001 31.5s-66.166 50.833 -86.499 89.5s-30.5 84 -30.5 136s10.833 97 32.5 135s51.334 67.333 89.001 88s80.167 31 127.5 31s89.666 -10.167 126.999 -30.5s66.833 -49.5 88.5 -87.5s32.5 -83.333 32.5 -136
s-10.167 -98.167 -30.5 -136.5s-49 -68 -86 -89s-80.833 -31.5 -131.5 -31.5zM272.999 5c23.333 0 42 6.66699 56 20s24.167 37 30.5 71s9.5 82 9.5 144c0 62.667 -3.16699 111 -9.5 145s-16.5 57.667 -30.5 71s-32.667 20 -56 20s-42.166 -6.66699 -56.499 -20
s-24.666 -37 -30.999 -71s-9.5 -82.333 -9.5 -145c0 -62 3.16699 -110 9.5 -144s16.666 -57.667 30.999 -71s33.166 -20 56.499 -20zM388.999 580c-18.667 0 -35.5 6.16699 -50.5 18.5s-22.5 29.166 -22.5 50.499s7.5 38.166 22.5 50.499s31.833 18.5 50.5 18.5
c20 0 37.167 -6.16699 51.5 -18.5s21.5 -29.166 21.5 -50.499s-7.16699 -38.166 -21.5 -50.499s-31.5 -18.5 -51.5 -18.5zM156.999 580c-19.333 0 -36.333 6.16699 -51 18.5s-22 29.166 -22 50.499s7.33301 38.166 22 50.499s31.667 18.5 51 18.5s36.333 -6.16699 51 -18.5
s22 -29.166 22 -50.499s-7.33301 -38.166 -22 -50.499s-31.667 -18.5 -51 -18.5z" />
    <glyph glyph-name="divide" unicode="&#xf7;" horiz-adv-x="541" 
d="M271 443c-20.667 0 -38 6.66699 -52 20s-21 30 -21 50s7 36.5 21 49.5s31.333 19.5 52 19.5c20 0 37 -6.5 51 -19.5s21 -29.5 21 -49.5s-7 -36.667 -21 -50s-31 -20 -51 -20zM30 314v20h482v-20h-482zM271 66c-20.667 0 -38 6.66699 -52 20s-21 30 -21 50s7 36.667 21 50
s31.333 20 52 20c20 0 37 -6.66699 51 -20s21 -30 21 -50s-7 -36.667 -21 -50s-31 -20 -51 -20z" />
    <glyph glyph-name="oslash" unicode="&#xf8;" horiz-adv-x="561" 
d="M87 -23l-20.999 15.999l43 53c-24.667 22.667 -43.5 50.5 -56.5 83.5s-19.5 70.5 -19.5 112.5c0 52 10.833 97 32.5 135s51.167 67.333 88.5 88s79.666 31 126.999 31c58.667 0 109 -15.333 151 -46l43 54l20 -16l-43 -54c24 -22 42.833 -49.167 56.5 -81.5
s20.5 -69.166 20.5 -110.499c0 -52.667 -10.167 -98.167 -30.5 -136.5s-49 -68 -86 -89s-80.833 -31.5 -131.5 -31.5c-60 0 -110.667 15 -152 45zM179.001 239.999c0 -39.333 1.66699 -72.668 5 -100.001l189 237c-6.66699 36 -17.667 61.5 -33 76.5s-35 22.5 -59 22.5
s-43.5 -7.16699 -58.5 -21.5s-26 -38.666 -33 -72.999s-10.5 -81.5 -10.5 -141.5zM281.001 4.99707c24 0 43.5 7.16895 58.5 21.502s26 38.666 33 72.999s10.5 81.166 10.5 140.499c0 40 -1.66699 74 -5 102l-189 -238c6.66699 -36 17.667 -61.5 33 -76.5s35 -22.5 59 -22.5
z" />
    <glyph glyph-name="ugrave" unicode="&#xf9;" horiz-adv-x="567" 
d="M201 -15c-26 0 -49.835 5 -71.502 15s-38.667 26.167 -51 48.5s-18.166 51.833 -17.499 88.5l3 257c0 15.333 -2.66699 26.333 -8 33s-13.666 11.334 -24.999 14.001l-12 4v10l179 35l10 -10l-5 -142v-241c0 -21.333 6.16699 -37 18.5 -47s27.833 -15 46.5 -15
s35.334 2.66699 50.001 8s29.334 13.333 44.001 24l4 326c0 15.333 -2.33301 26.166 -7 32.499s-13.334 10.833 -26.001 13.5l-10 3v10l175 38l10 -10l-3 -142v-271c0 -14.667 2 -26 6 -34s12.667 -14.667 26 -20l10 -3v-10l-175 -10l-9 59
c-22 -18 -45.833 -33.167 -71.5 -45.5s-55.834 -18.5 -90.501 -18.5zM320.998 563l-51.501 39.5l-71.5 52.5c-20.667 14.667 -35.5 27.5 -44.5 38.5s-13.5 22.833 -13.5 35.5c0 12 4.83301 22.167 14.5 30.5s20.834 12.5 33.501 12.5c13.333 0 25.5 -4.83301 36.5 -14.5
s21.833 -25.167 32.5 -46.5l43 -79.5l33 -58.5z" />
    <glyph glyph-name="uacute" unicode="&#xfa;" horiz-adv-x="567" 
d="M201 -15c-26 0 -49.835 5 -71.502 15s-38.667 26.167 -51 48.5s-18.166 51.833 -17.499 88.5l3 257c0 15.333 -2.66699 26.333 -8 33s-13.666 11.334 -24.999 14.001l-12 4v10l179 35l10 -10l-5 -142v-241c0 -21.333 6.16699 -37 18.5 -47s27.833 -15 46.5 -15
s35.334 2.66699 50.001 8s29.334 13.333 44.001 24l4 326c0 15.333 -2.33301 26.166 -7 32.499s-13.334 10.833 -26.001 13.5l-10 3v10l175 38l10 -10l-3 -142v-271c0 -14.667 2 -26 6 -34s12.667 -14.667 26 -20l10 -3v-10l-175 -10l-9 59
c-22 -18 -45.833 -33.167 -71.5 -45.5s-55.834 -18.5 -90.501 -18.5zM223.998 573l32.001 58.5l43 79.5c11.333 21.333 22.333 36.833 33 46.5s23 14.5 37 14.5c12.667 0 23.667 -4.16699 33 -12.5s14 -18.5 14 -30.5c0 -12.667 -4.33301 -24.5 -13 -35.5
s-23.334 -23.833 -44.001 -38.5c-28.667 -20 -52.667 -37.5 -72 -52.5l-52 -39.5z" />
    <glyph glyph-name="ucircumflex" unicode="&#xfb;" horiz-adv-x="567" 
d="M201 -15c-26 0 -49.835 5 -71.502 15s-38.667 26.167 -51 48.5s-18.166 51.833 -17.499 88.5l3 257c0 15.333 -2.66699 26.333 -8 33s-13.666 11.334 -24.999 14.001l-12 4v10l179 35l10 -10l-5 -142v-241c0 -21.333 6.16699 -37 18.5 -47s27.833 -15 46.5 -15
s35.334 2.66699 50.001 8s29.334 13.333 44.001 24l4 326c0 15.333 -2.33301 26.166 -7 32.499s-13.334 10.833 -26.001 13.5l-10 3v10l175 38l10 -10l-3 -142v-271c0 -14.667 2 -26 6 -34s12.667 -14.667 26 -20l10 -3v-10l-175 -10l-9 59
c-22 -18 -45.833 -33.167 -71.5 -45.5s-55.834 -18.5 -90.501 -18.5zM145.998 545l-13 12l142 194h14l142 -194l-13 -12l-136 106z" />
    <glyph glyph-name="udieresis" unicode="&#xfc;" horiz-adv-x="567" 
d="M201 -15c-26 0 -49.835 5 -71.502 15s-38.667 26.167 -51 48.5s-18.166 51.833 -17.499 88.5l3 257c0 15.333 -2.66699 26.333 -8 33s-13.666 11.334 -24.999 14.001l-12 4v10l179 35l10 -10l-5 -142v-241c0 -21.333 6.16699 -37 18.5 -47s27.833 -15 46.5 -15
s35.334 2.66699 50.001 8s29.334 13.333 44.001 24l4 326c0 15.333 -2.33301 26.166 -7 32.499s-13.334 10.833 -26.001 13.5l-10 3v10l175 38l10 -10l-3 -142v-271c0 -14.667 2 -26 6 -34s12.667 -14.667 26 -20l10 -3v-10l-175 -10l-9 59
c-22 -18 -45.833 -33.167 -71.5 -45.5s-55.834 -18.5 -90.501 -18.5zM397.998 580c-18.667 0 -35.5 6.16699 -50.5 18.5s-22.5 29.166 -22.5 50.499s7.5 38.166 22.5 50.499s31.833 18.5 50.5 18.5c20 0 37.167 -6.16699 51.5 -18.5s21.5 -29.166 21.5 -50.499
s-7.16699 -38.166 -21.5 -50.499s-31.5 -18.5 -51.5 -18.5zM165.998 580c-19.333 0 -36.333 6.16699 -51 18.5s-22 29.166 -22 50.499s7.33301 38.166 22 50.499s31.667 18.5 51 18.5s36.333 -6.16699 51 -18.5s22 -29.166 22 -50.499s-7.33301 -38.166 -22 -50.499
s-31.667 -18.5 -51 -18.5z" />
    <glyph glyph-name="yacute" unicode="&#xfd;" horiz-adv-x="536" 
d="M112 -240c-26.667 0 -47.835 6.66797 -63.502 20.001s-23.5 30.333 -23.5 51c0 18.667 6.66699 33.667 20 45s28.333 17 45 17s30.667 -3.5 42 -10.5s21.333 -17.167 30 -30.5l7 -8c14.667 -20 29.334 -19.667 44.001 1c6 10 12.833 23.167 20.5 39.5
s16.5 38.166 26.5 65.499l-194 464c-4.66699 12.667 -9.66699 22.834 -15 30.501s-14 14.167 -26 19.5l-18 7v10h249v-9l-20 -8c-14.667 -4.66699 -22.167 -12.167 -22.5 -22.5s2.16699 -23.166 7.5 -38.499l104 -270l99 273c5.33301 15.333 7.33301 28.166 6 38.499
s-9.66602 17.5 -24.999 21.5l-21 5v10h139v-10l-22 -7c-15.333 -4.66699 -26 -11.334 -32 -20.001s-11.667 -20.667 -17 -36l-161 -439c-26 -70 -52 -122.333 -78 -157s-59.667 -52 -101 -52zM239.999 573.001l32.001 58.5l43 79.5c11.333 21.333 22.333 36.833 33 46.5
s23 14.5 37 14.5c12.667 0 23.667 -4.16699 33 -12.5s14 -18.5 14 -30.5c0 -12.667 -4.33301 -24.5 -13 -35.5s-23.334 -23.833 -44.001 -38.5c-28.667 -20 -52.667 -37.5 -72 -52.5l-52 -39.5z" />
    <glyph glyph-name="thorn" unicode="&#xfe;" horiz-adv-x="580" 
d="M22 -230l-0.000976562 10.001l8 2c26 6.66699 39.333 23 40 49c0.666992 30 1.16699 58.167 1.5 84.5s0.5 51.5 0.5 75.5v622c0 26.667 -12.667 43.667 -38 51l-11 3v10l183 43l12 -9l-4 -140v-114c22 12 46.5 21.5 73.5 28.5s53.833 10.5 80.5 10.5
c57.333 0 103 -21.833 137 -65.5s51 -106.167 51 -187.5c0 -80 -18.667 -143 -56 -189s-89.666 -69 -156.999 -69c-53.333 0 -97.333 7.66699 -132 23v-24c0 -20.667 0.166992 -43.5 0.5 -68.5s0.5 -52.167 0.5 -81.5c1.33301 -26.667 14.333 -43.334 39 -50.001l14 -4v-10
h-243zM294.999 14.001c34 0 60.832 17.332 80.499 51.999s29.5 92.334 29.5 173.001s-9.33301 137.167 -28 169.5s-45.667 48.5 -81 48.5c-25.333 0 -52.666 -8 -81.999 -24v-403c25.333 -10.667 52.333 -16 81 -16z" />
    <glyph glyph-name="ydieresis" unicode="&#xff;" horiz-adv-x="536" 
d="M112 -240c-26.667 0 -47.835 6.66797 -63.502 20.001s-23.5 30.333 -23.5 51c0 18.667 6.66699 33.667 20 45s28.333 17 45 17s30.667 -3.5 42 -10.5s21.333 -17.167 30 -30.5l7 -8c14.667 -20 29.334 -19.667 44.001 1c6 10 12.833 23.167 20.5 39.5
s16.5 38.166 26.5 65.499l-194 464c-4.66699 12.667 -9.66699 22.834 -15 30.501s-14 14.167 -26 19.5l-18 7v10h249v-9l-20 -8c-14.667 -4.66699 -22.167 -12.167 -22.5 -22.5s2.16699 -23.166 7.5 -38.499l104 -270l99 273c5.33301 15.333 7.33301 28.166 6 38.499
s-9.66602 17.5 -24.999 21.5l-21 5v10h139v-10l-22 -7c-15.333 -4.66699 -26 -11.334 -32 -20.001s-11.667 -20.667 -17 -36l-161 -439c-26 -70 -52 -122.333 -78 -157s-59.667 -52 -101 -52zM413.999 580.001c-18.667 0 -35.5 6.16699 -50.5 18.5
s-22.5 29.166 -22.5 50.499s7.5 38.166 22.5 50.499s31.833 18.5 50.5 18.5c20 0 37.167 -6.16699 51.5 -18.5s21.5 -29.166 21.5 -50.499s-7.16699 -38.166 -21.5 -50.499s-31.5 -18.5 -51.5 -18.5zM181.999 580.001c-19.333 0 -36.333 6.16699 -51 18.5
s-22 29.166 -22 50.499s7.33301 38.166 22 50.499s31.667 18.5 51 18.5s36.333 -6.16699 51 -18.5s22 -29.166 22 -50.499s-7.33301 -38.166 -22 -50.499s-31.667 -18.5 -51 -18.5z" />
    <glyph glyph-name="Amacron" unicode="&#x100;" horiz-adv-x="650" 
d="M8 0l0.000976562 10.002l25 9c13.333 5.33301 23.666 11.833 30.999 19.5s13.333 18.5 18 32.5l206 591h85l203 -595c5.33301 -14.667 11.333 -25.834 18 -33.501s17 -14.167 31 -19.5l12 -4v-10h-254v10l15 5c14 5.33301 22.5 12.833 25.5 22.5s2.5 21.167 -1.5 34.5
l-47 144h-222l-48 -141c-4.66699 -14.667 -6.16699 -26.334 -4.5 -35.001s9.5 -15.667 23.5 -21l22 -9v-10h-138zM160.001 236.002h209l-101 311zM157.001 768.002v25h316v-25h-316z" />
    <glyph glyph-name="amacron" unicode="&#x101;" horiz-adv-x="518" 
d="M166 -15c-38.667 0 -71.166 11.001 -97.499 33.001s-39.5 53.667 -39.5 95c0 31.333 16 60.166 48 86.499s82.333 46.166 151 59.499l36 6.5l42 7.5v79c0 45.333 -5.5 77.166 -16.5 95.499s-28.167 27.5 -51.5 27.5c-16 0 -28.667 -5.16699 -38 -15.5
s-15.333 -28.166 -18 -53.499l-2 -11c-1.33301 -28.667 -8.33301 -49.667 -21 -63s-28.334 -20 -47.001 -20c-17.333 0 -31.666 5.33301 -42.999 16s-17 25 -17 43c0 27.333 9.5 50.333 28.5 69s44.167 32.667 75.5 42s65.333 14 102 14
c59.333 0 105.166 -14.5 137.499 -43.5s48.5 -76.167 48.5 -141.5v-221c0 -30 14 -45 42 -45h22l9 -8c-12.667 -16 -26.5 -28.333 -41.5 -37s-36.167 -13 -63.5 -13c-29.333 0 -52.5 6.83301 -69.5 20.5s-28.167 31.834 -33.5 54.501c-20 -21.333 -40.5 -39.5 -61.5 -54.5
s-48.167 -22.5 -81.5 -22.5zM227.001 46.001c13.333 0 25.834 3.16699 37.501 9.5s25.5 16.166 41.5 29.499v168l-20 -4c-6.66699 -1.33301 -14.334 -2.66602 -23.001 -3.99902c-30.667 -8 -55.167 -21.5 -73.5 -40.5s-27.5 -44.5 -27.5 -76.5
c0 -27.333 6.33301 -47.833 19 -61.5s28 -20.5 46 -20.5zM102.002 617.001v22h306v-22h-306z" />
    <glyph glyph-name="Abreve" unicode="&#x102;" horiz-adv-x="650" 
d="M8 0l0.000976562 10.002l25 9c13.333 5.33301 23.666 11.833 30.999 19.5s13.333 18.5 18 32.5l206 591h85l203 -595c5.33301 -14.667 11.333 -25.834 18 -33.501s17 -14.167 31 -19.5l12 -4v-10h-254v10l15 5c14 5.33301 22.5 12.833 25.5 22.5s2.5 21.167 -1.5 34.5
l-47 144h-222l-48 -141c-4.66699 -14.667 -6.16699 -26.334 -4.5 -35.001s9.5 -15.667 23.5 -21l22 -9v-10h-138zM160.001 236.002h209l-101 311zM315.001 713.002c-27.333 0 -51.501 6.5 -72.501 19.5s-37.667 30 -50 51s-19.833 43.833 -22.5 68.5l12 5
c11.333 -20.667 28.666 -37.167 51.999 -49.5s50.333 -18.5 81 -18.5s57.834 6.16699 81.501 18.5s40.834 28.833 51.501 49.5l12 -5c-2.66699 -24.667 -10.167 -47.5 -22.5 -68.5s-28.833 -38 -49.5 -51s-45 -19.5 -73 -19.5z" />
    <glyph glyph-name="abreve" unicode="&#x103;" horiz-adv-x="518" 
d="M166 -15c-38.667 0 -71.166 11.001 -97.499 33.001s-39.5 53.667 -39.5 95c0 31.333 16 60.166 48 86.499s82.333 46.166 151 59.499l36 6.5l42 7.5v79c0 45.333 -5.5 77.166 -16.5 95.499s-28.167 27.5 -51.5 27.5c-16 0 -28.667 -5.16699 -38 -15.5
s-15.333 -28.166 -18 -53.499l-2 -11c-1.33301 -28.667 -8.33301 -49.667 -21 -63s-28.334 -20 -47.001 -20c-17.333 0 -31.666 5.33301 -42.999 16s-17 25 -17 43c0 27.333 9.5 50.333 28.5 69s44.167 32.667 75.5 42s65.333 14 102 14
c59.333 0 105.166 -14.5 137.499 -43.5s48.5 -76.167 48.5 -141.5v-221c0 -30 14 -45 42 -45h22l9 -8c-12.667 -16 -26.5 -28.333 -41.5 -37s-36.167 -13 -63.5 -13c-29.333 0 -52.5 6.83301 -69.5 20.5s-28.167 31.834 -33.5 54.501c-20 -21.333 -40.5 -39.5 -61.5 -54.5
s-48.167 -22.5 -81.5 -22.5zM227.001 46.001c13.333 0 25.834 3.16699 37.501 9.5s25.5 16.166 41.5 29.499v168l-20 -4c-6.66699 -1.33301 -14.334 -2.66602 -23.001 -3.99902c-30.667 -8 -55.167 -21.5 -73.5 -40.5s-27.5 -44.5 -27.5 -76.5
c0 -27.333 6.33301 -47.833 19 -61.5s28 -20.5 46 -20.5zM255.002 568.001c-34 0 -61.667 8 -83 24s-37.333 36.167 -48 60.5s-17 48.166 -19 71.499l19 7c11.333 -23.333 27.5 -43.166 48.5 -59.499s48.5 -24.5 82.5 -24.5s61.5 8.16699 82.5 24.5
s37.167 36.166 48.5 59.499l19 -7c-2 -23.333 -8.33301 -47.166 -19 -71.499s-26.5 -44.5 -47.5 -60.5s-48.833 -24 -83.5 -24z" />
    <glyph glyph-name="Aogonek" unicode="&#x104;" horiz-adv-x="650" 
d="M8 0l0.000976562 10.002l25 9c13.333 5.33301 23.666 11.833 30.999 19.5s13.333 18.5 18 32.5l206 591h85l203 -595c5.33301 -14.667 11.333 -25.834 18 -33.501s17 -14.167 31 -19.5l12 -4v-10h-254v10l15 5c14 5.33301 22.5 12.833 25.5 22.5s2.5 21.167 -1.5 34.5
l-47 144h-222l-48 -141c-4.66699 -14.667 -6.16699 -26.334 -4.5 -35.001s9.5 -15.667 23.5 -21l22 -9v-10h-138zM160.001 236.002h209l-101 311zM529.001 -223.998c-30.667 0 -55.5 8.00098 -74.5 24.001s-28.5 37.667 -28.5 65c0 21.333 6.83301 41.666 20.5 60.999
s31 36.333 52 51s41.833 25.667 62.5 33h17c-20.667 -12.667 -37.167 -28.5 -49.5 -47.5s-18.5 -39.167 -18.5 -60.5s7 -38.666 21 -51.999s32 -20 54 -20c12.667 0 24.334 2.16699 35.001 6.5s20 8.83301 28 13.5l7 -11c-14.667 -16.667 -32.834 -31.334 -54.501 -44.001
s-45.5 -19 -71.5 -19z" />
    <glyph glyph-name="aogonek" unicode="&#x105;" horiz-adv-x="518" 
d="M166 -15c-38.667 0 -71.166 11.001 -97.499 33.001s-39.5 53.667 -39.5 95c0 31.333 16 60.166 48 86.499s82.333 46.166 151 59.499l36 6.5l42 7.5v79c0 45.333 -5.5 77.166 -16.5 95.499s-28.167 27.5 -51.5 27.5c-16 0 -28.667 -5.16699 -38 -15.5
s-15.333 -28.166 -18 -53.499l-2 -11c-1.33301 -28.667 -8.33301 -49.667 -21 -63s-28.334 -20 -47.001 -20c-17.333 0 -31.666 5.33301 -42.999 16s-17 25 -17 43c0 27.333 9.5 50.333 28.5 69s44.167 32.667 75.5 42s65.333 14 102 14
c59.333 0 105.166 -14.5 137.499 -43.5s48.5 -76.167 48.5 -141.5v-221c0 -30 14 -45 42 -45h22l9 -8c-12.667 -16 -26.5 -28.333 -41.5 -37s-36.167 -13 -63.5 -13c-29.333 0 -52.5 6.83301 -69.5 20.5s-28.167 31.834 -33.5 54.501c-20 -21.333 -40.5 -39.5 -61.5 -54.5
s-48.167 -22.5 -81.5 -22.5zM227.001 46.001c13.333 0 25.834 3.16699 37.501 9.5s25.5 16.166 41.5 29.499v168l-20 -4c-6.66699 -1.33301 -14.334 -2.66602 -23.001 -3.99902c-30.667 -8 -55.167 -21.5 -73.5 -40.5s-27.5 -44.5 -27.5 -76.5
c0 -27.333 6.33301 -47.833 19 -61.5s28 -20.5 46 -20.5zM449.002 -217.999c-30.667 0 -55.5 8.00098 -74.5 24.001s-28.5 37.667 -28.5 65c0 21.333 6.83301 41.666 20.5 60.999s31 36.333 52 51s41.833 25.667 62.5 33h17c-20.667 -12.667 -37.167 -28.5 -49.5 -47.5
s-18.5 -39.167 -18.5 -60.5s7 -38.666 21 -51.999s32 -20 54 -20c12.667 0 24.334 2.16699 35.001 6.5s20 8.83301 28 13.5l7 -11c-14.667 -16.667 -32.834 -31.334 -54.501 -44.001s-45.5 -19 -71.5 -19z" />
    <glyph glyph-name="Cacute" unicode="&#x106;" horiz-adv-x="603" 
d="M366 -18c-64.667 0 -123.165 13.1729 -175.498 39.5059s-93.833 65.5 -124.5 117.5s-46 115.667 -46 191c0 57.333 9.33301 107.666 28 150.999s44.167 79.666 76.5 108.999s69.666 51.333 111.999 66s87.166 22 134.499 22c38 0 73 -4.33301 105 -13s62 -20.667 90 -36
l4 -123h-10l-50 80c-6.66699 12.667 -14 24.167 -22 34.5s-18 18.166 -30 23.499c-10 4.66699 -19.833 8.16699 -29.5 10.5s-21.834 3.5 -36.501 3.5c-38.667 0 -73.834 -10.333 -105.501 -31s-57 -54.834 -76 -102.501s-28.5 -112.834 -28.5 -195.501
c0 -82 9 -146.833 27 -194.5s42.5 -81.667 73.5 -102s65.833 -30.5 104.5 -30.5c21.333 0 38.333 1.5 51 4.5s25.334 7.5 38.001 13.5c12.667 5.33301 22.334 13.166 29.001 23.499s12.667 21.5 18 33.5l44 98h10l-3 -143c-28 -14.667 -59.333 -26.667 -94 -36
s-72.667 -14 -114 -14zM274.002 725.006l51.999 53.5l50 52.5c16.667 18 30.167 30 40.5 36s20.5 9 30.5 9c12.667 0 22.834 -3.83301 30.501 -11.5s11.5 -17.167 11.5 -28.5c0 -21.333 -20.667 -41.333 -62 -60l-71.5 -31l-71.5 -32z" />
    <glyph glyph-name="cacute" unicode="&#x107;" horiz-adv-x="494" 
d="M268 -15c-45.333 0 -86.498 9.83008 -123.498 29.4971s-66.333 48.334 -88 86.001s-32.5 83.834 -32.5 138.501c0 54 11.833 100.167 35.5 138.5s55.334 67.666 95.001 87.999s83.167 30.5 130.5 30.5c38.667 0 71.334 -6.33301 98.001 -19s47 -29.167 61 -49.5
s21 -41.5 21 -63.5c0 -18.667 -5.66699 -33.167 -17 -43.5s-26 -15.5 -44 -15.5c-19.333 0 -35 7 -47 21s-19 32.333 -21 55c-0.666992 14.667 -0.333984 27.167 0.999023 37.5s1.33301 20.833 0 31.5c-2.66699 11.333 -6.83398 18.833 -12.501 22.5s-13.5 5.5 -23.5 5.5
c-40.667 0 -72.167 -17.667 -94.5 -53s-33.5 -91.666 -33.5 -168.999c0 -67.333 12.5 -118.833 37.5 -154.5s63.5 -53.5 115.5 -53.5c31.333 0 56.666 5.66699 75.999 17s38 28.333 56 51l10 -8c-16.667 -39.333 -42.334 -69.666 -77.001 -90.999s-75.667 -32 -123 -32z
M219.002 572.997l32.001 58.5l43 79.5c11.333 21.333 22.333 36.833 33 46.5s23 14.5 37 14.5c12.667 0 23.667 -4.16699 33 -12.5s14 -18.5 14 -30.5c0 -12.667 -4.33301 -24.5 -13 -35.5s-23.334 -23.833 -44.001 -38.5c-28.667 -20 -52.667 -37.5 -72 -52.5l-52 -39.5z
" />
    <glyph glyph-name="Ccaron" unicode="&#x10c;" horiz-adv-x="603" 
d="M366 -18c-64.667 0 -123.165 13.1729 -175.498 39.5059s-93.833 65.5 -124.5 117.5s-46 115.667 -46 191c0 57.333 9.33301 107.666 28 150.999s44.167 79.666 76.5 108.999s69.666 51.333 111.999 66s87.166 22 134.499 22c38 0 73 -4.33301 105 -13s62 -20.667 90 -36
l4 -123h-10l-50 80c-6.66699 12.667 -14 24.167 -22 34.5s-18 18.166 -30 23.499c-10 4.66699 -19.833 8.16699 -29.5 10.5s-21.834 3.5 -36.501 3.5c-38.667 0 -73.834 -10.333 -105.501 -31s-57 -54.834 -76 -102.501s-28.5 -112.834 -28.5 -195.501
c0 -82 9 -146.833 27 -194.5s42.5 -81.667 73.5 -102s65.833 -30.5 104.5 -30.5c21.333 0 38.333 1.5 51 4.5s25.334 7.5 38.001 13.5c12.667 5.33301 22.334 13.166 29.001 23.499s12.667 21.5 18 33.5l44 98h10l-3 -143c-28 -14.667 -59.333 -26.667 -94 -36
s-72.667 -14 -114 -14zM343.002 717.006l-151 154l10 12l148 -82l148 82l10 -12l-151 -154h-14z" />
    <glyph glyph-name="ccaron" unicode="&#x10d;" horiz-adv-x="494" 
d="M268 -15c-45.333 0 -86.498 9.83008 -123.498 29.4971s-66.333 48.334 -88 86.001s-32.5 83.834 -32.5 138.501c0 54 11.833 100.167 35.5 138.5s55.334 67.666 95.001 87.999s83.167 30.5 130.5 30.5c38.667 0 71.334 -6.33301 98.001 -19s47 -29.167 61 -49.5
s21 -41.5 21 -63.5c0 -18.667 -5.66699 -33.167 -17 -43.5s-26 -15.5 -44 -15.5c-19.333 0 -35 7 -47 21s-19 32.333 -21 55c-0.666992 14.667 -0.333984 27.167 0.999023 37.5s1.33301 20.833 0 31.5c-2.66699 11.333 -6.83398 18.833 -12.501 22.5s-13.5 5.5 -23.5 5.5
c-40.667 0 -72.167 -17.667 -94.5 -53s-33.5 -91.666 -33.5 -168.999c0 -67.333 12.5 -118.833 37.5 -154.5s63.5 -53.5 115.5 -53.5c31.333 0 56.666 5.66699 75.999 17s38 28.333 56 51l10 -8c-16.667 -39.333 -42.334 -69.666 -77.001 -90.999s-75.667 -32 -123 -32z
M265.002 566.997l-135 178l13 11l134 -100l134 100l13 -11l-135 -178h-24z" />
    <glyph glyph-name="Dcaron" unicode="&#x10e;" horiz-adv-x="648" 
d="M22 0l0.000976562 10l21 8c21.333 8.66699 32 25.667 32 51v522c0 26.667 -10.667 43.667 -32 51l-21 8v10h264c70.667 0 131.5 -13.167 182.5 -39.5s90.333 -64 118 -113s41.5 -107.833 41.5 -176.5c0 -70 -15 -129.667 -45 -179s-71.833 -87 -125.5 -113
s-116.834 -39 -189.501 -39h-246zM225.001 20h43.002c48 0 86.667 9.5 116 28.5s50.833 51 64.5 96s20.5 106.833 20.5 185.5s-6.83301 140.5 -20.5 185.5s-34.834 77 -63.501 96s-66.334 28.5 -113.001 28.5h-47v-620zM275.003 717l-151 154l10 12l148 -82l148 82l10 -12
l-151 -154h-14z" />
    <glyph glyph-name="dcaron" unicode="&#x10f;" horiz-adv-x="608" 
d="M575 510l-6.00098 10c18 16 32.333 32.333 43 49s18.667 36.334 24 59.001l-15 2c-16.667 3.33301 -29.834 10.166 -39.501 20.499s-14.5 22.833 -14.5 37.5c0 16.667 5.33301 30.334 16 41.001s24.334 16 41.001 16c18.667 0 33.334 -6.16699 44.001 -18.5
s15.667 -29.5 15 -51.5c-0.666992 -36.667 -10.5 -68.334 -29.5 -95.001s-45.167 -50 -78.5 -70zM231.999 -15c-39.333 0 -74.668 8.83008 -106.001 26.4971s-56.166 45 -74.499 82s-27.5 84.5 -27.5 142.5c0 58.667 10.333 107.167 31 145.5s48 67 82 86s71 28.5 111 28.5
c23.333 0 45.666 -2.33301 66.999 -7s40.333 -11.667 57 -21v130c0 14 -2.16699 24.333 -6.5 31s-13.5 11.334 -27.5 14.001l-19 4v10l182 44l11 -9l-4 -140v-489c0 -13.333 2.33301 -24.166 7 -32.499s13.334 -14.166 26.001 -17.499l9 -3v-10l-171 -11l-9 36
c-18 -12 -38.5 -21.667 -61.5 -29s-48.5 -11 -76.5 -11zM289.997 21.9971c28 0 53.667 8.33203 77 24.999v397c-24.667 16 -50 24 -76 24c-32 0 -59.333 -18.5 -82 -55.5s-34 -95.167 -34 -174.5s10.667 -135.166 32 -167.499s49 -48.5 83 -48.5z" />
    <glyph glyph-name="Dcroat" unicode="&#x110;" horiz-adv-x="648" 
d="M22 0l0.000976562 10l21 8c21.333 8.66699 32 25.667 32 51v256h-40v27h40v239c0 26.667 -10.667 43.667 -32 51l-21 8v10h264c70.667 0 131.5 -13.167 182.5 -39.5s90.333 -64 118 -113s41.5 -107.833 41.5 -176.5c0 -70 -15 -129.667 -45 -179s-71.833 -87 -125.5 -113
s-116.834 -39 -189.501 -39h-246zM225.001 20h43.002c48 0 86.667 9.5 116 28.5s50.833 51 64.5 96s20.5 106.833 20.5 185.5s-6.83301 140.5 -20.5 185.5s-34.834 77 -63.501 96s-66.334 28.5 -113.001 28.5h-47v-288h167v-27h-167v-305z" />
    <glyph glyph-name="dcroat" unicode="&#x111;" horiz-adv-x="574" 
d="M232 -15c-39.333 0 -74.668 8.83008 -106.001 26.4971s-56.166 45 -74.499 82s-27.5 84.5 -27.5 142.5c0 58.667 10.333 107.167 31 145.5s48 67 82 86s71 28.5 111 28.5c23.333 0 45.666 -2.33301 66.999 -7s40.333 -11.667 57 -21v88h-167v20h167v22
c0 14 -2.16699 24.333 -6.5 31s-13.5 11.334 -27.5 14.001l-19 4v10l182 44l11 -9l-3 -116h64v-20h-65v-4v-489c0 -13.333 2.33301 -24.166 7 -32.499s13.334 -14.166 26.001 -17.499l9 -3v-10l-171 -11l-9 36c-18 -12 -38.5 -21.667 -61.5 -29s-48.5 -11 -76.5 -11z
M289.998 21.9971c28 0 53.667 8.33203 77 24.999v397c-24.667 16 -50 24 -76 24c-32 0 -59.333 -18.5 -82 -55.5s-34 -95.167 -34 -174.5s10.667 -135.166 32 -167.499s49 -48.5 83 -48.5z" />
    <glyph glyph-name="Emacron" unicode="&#x112;" horiz-adv-x="555" 
d="M22 0l0.00292969 9.99805l23 9c11.333 4.66699 19.166 10.834 23.499 18.501s6.5 18.167 6.5 31.5v522c0 13.333 -1.83301 23.833 -5.5 31.5s-11.834 13.834 -24.501 18.501l-23 9v10h479l6 -154h-10l-43 94c-6 12 -12.333 21.667 -19 29s-16.667 11 -30 11h-180v-289
h107c13.333 0 23.5 3.5 30.5 10.5s13.167 16.5 18.5 28.5l20 40h10v-180h-10l-20 42c-6 12 -12.333 21.5 -19 28.5s-16.667 10.5 -30 10.5h-107v-311h202c13.333 0 23.666 3.5 30.999 10.5s13.333 16.833 18 29.5l41 94h10l-6 -154h-499zM118.003 767.998v25h316v-25h-316z
" />
    <glyph glyph-name="emacron" unicode="&#x113;" horiz-adv-x="507" 
d="M271 496c43.333 0 80.334 -8.83301 111.001 -26.5s54.167 -41.667 70.5 -72s24.5 -64.833 24.5 -103.5c0 -7.33301 -0.333008 -14.833 -1 -22.5s-2 -14.5 -4 -20.5h-298c0.666992 -72 13.5 -123.833 38.5 -155.5s62.167 -47.5 111.5 -47.5c33.333 0 60.333 5.33301 81 16
s40 26.334 58 47.001l10 -9c-20.667 -36.667 -48.167 -65.334 -82.5 -86.001s-75.5 -31 -123.5 -31c-47.333 0 -89.333 10.167 -126 30.5s-65.334 49.5 -86.001 87.5s-31 83.333 -31 136c0 54.667 12 101.167 36 139.5s54.833 67.5 92.5 87.5s77.167 30 118.5 30z
M268.001 476c-19.333 0 -35.8311 -5.83203 -49.498 -17.499s-24.334 -32.334 -32.001 -62.001s-11.834 -71.5 -12.501 -125.5h171c6.66699 72.667 4 125 -8 157s-35 48 -69 48zM120.003 617.001v22h306v-22h-306z" />
    <glyph glyph-name="Edotaccent" unicode="&#x116;" horiz-adv-x="555" 
d="M22 0l0.00292969 9.99805l23 9c11.333 4.66699 19.166 10.834 23.499 18.501s6.5 18.167 6.5 31.5v522c0 13.333 -1.83301 23.833 -5.5 31.5s-11.834 13.834 -24.501 18.501l-23 9v10h479l6 -154h-10l-43 94c-6 12 -12.333 21.667 -19 29s-16.667 11 -30 11h-180v-289
h107c13.333 0 23.5 3.5 30.5 10.5s13.167 16.5 18.5 28.5l20 40h10v-180h-10l-20 42c-6 12 -12.333 21.5 -19 28.5s-16.667 10.5 -30 10.5h-107v-311h202c13.333 0 23.666 3.5 30.999 10.5s13.333 16.833 18 29.5l41 94h10l-6 -154h-499zM276.003 715.998
c-22.667 0 -41.834 7 -57.501 21s-23.5 32 -23.5 54c0 22.667 7.83301 41 23.5 55s34.834 21 57.501 21s41.834 -7 57.501 -21s23.5 -32.333 23.5 -55c0 -22 -7.83301 -40 -23.5 -54s-34.834 -21 -57.501 -21z" />
    <glyph glyph-name="edotaccent" unicode="&#x117;" horiz-adv-x="507" 
d="M271 496c43.333 0 80.334 -8.83301 111.001 -26.5s54.167 -41.667 70.5 -72s24.5 -64.833 24.5 -103.5c0 -7.33301 -0.333008 -14.833 -1 -22.5s-2 -14.5 -4 -20.5h-298c0.666992 -72 13.5 -123.833 38.5 -155.5s62.167 -47.5 111.5 -47.5c33.333 0 60.333 5.33301 81 16
s40 26.334 58 47.001l10 -9c-20.667 -36.667 -48.167 -65.334 -82.5 -86.001s-75.5 -31 -123.5 -31c-47.333 0 -89.333 10.167 -126 30.5s-65.334 49.5 -86.001 87.5s-31 83.333 -31 136c0 54.667 12 101.167 36 139.5s54.833 67.5 92.5 87.5s77.167 30 118.5 30z
M268.001 476c-19.333 0 -35.8311 -5.83203 -49.498 -17.499s-24.334 -32.334 -32.001 -62.001s-11.834 -71.5 -12.501 -125.5h171c6.66699 72.667 4 125 -8 157s-35 48 -69 48zM273.003 574.001c-22.667 0 -41.834 7.16699 -57.501 21.5s-23.5 32.5 -23.5 54.5
s7.83301 40.167 23.5 54.5s34.834 21.5 57.501 21.5s41.834 -7.16699 57.501 -21.5s23.5 -32.5 23.5 -54.5s-7.83301 -40.167 -23.5 -54.5s-34.834 -21.5 -57.501 -21.5z" />
    <glyph glyph-name="Eogonek" unicode="&#x118;" horiz-adv-x="597" 
d="M22 0l0.00292969 9.99805l23 9c11.333 4.66699 19.166 10.834 23.499 18.501s6.5 18.167 6.5 31.5v522c0 13.333 -1.83301 23.833 -5.5 31.5s-11.834 13.834 -24.501 18.501l-23 9v10h479l6 -154h-10l-43 94c-6 12 -12.333 21.667 -19 29s-16.667 11 -30 11h-180v-289
h107c13.333 0 23.5 3.5 30.5 10.5s13.167 16.5 18.5 28.5l20 40h10v-180h-10l-20 42c-6 12 -12.333 21.5 -19 28.5s-16.667 10.5 -30 10.5h-107v-311h202c13.333 0 23.666 3.5 30.999 10.5s13.333 16.833 18 29.5l41 94h10l-6 -154h-499zM457.003 -224.002
c-30.667 0 -55.5 8.00098 -74.5 24.001s-28.5 37.667 -28.5 65c0 21.333 6.83301 41.666 20.5 60.999s31 36.333 52 51s41.833 25.667 62.5 33h17c-20.667 -12.667 -37.167 -28.5 -49.5 -47.5s-18.5 -39.167 -18.5 -60.5s7 -38.666 21 -51.999s32 -20 54 -20
c12.667 0 24.334 2.16699 35.001 6.5s20 8.83301 28 13.5l7 -11c-14.667 -16.667 -32.834 -31.334 -54.501 -44.001s-45.5 -19 -71.5 -19z" />
    <glyph glyph-name="eogonek" unicode="&#x119;" horiz-adv-x="507" 
d="M271 496c43.333 0 80.334 -8.83301 111.001 -26.5s54.167 -41.667 70.5 -72s24.5 -64.833 24.5 -103.5c0 -7.33301 -0.333008 -14.833 -1 -22.5s-2 -14.5 -4 -20.5h-298c0.666992 -72 13.5 -123.833 38.5 -155.5s62.167 -47.5 111.5 -47.5c33.333 0 60.333 5.33301 81 16
s40 26.334 58 47.001l10 -9c-20.667 -36.667 -48.167 -65.334 -82.5 -86.001s-75.5 -31 -123.5 -31c-47.333 0 -89.333 10.167 -126 30.5s-65.334 49.5 -86.001 87.5s-31 83.333 -31 136c0 54.667 12 101.167 36 139.5s54.833 67.5 92.5 87.5s77.167 30 118.5 30z
M268.001 476c-19.333 0 -35.8311 -5.83203 -49.498 -17.499s-24.334 -32.334 -32.001 -62.001s-11.834 -71.5 -12.501 -125.5h171c6.66699 72.667 4 125 -8 157s-35 48 -69 48zM330.003 -223.999c-30.667 0 -55.5 8.00098 -74.5 24.001s-28.5 37.667 -28.5 65
c0 21.333 6.83301 41.666 20.5 60.999s31 36.333 52 51s41.833 25.667 62.5 33h17c-20.667 -12.667 -37.167 -28.5 -49.5 -47.5s-18.5 -39.167 -18.5 -60.5s7 -38.666 21 -51.999s32 -20 54 -20c12.667 0 24.334 2.16699 35.001 6.5s20 8.83301 28 13.5l7 -11
c-14.667 -16.667 -32.834 -31.334 -54.501 -44.001s-45.5 -19 -71.5 -19z" />
    <glyph glyph-name="Ecaron" unicode="&#x11a;" horiz-adv-x="555" 
d="M22 0l0.00292969 9.99805l23 9c11.333 4.66699 19.166 10.834 23.499 18.501s6.5 18.167 6.5 31.5v522c0 13.333 -1.83301 23.833 -5.5 31.5s-11.834 13.834 -24.501 18.501l-23 9v10h479l6 -154h-10l-43 94c-6 12 -12.333 21.667 -19 29s-16.667 11 -30 11h-180v-289
h107c13.333 0 23.5 3.5 30.5 10.5s13.167 16.5 18.5 28.5l20 40h10v-180h-10l-20 42c-6 12 -12.333 21.5 -19 28.5s-16.667 10.5 -30 10.5h-107v-311h202c13.333 0 23.666 3.5 30.999 10.5s13.333 16.833 18 29.5l41 94h10l-6 -154h-499zM269.003 716.998l-151 154l10 12
l148 -82l148 82l10 -12l-151 -154h-14z" />
    <glyph glyph-name="ecaron" unicode="&#x11b;" horiz-adv-x="507" 
d="M271 496c43.333 0 80.334 -8.83301 111.001 -26.5s54.167 -41.667 70.5 -72s24.5 -64.833 24.5 -103.5c0 -7.33301 -0.333008 -14.833 -1 -22.5s-2 -14.5 -4 -20.5h-298c0.666992 -72 13.5 -123.833 38.5 -155.5s62.167 -47.5 111.5 -47.5c33.333 0 60.333 5.33301 81 16
s40 26.334 58 47.001l10 -9c-20.667 -36.667 -48.167 -65.334 -82.5 -86.001s-75.5 -31 -123.5 -31c-47.333 0 -89.333 10.167 -126 30.5s-65.334 49.5 -86.001 87.5s-31 83.333 -31 136c0 54.667 12 101.167 36 139.5s54.833 67.5 92.5 87.5s77.167 30 118.5 30z
M268.001 476c-19.333 0 -35.8311 -5.83203 -49.498 -17.499s-24.334 -32.334 -32.001 -62.001s-11.834 -71.5 -12.501 -125.5h171c6.66699 72.667 4 125 -8 157s-35 48 -69 48zM261.003 567.001l-135 178l13 11l134 -100l134 100l13 -11l-135 -178h-24z" />
    <glyph glyph-name="Gbreve" unicode="&#x11e;" horiz-adv-x="656" 
d="M364 -18c-68 0 -127.83 14.1689 -179.497 42.502s-92 68.666 -121 120.999s-43.5 114.166 -43.5 185.499c0 69.333 14.333 130 43 182s70.167 92.5 124.5 121.5s120.166 43.5 197.499 43.5c35.333 0 68.166 -4 98.499 -12s59.166 -19.667 86.499 -35l4 -140h-10l-56 104
c-8.66699 16.667 -16.667 28.667 -24 36s-16.666 13 -27.999 17c-10.667 3.33301 -20.5 5.83301 -29.5 7.5s-20.833 2.5 -35.5 2.5c-41.333 0 -77.833 -11 -109.5 -33s-56.167 -57 -73.5 -105s-26 -111 -26 -189c0 -77.333 8.16699 -140.333 24.5 -189
s39.5 -84.167 69.5 -106.5s64.667 -33.5 104 -33.5c6 0 11.833 0.5 17.5 1.5s11.167 2.16699 16.5 3.5c12.667 2 21 7.33301 25 16s6 19 6 31v198c0 26 -13.333 42 -40 48l-46 12v10h282v-10l-14 -4c-25.333 -8 -38 -24.667 -38 -50v-217
c-34.667 -19.333 -69.834 -34 -105.501 -44s-75.5 -15 -119.5 -15zM359.003 713.002c-27.333 0 -51.501 6.5 -72.501 19.5s-37.667 30 -50 51s-19.833 43.833 -22.5 68.5l12 5c11.333 -20.667 28.666 -37.167 51.999 -49.5s50.333 -18.5 81 -18.5
s57.834 6.16699 81.501 18.5s40.834 28.833 51.501 49.5l12 -5c-2.66699 -24.667 -10.167 -47.5 -22.5 -68.5s-28.833 -38 -49.5 -51s-45 -19.5 -73 -19.5z" />
    <glyph glyph-name="gbreve" unicode="&#x11f;" horiz-adv-x="531" 
d="M238 173c-46 0 -85 7.66992 -117 23.0029v-34c0 -20.667 10.333 -33 31 -37l188 -35c31.333 -6 59.666 -13.833 84.999 -23.5s45.666 -23.334 60.999 -41.001s23 -41.834 23 -72.501c0 -32.667 -10.667 -62.834 -32 -90.501s-52.833 -50 -94.5 -67
s-93.5 -25.5 -155.5 -25.5c-53.333 0 -95.666 5.5 -126.999 16.5s-53.5 25.167 -66.5 42.5s-19.5 35.666 -19.5 54.999c0 24 8.16699 48.167 24.5 72.5s36.5 43.833 60.5 58.5c-20.667 8 -35.667 18.333 -45 31s-14 26.334 -14 41.001c0 13.333 3.5 25.833 10.5 37.5
s15.5 23.5 25.5 35.5l33 42c-48.667 28 -73 72 -73 132c0 48 17.167 87 51.5 117s84.833 45 151.5 45c34 0 63.833 -4 89.5 -12s46.834 -19.333 63.501 -34c21.333 3.33301 41.5 8.83301 60.5 16.5s36.167 18.167 51.5 31.5l14 -10v-51h-113c24 -26.667 36 -61 36 -103
c0 -46.667 -17.167 -85.167 -51.5 -115.5s-84.833 -45.5 -151.5 -45.5zM237 193.003c26.667 0 46.167 10.999 58.5 32.999s18.5 58.667 18.5 110s-6.16699 87.5 -18.5 108.5s-31.166 31.5 -56.499 31.5c-24.667 0 -43.334 -10.833 -56.001 -32.5s-19 -58.167 -19 -109.5
s5.83301 -87.666 17.5 -108.999s30.167 -32 55.5 -32zM88 -83.998c0 -39.333 12.168 -69 36.501 -89s62.833 -30 115.5 -30c55.333 0 97 9 125 27s42 43.333 42 76c0 18.667 -6.83301 33.667 -20.5 45s-36.834 20 -69.501 26l-181 34l-16 4
c-9.33301 -13.333 -17 -28.5 -23 -45.5s-9 -32.833 -9 -47.5zM255.001 568.002c-34 0 -61.667 8 -83 24s-37.333 36.167 -48 60.5s-17 48.166 -19 71.499l19 7c11.333 -23.333 27.5 -43.166 48.5 -59.499s48.5 -24.5 82.5 -24.5s61.5 8.16699 82.5 24.5
s37.167 36.166 48.5 59.499l19 -7c-2 -23.333 -8.33301 -47.166 -19 -71.499s-26.5 -44.5 -47.5 -60.5s-48.833 -24 -83.5 -24z" />
    <glyph glyph-name="uni0122" unicode="&#x122;" horiz-adv-x="656" 
d="M364 -18c-68 0 -127.83 14.1689 -179.497 42.502s-92 68.666 -121 120.999s-43.5 114.166 -43.5 185.499c0 69.333 14.333 130 43 182s70.167 92.5 124.5 121.5s120.166 43.5 197.499 43.5c35.333 0 68.166 -4 98.499 -12s59.166 -19.667 86.499 -35l4 -140h-10l-56 104
c-8.66699 16.667 -16.667 28.667 -24 36s-16.666 13 -27.999 17c-10.667 3.33301 -20.5 5.83301 -29.5 7.5s-20.833 2.5 -35.5 2.5c-41.333 0 -77.833 -11 -109.5 -33s-56.167 -57 -73.5 -105s-26 -111 -26 -189c0 -77.333 8.16699 -140.333 24.5 -189
s39.5 -84.167 69.5 -106.5s64.667 -33.5 104 -33.5c6 0 11.833 0.5 17.5 1.5s11.167 2.16699 16.5 3.5c12.667 2 21 7.33301 25 16s6 19 6 31v198c0 26 -13.333 42 -40 48l-46 12v10h282v-10l-14 -4c-25.333 -8 -38 -24.667 -38 -50v-217
c-34.667 -19.333 -69.834 -34 -105.501 -44s-75.5 -15 -119.5 -15zM305.003 -264.998l-3.00195 11.001c23.333 9.33301 41.833 19.166 55.5 29.499s23.834 23.833 30.501 40.5c-23.333 1.33301 -41.666 8.16602 -54.999 20.499s-20 27.833 -20 46.5s6.66699 34 20 46
s29.333 18 48 18c22.667 0 40 -6.33301 52 -19s18 -30 18 -52c0 -22.667 -6.66699 -43.167 -20 -61.5s-31 -34.166 -53 -47.499s-46.333 -24 -73 -32z" />
    <glyph glyph-name="uni0123" unicode="&#x123;" horiz-adv-x="531" 
d="M252 568c-21.333 0 -38.333 6.50195 -51 19.502s-19 29.833 -19 50.5c0 23.333 6.83301 44.166 20.5 62.499s31.5 34.333 53.5 48s46 24.5 72 32.5l6 -16c-19.333 -8.66699 -35.333 -17.5 -48 -26.5s-23.667 -21.5 -33 -37.5c20.667 -4 37 -12.833 49 -26.5
s18 -28.834 18 -45.501s-6.5 -31 -19.5 -43s-29.167 -18 -48.5 -18zM238 173.002c-46 0 -85 7.66992 -117 23.0029v-34c0 -20.667 10.333 -33 31 -37l188 -35c31.333 -6 59.666 -13.833 84.999 -23.5s45.666 -23.334 60.999 -41.001s23 -41.834 23 -72.501
c0 -32.667 -10.667 -62.834 -32 -90.501s-52.833 -50 -94.5 -67s-93.5 -25.5 -155.5 -25.5c-53.333 0 -95.666 5.5 -126.999 16.5s-53.5 25.167 -66.5 42.5s-19.5 35.666 -19.5 54.999c0 24 8.16699 48.167 24.5 72.5s36.5 43.833 60.5 58.5
c-20.667 8 -35.667 18.333 -45 31s-14 26.334 -14 41.001c0 13.333 3.5 25.833 10.5 37.5s15.5 23.5 25.5 35.5l33 42c-48.667 28 -73 72 -73 132c0 48 17.167 87 51.5 117s84.833 45 151.5 45c34 0 63.833 -4 89.5 -12s46.834 -19.333 63.501 -34
c21.333 3.33301 41.5 8.83301 60.5 16.5s36.167 18.167 51.5 31.5l14 -10v-51h-113c24 -26.667 36 -61 36 -103c0 -46.667 -17.167 -85.167 -51.5 -115.5s-84.833 -45.5 -151.5 -45.5zM237 193.005c26.667 0 46.167 10.999 58.5 32.999s18.5 58.667 18.5 110
s-6.16699 87.5 -18.5 108.5s-31.166 31.5 -56.499 31.5c-24.667 0 -43.334 -10.833 -56.001 -32.5s-19 -58.167 -19 -109.5s5.83301 -87.666 17.5 -108.999s30.167 -32 55.5 -32zM88 -83.9961c0 -39.333 12.168 -69 36.501 -89s62.833 -30 115.5 -30c55.333 0 97 9 125 27
s42 43.333 42 76c0 18.667 -6.83301 33.667 -20.5 45s-36.834 20 -69.501 26l-181 34l-16 4c-9.33301 -13.333 -17 -28.5 -23 -45.5s-9 -32.833 -9 -47.5z" />
    <glyph glyph-name="Imacron" unicode="&#x12a;" horiz-adv-x="301" 
d="M22 0l0.000976562 10l20 8c13.333 4.66699 22.166 11 26.499 19s6.5 18.667 6.5 32v522c0 13.333 -2 24 -6 32s-13 14.333 -27 19l-20 8v10h257v-10l-20 -8c-13.333 -4.66699 -22.166 -11 -26.499 -19s-6.5 -18.667 -6.5 -32v-522c0 -13.333 2.16699 -23.833 6.5 -31.5
s13.166 -14.167 26.499 -19.5l20 -8v-10h-257zM-6.99902 768v25h316v-25h-316z" />
    <glyph glyph-name="imacron" unicode="&#x12b;" horiz-adv-x="280" 
d="M22 0l-0.00292969 10l14 4c13.333 4 22.333 10 27 18s7 18.667 7 32c0 23.333 0.166992 48.5 0.5 75.5s0.5 50.5 0.5 70.5v48c0 20.667 -0.166992 40.167 -0.5 58.5s-0.5 38.5 -0.5 60.5c-0.666992 14 -3.16699 24.5 -7.5 31.5s-13.166 11.833 -26.499 14.5l-14 3v10
l183 59l10 -10l-3 -142v-280c0.666992 -13.333 3.33398 -24 8.00098 -32s13.334 -14 26.001 -18l10 -3v-10h-234zM-16.0029 617v22h306v-22h-306z" />
    <glyph glyph-name="Iogonek" unicode="&#x12e;" horiz-adv-x="301" 
d="M22 0l0.000976562 10l20 8c13.333 4.66699 22.166 11 26.499 19s6.5 18.667 6.5 32v522c0 13.333 -2 24 -6 32s-13 14.333 -27 19l-20 8v10h257v-10l-20 -8c-13.333 -4.66699 -22.166 -11 -26.499 -19s-6.5 -18.667 -6.5 -32v-522c0 -13.333 2.16699 -23.833 6.5 -31.5
s13.166 -14.167 26.499 -19.5l20 -8v-10h-257zM180.001 -224c-30.667 0 -55.5 8.00098 -74.5 24.001s-28.5 37.667 -28.5 65c0 21.333 6.83301 41.666 20.5 60.999s31 36.333 52 51s41.833 25.667 62.5 33h17c-20.667 -12.667 -37.167 -28.5 -49.5 -47.5
s-18.5 -39.167 -18.5 -60.5s7 -38.666 21 -51.999s32 -20 54 -20c12.667 0 24.334 2.16699 35.001 6.5s20 8.83301 28 13.5l7 -11c-14.667 -16.667 -32.834 -31.334 -54.501 -44.001s-45.5 -19 -71.5 -19z" />
    <glyph glyph-name="iogonek" unicode="&#x12f;" horiz-adv-x="280" 
d="M140 548c-22.667 0 -41.834 7.16699 -57.501 21.5s-23.5 32.5 -23.5 54.5c0 22.667 7.83301 41 23.5 55s34.834 21 57.501 21s41.667 -7 57 -21s23 -32.333 23 -55c0 -22 -7.66699 -40.167 -23 -54.5s-34.333 -21.5 -57 -21.5zM22 0v10l14 4c13.333 4 22.5 10 27.5 18
s7.5 18.667 7.5 32v313c0 14 -2.5 24.5 -7.5 31.5s-14.167 11.833 -27.5 14.5l-14 3v10l183 59l10 -10l-3 -142v-280c0 -13.333 2.5 -24 7.5 -32s13.833 -14 26.5 -18l10 -3v-10h-234zM158 -224c-30.667 0 -55.5 8.00098 -74.5 24.001s-28.5 37.667 -28.5 65
c0 21.333 6.83301 41.666 20.5 60.999s31 36.333 52 51s41.833 25.667 62.5 33h17c-20.667 -12.667 -37.167 -28.5 -49.5 -47.5s-18.5 -39.167 -18.5 -60.5s7 -38.666 21 -51.999s32 -20 54 -20c12.667 0 24.334 2.16699 35.001 6.5s20 8.83301 28 13.5l7 -11
c-14.667 -16.667 -32.834 -31.334 -54.501 -44.001s-45.5 -19 -71.5 -19z" />
    <glyph glyph-name="Idotaccent" unicode="&#x130;" horiz-adv-x="301" 
d="M22 0l0.000976562 10l20 8c13.333 4.66699 22.166 11 26.499 19s6.5 18.667 6.5 32v522c0 13.333 -2 24 -6 32s-13 14.333 -27 19l-20 8v10h257v-10l-20 -8c-13.333 -4.66699 -22.166 -11 -26.499 -19s-6.5 -18.667 -6.5 -32v-522c0 -13.333 2.16699 -23.833 6.5 -31.5
s13.166 -14.167 26.499 -19.5l20 -8v-10h-257zM151.001 716c-22.667 0 -41.834 7 -57.501 21s-23.5 32 -23.5 54c0 22.667 7.83301 41 23.5 55s34.834 21 57.501 21s41.834 -7 57.501 -21s23.5 -32.333 23.5 -55c0 -22 -7.83301 -40 -23.5 -54s-34.834 -21 -57.501 -21z" />
    <glyph glyph-name="dotlessi" unicode="&#x131;" horiz-adv-x="280" 
d="M22 0l-0.00292969 10l14 4c13.333 4 22.333 10 27 18s7 18.667 7 32c0 23.333 0.166992 48.5 0.5 75.5s0.5 50.5 0.5 70.5v48c0 20.667 -0.166992 40.167 -0.5 58.5s-0.5 38.5 -0.5 60.5c-0.666992 14 -3.16699 24.5 -7.5 31.5s-13.166 11.833 -26.499 14.5l-14 3v10
l183 59l10 -10l-3 -142v-280c0.666992 -13.333 3.33398 -24 8.00098 -32s13.334 -14 26.001 -18l10 -3v-10h-234z" />
    <glyph glyph-name="uni0136" unicode="&#x136;" horiz-adv-x="654" 
d="M22 0v9.99902l21 8c13.333 4.66699 22 11 26 19s6 18.333 6 31v523c0 13.333 -2 24 -6 32s-12.667 14.333 -26 19l-21 8v10h249v-10l-22 -9c-11.333 -4 -19 -10 -23 -18s-6 -19 -6 -33v-523c0 -13.333 2.16699 -23.666 6.5 -30.999s12.833 -13.333 25.5 -18l19 -8v-10
h-249zM391 -0.000976562l0.000976562 9.99902l13 4c13.333 4 20.333 10.667 21 20s-3.33301 20 -12 32l-192 273l253 258c9.33301 9.33301 14.5 18.333 15.5 27s-5.5 15.334 -19.5 20.001l-17 6v10h146v-10l-26 -8c-14.667 -4.66699 -26.334 -10.334 -35.001 -17.001
s-18.667 -15.667 -30 -27l-179 -183l235 -343c10 -14.667 19.5 -26.667 28.5 -36s21.833 -16.666 38.5 -21.999l14 -4v-10h-254zM254.001 -265.002l-3.00195 11.001c23.333 9.33301 41.833 19.166 55.5 29.499s23.834 23.833 30.501 40.5
c-23.333 1.33301 -41.666 8.16602 -54.999 20.499s-20 27.833 -20 46.5s6.66699 34 20 46s29.333 18 48 18c22.667 0 40 -6.33301 52 -19s18 -30 18 -52c0 -22.667 -6.66699 -43.167 -20 -61.5s-31 -34.166 -53 -47.499s-46.333 -24 -73 -32z" />
    <glyph glyph-name="uni0137" unicode="&#x137;" horiz-adv-x="582" 
d="M22 0l-0.000976562 10.002l15 5c22.667 7.33301 34 23.666 34 48.999v535c0 13.333 -2.66699 23.333 -8 30s-14.666 12 -27.999 16l-13 3v10l183 43l12 -9l-3 -140v-488c0 -26.667 11 -43.334 33 -50.001l14 -4v-10h-239zM392.999 0.00195312l-178.002 249.999l185 171
c8.66699 8 13.834 16.5 15.501 25.5s-4.16602 15.5 -17.499 19.5l-17 5v10h149v-10l-30 -8c-14.667 -4.66699 -26.5 -10.167 -35.5 -16.5s-19.833 -15.166 -32.5 -26.499l-112 -105l179 -249c10.667 -14.667 20.667 -26 30 -34s21.333 -14.667 36 -20l4 -2v-10h-176z
M231.997 -264.999l-3.00195 11.001c23.333 9.33301 41.833 19.166 55.5 29.499s23.834 23.833 30.501 40.5c-23.333 1.33301 -41.666 8.16602 -54.999 20.499s-20 27.833 -20 46.5s6.66699 34 20 46s29.333 18 48 18c22.667 0 40 -6.33301 52 -19s18 -30 18 -52
c0 -22.667 -6.66699 -43.167 -20 -61.5s-31 -34.166 -53 -47.499s-46.333 -24 -73 -32z" />
    <glyph glyph-name="Lacute" unicode="&#x139;" horiz-adv-x="540" 
d="M22 0l-0.000976562 9.99902l21 8c14 5.33301 22.833 11.833 26.5 19.5s5.5 18.167 5.5 31.5v522c0 13.333 -2 24 -6 32s-12.667 14.333 -26 19l-21 8v10h255v-10l-18 -8c-12.667 -4.66699 -21.334 -11.167 -26.001 -19.5s-7 -19.166 -7 -32.499v-570h154
c24.667 0 42.834 6 54.501 18s22.834 29.333 33.501 52l39 84h10l-9 -174h-486zM80.999 724.999l51.999 53.5l50 52.5c16.667 18 30.167 30 40.5 36s20.5 9 30.5 9c12.667 0 22.834 -3.83301 30.501 -11.5s11.5 -17.167 11.5 -28.5c0 -21.333 -20.667 -41.333 -62 -60
l-71.5 -31l-71.5 -32z" />
    <glyph glyph-name="lacute" unicode="&#x13a;" horiz-adv-x="286" 
d="M23 0l-0.000976562 9.99902l12 4c24 8 36 24.667 36 50v535c0 13.333 -2.66699 23.5 -8 30.5s-14.666 12.167 -27.999 15.5l-13 3v10l183 43l12 -9l-4 -140v-342c0 -24.667 0.166992 -49.167 0.5 -73.5s0.5 -48.5 0.5 -72.5c0 -13.333 2.66699 -24.166 8 -32.499
s14.333 -14.5 27 -18.5l13 -3v-10h-239zM38.999 764.999l51.999 53.5l50 52.5c16.667 18 30.167 30 40.5 36s20.5 9 30.5 9c12.667 0 22.834 -3.83301 30.501 -11.5s11.5 -17.167 11.5 -28.5c0 -21.333 -20.667 -41.333 -62 -60l-71.5 -31l-71.5 -32z" />
    <glyph glyph-name="uni013B" unicode="&#x13b;" horiz-adv-x="540" 
d="M22 0l-0.000976562 9.99902l21 8c14 5.33301 22.833 11.833 26.5 19.5s5.5 18.167 5.5 31.5v522c0 13.333 -2 24 -6 32s-12.667 14.333 -26 19l-21 8v10h255v-10l-18 -8c-12.667 -4.66699 -21.334 -11.167 -26.001 -19.5s-7 -19.166 -7 -32.499v-570h154
c24.667 0 42.834 6 54.501 18s22.834 29.333 33.501 52l39 84h10l-9 -174h-486zM197.999 -265.001l-3.00195 11.001c23.333 9.33301 41.833 19.166 55.5 29.499s23.834 23.833 30.501 40.5c-23.333 1.33301 -41.666 8.16602 -54.999 20.499s-20 27.833 -20 46.5
s6.66699 34 20 46s29.333 18 48 18c22.667 0 40 -6.33301 52 -19s18 -30 18 -52c0 -22.667 -6.66699 -43.167 -20 -61.5s-31 -34.166 -53 -47.499s-46.333 -24 -73 -32z" />
    <glyph glyph-name="uni013C" unicode="&#x13c;" horiz-adv-x="286" 
d="M23 0l-0.000976562 9.99902l12 4c24 8 36 24.667 36 50v535c0 13.333 -2.66699 23.5 -8 30.5s-14.666 12.167 -27.999 15.5l-13 3v10l183 43l12 -9l-4 -140v-342c0 -24.667 0.166992 -49.167 0.5 -73.5s0.5 -48.5 0.5 -72.5c0 -13.333 2.66699 -24.166 8 -32.499
s14.333 -14.5 27 -18.5l13 -3v-10h-239zM71.999 -265.001l-3.00195 11.001c23.333 9.33301 41.833 19.166 55.5 29.499s23.834 23.833 30.501 40.5c-23.333 1.33301 -41.666 8.16602 -54.999 20.499s-20 27.833 -20 46.5s6.66699 34 20 46s29.333 18 48 18
c22.667 0 40 -6.33301 52 -19s18 -30 18 -52c0 -22.667 -6.66699 -43.167 -20 -61.5s-31 -34.166 -53 -47.499s-46.333 -24 -73 -32z" />
    <glyph glyph-name="Lcaron" unicode="&#x13d;" horiz-adv-x="584" 
d="M429 444l-7.99805 13.999c20.667 12.667 38.334 28.167 53.001 46.5s25.334 41.833 32.001 70.5l-17 4c-18.667 5.33301 -33.834 14 -45.501 26s-17.5 26 -17.5 42c0 17.333 5.66699 32.333 17 45s26.333 19 45 19c21.333 0 38.666 -7.5 51.999 -22.5
s20 -35.167 20 -60.5c0 -24.667 -5.83301 -49 -17.5 -73s-27.334 -45.667 -47.001 -65s-41.834 -34.666 -66.501 -45.999zM22.002 -0.000976562l-0.000976562 9.99902l21 8c14 5.33301 22.833 11.833 26.5 19.5s5.5 18.167 5.5 31.5v522c0 13.333 -2 24 -6 32
s-12.667 14.333 -26 19l-21 8v10h255v-10l-18 -8c-12.667 -4.66699 -21.334 -11.167 -26.001 -19.5s-7 -19.166 -7 -32.499v-570h154c24.667 0 42.834 6 54.501 18s22.834 29.333 33.501 52l39 84h10l-9 -174h-486z" />
    <glyph glyph-name="lcaron" unicode="&#x13e;" horiz-adv-x="328" 
d="M276 510l-13.0029 19.001c16.667 12.667 31.334 27 44.001 43s22.334 34.667 29.001 56l-14 2c-16.667 3.33301 -29.834 10.166 -39.501 20.499s-14.5 22.833 -14.5 37.5c0 16.667 5.33301 30.334 16 41.001s24.334 16 41.001 16c19.333 0 34.333 -6.16699 45 -18.5
s15.667 -29.5 15 -51.5c-0.666992 -36.667 -10.667 -68.334 -30 -95.001s-45.666 -50 -78.999 -70zM22.9971 0.000976562l-0.000976562 9.99902l12 4c24 8 36 24.667 36 50v535c0 13.333 -2.66699 23.5 -8 30.5s-14.666 12.167 -27.999 15.5l-13 3v10l183 43l12 -9l-4 -140
v-342c0 -24.667 0.166992 -49.167 0.5 -73.5s0.5 -48.5 0.5 -72.5c0 -13.333 2.66699 -24.166 8 -32.499s14.333 -14.5 27 -18.5l13 -3v-10h-239z" />
    <glyph glyph-name="Ldot" unicode="&#x13f;" horiz-adv-x="584" 
d="M22 0l-0.000976562 9.99902l21 8c14 5.33301 22.833 11.833 26.5 19.5s5.5 18.167 5.5 31.5v522c0 13.333 -2 24 -6 32s-12.667 14.333 -26 19l-21 8v10h255v-10l-18 -8c-12.667 -4.66699 -21.334 -11.167 -26.001 -19.5s-7 -19.166 -7 -32.499v-570h154
c24.667 0 42.834 6 54.501 18s22.834 29.333 33.501 52l39 84h10l-9 -174h-486zM476.999 300.999c-24 0 -44.333 8.33301 -61 25s-25 36.667 -25 60s8.33301 43.666 25 60.999s37 26 61 26s44.333 -8.66699 61 -26s25 -37.666 25 -60.999s-8.33301 -43.333 -25 -60
s-37 -25 -61 -25z" />
    <glyph glyph-name="ldot" unicode="&#x140;" horiz-adv-x="378" 
d="M23 0l-0.000976562 9.99902l12 4c24 8 36 24.667 36 50v535c0 13.333 -2.66699 23.5 -8 30.5s-14.666 12.167 -27.999 15.5l-13 3v10l183 43l12 -9l-4 -140v-342c0 -24.667 0.166992 -49.167 0.5 -73.5s0.5 -48.5 0.5 -72.5c0 -13.333 2.66699 -24.166 8 -32.499
s14.333 -14.5 27 -18.5l13 -3v-10h-239zM348.999 275.999c-24 0 -44.333 8.33301 -61 25s-25 36.667 -25 60s8.33301 43.666 25 60.999s37 26 61 26s44.333 -8.66699 61 -26s25 -37.666 25 -60.999s-8.33301 -43.333 -25 -60s-37 -25 -61 -25z" />
    <glyph glyph-name="Lslash" unicode="&#x141;" horiz-adv-x="584" 
d="M22 0l-0.000976562 9.99902l21 8c14 5.33301 22.833 11.833 26.5 19.5s5.5 18.167 5.5 31.5v181l-41 -22v25l41 22v316c0 13.333 -2 24 -6 32s-12.667 14.333 -26 19l-21 8v10h255v-10l-18 -8c-12.667 -4.66699 -21.334 -11.167 -26.001 -19.5s-7 -19.166 -7 -32.499
v-238l174 95v-26l-174 -94v-307h154c24.667 0 42.834 6 54.501 18s22.834 29.333 33.501 52l39 84h10l-9 -174h-486z" />
    <glyph glyph-name="lslash" unicode="&#x142;" horiz-adv-x="286" 
d="M23 0l-0.000976562 9.99902l12 4c24 8 36 24.667 36 50v241l-68 -36v33l68 38v259c0 13.333 -2.66699 23.5 -8 30.5s-14.666 12.167 -27.999 15.5l-13 3v10l183 43l12 -9l-4 -140v-143l71 39v-33l-71 -39v-166c0 -24.667 0.166992 -49.167 0.5 -73.5s0.5 -48.5 0.5 -72.5
c0 -13.333 2.66699 -24.166 8 -32.499s14.333 -14.5 27 -18.5l13 -3v-10h-239z" />
    <glyph glyph-name="Nacute" unicode="&#x143;" horiz-adv-x="653" 
d="M35 0l-0.00390625 9.99805l33 10c12 3.33301 20.667 9.83301 26 19.5s8 21.167 8 34.5v481c-7.33301 16 -13.166 28 -17.499 36s-9.16602 14.833 -14.499 20.5s-12.666 12.834 -21.999 21.501l-17 17v10h177l332 -453v377c0 13.333 -2.16699 25.333 -6.5 36
s-13.166 17.667 -26.499 21l-33 9v10h143v-10l-27 -9c-12 -4 -19.333 -11 -22 -21s-4 -21.667 -4 -35v-588h-56l-382 525v-448c0 -13.333 2 -24.666 6 -33.999s12.333 -16 25 -20l30 -10v-10h-152zM249.996 724.998l51.999 53.5l50 52.5c16.667 18 30.167 30 40.5 36
s20.5 9 30.5 9c12.667 0 22.834 -3.83301 30.501 -11.5s11.5 -17.167 11.5 -28.5c0 -21.333 -20.667 -41.333 -62 -60l-71.5 -31l-71.5 -32z" />
    <glyph glyph-name="nacute" unicode="&#x144;" horiz-adv-x="578" 
d="M20 0l0.000976562 10.001l14 4c23.333 6.66699 35 23 35 49v313c0 14.667 -2.33301 25.5 -7 32.5s-13.667 11.833 -27 14.5l-15 4v10l171 58l10 -10l8 -60c23.333 20.667 49.666 37.667 78.999 51s58.333 20 87 20c44 0 77.833 -12 101.5 -36s35.5 -60.667 35.5 -110
v-288c0 -26 12.667 -42.333 38 -49l9 -3v-10h-236v10l13 4c23.333 7.33301 35 23.666 35 48.999v319c0 42.667 -21.333 64 -64 64c-29.333 0 -61.333 -14.667 -96 -44v-340c0 -26 11.667 -42.333 35 -49l9 -3v-10h-235zM239.001 573.001l32.001 58.5l43 79.5
c11.333 21.333 22.333 36.833 33 46.5s23 14.5 37 14.5c12.667 0 23.667 -4.16699 33 -12.5s14 -18.5 14 -30.5c0 -12.667 -4.33301 -24.5 -13 -35.5s-23.334 -23.833 -44.001 -38.5c-28.667 -20 -52.667 -37.5 -72 -52.5l-52 -39.5z" />
    <glyph glyph-name="uni0145" unicode="&#x145;" horiz-adv-x="653" 
d="M35 0l-0.00390625 9.99805l33 10c12 3.33301 20.667 9.83301 26 19.5s8 21.167 8 34.5v481c-7.33301 16 -13.166 28 -17.499 36s-9.16602 14.833 -14.499 20.5s-12.666 12.834 -21.999 21.501l-17 17v10h177l332 -453v377c0 13.333 -2.16699 25.333 -6.5 36
s-13.166 17.667 -26.499 21l-33 9v10h143v-10l-27 -9c-12 -4 -19.333 -11 -22 -21s-4 -21.667 -4 -35v-588h-56l-382 525v-448c0 -13.333 2 -24.666 6 -33.999s12.333 -16 25 -20l30 -10v-10h-152zM269.996 -265.002l-3.00195 11.001
c23.333 9.33301 41.833 19.166 55.5 29.499s23.834 23.833 30.501 40.5c-23.333 1.33301 -41.666 8.16602 -54.999 20.499s-20 27.833 -20 46.5s6.66699 34 20 46s29.333 18 48 18c22.667 0 40 -6.33301 52 -19s18 -30 18 -52c0 -22.667 -6.66699 -43.167 -20 -61.5
s-31 -34.166 -53 -47.499s-46.333 -24 -73 -32z" />
    <glyph glyph-name="uni0146" unicode="&#x146;" horiz-adv-x="578" 
d="M20 0l0.000976562 10.001l14 4c23.333 6.66699 35 23 35 49v313c0 14.667 -2.33301 25.5 -7 32.5s-13.667 11.833 -27 14.5l-15 4v10l171 58l10 -10l8 -60c23.333 20.667 49.666 37.667 78.999 51s58.333 20 87 20c44 0 77.833 -12 101.5 -36s35.5 -60.667 35.5 -110
v-288c0 -26 12.667 -42.333 38 -49l9 -3v-10h-236v10l13 4c23.333 7.33301 35 23.666 35 48.999v319c0 42.667 -21.333 64 -64 64c-29.333 0 -61.333 -14.667 -96 -44v-340c0 -26 11.667 -42.333 35 -49l9 -3v-10h-235zM220.001 -264.999l-3.00195 11.001
c23.333 9.33301 41.833 19.166 55.5 29.499s23.834 23.833 30.501 40.5c-23.333 1.33301 -41.666 8.16602 -54.999 20.499s-20 27.833 -20 46.5s6.66699 34 20 46s29.333 18 48 18c22.667 0 40 -6.33301 52 -19s18 -30 18 -52c0 -22.667 -6.66699 -43.167 -20 -61.5
s-31 -34.166 -53 -47.499s-46.333 -24 -73 -32z" />
    <glyph glyph-name="Ncaron" unicode="&#x147;" horiz-adv-x="653" 
d="M35 0l-0.00390625 9.99805l33 10c12 3.33301 20.667 9.83301 26 19.5s8 21.167 8 34.5v481c-7.33301 16 -13.166 28 -17.499 36s-9.16602 14.833 -14.499 20.5s-12.666 12.834 -21.999 21.501l-17 17v10h177l332 -453v377c0 13.333 -2.16699 25.333 -6.5 36
s-13.166 17.667 -26.499 21l-33 9v10h143v-10l-27 -9c-12 -4 -19.333 -11 -22 -21s-4 -21.667 -4 -35v-588h-56l-382 525v-448c0 -13.333 2 -24.666 6 -33.999s12.333 -16 25 -20l30 -10v-10h-152zM318.996 716.998l-151 154l10 12l148 -82l148 82l10 -12l-151 -154h-14z
" />
    <glyph glyph-name="ncaron" unicode="&#x148;" horiz-adv-x="578" 
d="M20 0l0.000976562 10.001l14 4c23.333 6.66699 35 23 35 49v313c0 14.667 -2.33301 25.5 -7 32.5s-13.667 11.833 -27 14.5l-15 4v10l171 58l10 -10l8 -60c23.333 20.667 49.666 37.667 78.999 51s58.333 20 87 20c44 0 77.833 -12 101.5 -36s35.5 -60.667 35.5 -110
v-288c0 -26 12.667 -42.333 38 -49l9 -3v-10h-236v10l13 4c23.333 7.33301 35 23.666 35 48.999v319c0 42.667 -21.333 64 -64 64c-29.333 0 -61.333 -14.667 -96 -44v-340c0 -26 11.667 -42.333 35 -49l9 -3v-10h-235zM285.001 567.001l-135 178l13 11l134 -100l134 100
l13 -11l-135 -178h-24z" />
    <glyph glyph-name="Omacron" unicode="&#x14c;" horiz-adv-x="670" 
d="M335 -18c-40.667 0 -79.832 7.33496 -117.499 22.002s-71.334 36.5 -101.001 65.5s-53.167 65.167 -70.5 108.5s-26 94 -26 152c0 57.333 8.66699 107.666 26 150.999s41 79.5 71 108.5s63.833 51 101.5 66s76.5 22.5 116.5 22.5c40.667 0 79.834 -7.16699 117.501 -21.5
s71.334 -36 101.001 -65s53.167 -65.333 70.5 -109s26 -94.5 26 -152.5c0 -56.667 -8.66699 -106.834 -26 -150.501s-40.833 -80 -70.5 -109s-63.334 -51 -101.001 -66s-76.834 -22.5 -117.501 -22.5zM335.002 3.00195c36.667 0 66.334 9.83301 89.001 29.5
s39.167 53.334 49.5 101.001s15.5 113.167 15.5 196.5c0 84 -5.16699 149.833 -15.5 197.5s-26.833 81.334 -49.5 101.001s-52.334 29.5 -89.001 29.5c-36 0 -65.333 -9.83301 -88 -29.5s-39.167 -53.334 -49.5 -101.001s-15.5 -113.5 -15.5 -197.5
c0 -83.333 5.16699 -148.833 15.5 -196.5s26.833 -81.334 49.5 -101.001s52 -29.5 88 -29.5zM177.002 768.002v25h316v-25h-316z" />
    <glyph glyph-name="omacron" unicode="&#x14d;" horiz-adv-x="545" 
d="M273 -15c-50.667 0 -94.668 10.5 -132.001 31.5s-66.166 50.833 -86.499 89.5s-30.5 84 -30.5 136s10.833 97 32.5 135s51.334 67.333 89.001 88s80.167 31 127.5 31s89.666 -10.167 126.999 -30.5s66.833 -49.5 88.5 -87.5s32.5 -83.333 32.5 -136
s-10.167 -98.167 -30.5 -136.5s-49 -68 -86 -89s-80.833 -31.5 -131.5 -31.5zM272.999 5c23.333 0 42 6.66699 56 20s24.167 37 30.5 71s9.5 82 9.5 144c0 62.667 -3.16699 111 -9.5 145s-16.5 57.667 -30.5 71s-32.667 20 -56 20s-42.166 -6.66699 -56.499 -20
s-24.666 -37 -30.999 -71s-9.5 -82.333 -9.5 -145c0 -62 3.16699 -110 9.5 -144s16.666 -57.667 30.999 -71s33.166 -20 56.499 -20zM119.999 617v22h306v-22h-306z" />
    <glyph glyph-name="Ohungarumlaut" unicode="&#x150;" horiz-adv-x="670" 
d="M335 -18c-40.667 0 -79.832 7.33496 -117.499 22.002s-71.334 36.5 -101.001 65.5s-53.167 65.167 -70.5 108.5s-26 94 -26 152c0 57.333 8.66699 107.666 26 150.999s41 79.5 71 108.5s63.833 51 101.5 66s76.5 22.5 116.5 22.5c40.667 0 79.834 -7.16699 117.501 -21.5
s71.334 -36 101.001 -65s53.167 -65.333 70.5 -109s26 -94.5 26 -152.5c0 -56.667 -8.66699 -106.834 -26 -150.501s-40.833 -80 -70.5 -109s-63.334 -51 -101.001 -66s-76.834 -22.5 -117.501 -22.5zM335.002 3.00195c36.667 0 66.334 9.83301 89.001 29.5
s39.167 53.334 49.5 101.001s15.5 113.167 15.5 196.5c0 84 -5.16699 149.833 -15.5 197.5s-26.833 81.334 -49.5 101.001s-52.334 29.5 -89.001 29.5c-36 0 -65.333 -9.83301 -88 -29.5s-39.167 -53.334 -49.5 -101.001s-15.5 -113.5 -15.5 -197.5
c0 -83.333 5.16699 -148.833 15.5 -196.5s26.833 -81.334 49.5 -101.001s52 -29.5 88 -29.5zM387.002 707.002l-7.99902 6l47 135c11.333 30.667 27.666 46 48.999 46c13.333 0 23.5 -3.66699 30.5 -11s10.5 -17 10.5 -29c0 -14 -7.66699 -28.667 -23 -44zM230.003 707.002
l-8.99902 6l48 135c11.333 30.667 27.666 46 48.999 46c13.333 0 23.5 -3.66699 30.5 -11s10.5 -17 10.5 -29c0 -14 -7.66699 -28.667 -23 -44z" />
    <glyph glyph-name="ohungarumlaut" unicode="&#x151;" horiz-adv-x="545" 
d="M273 -15c-50.667 0 -94.668 10.5 -132.001 31.5s-66.166 50.833 -86.499 89.5s-30.5 84 -30.5 136s10.833 97 32.5 135s51.334 67.333 89.001 88s80.167 31 127.5 31s89.666 -10.167 126.999 -30.5s66.833 -49.5 88.5 -87.5s32.5 -83.333 32.5 -136
s-10.167 -98.167 -30.5 -136.5s-49 -68 -86 -89s-80.833 -31.5 -131.5 -31.5zM272.999 5c23.333 0 42 6.66699 56 20s24.167 37 30.5 71s9.5 82 9.5 144c0 62.667 -3.16699 111 -9.5 145s-16.5 57.667 -30.5 71s-32.667 20 -56 20s-42.166 -6.66699 -56.499 -20
s-24.666 -37 -30.999 -71s-9.5 -82.333 -9.5 -145c0 -62 3.16699 -110 9.5 -144s16.666 -57.667 30.999 -71s33.166 -20 56.499 -20zM332.999 558l-15.001 9l49 154c7.33301 23.333 15.833 39 25.5 47s19.834 12 30.501 12c11.333 0 21.166 -3.66699 29.499 -11
s12.5 -17.333 12.5 -30c0 -8 -2.66699 -16.833 -8 -26.5s-12.666 -20.167 -21.999 -31.5zM186.998 558l-15.001 9l48 154c7.33301 23.333 15.833 39 25.5 47s19.834 12 30.501 12c11.333 0 21.333 -3.66699 30 -11s13 -17.333 13 -30c0 -8 -2.83301 -16.833 -8.5 -26.5
s-13.167 -20.167 -22.5 -31.5z" />
    <glyph glyph-name="OE" unicode="&#x152;" horiz-adv-x="915" 
d="M372 -18c-48 0 -93.1689 7.16602 -135.502 21.499s-79.833 36 -112.5 65s-58.167 65.333 -76.5 109s-27.5 94.5 -27.5 152.5s9.16699 108.833 27.5 152.5s43.833 80 76.5 109s70.167 50.667 112.5 65s87.5 21.5 135.5 21.5c46 0 91.333 -6 136 -18h354l6 -154h-10
l-47 102c-9.33301 21.333 -26 32 -50 32h-173c-0.666992 -42.667 -1.16699 -86.667 -1.5 -132s-0.5 -97.666 -0.5 -156.999h104c20 0 34.333 9 43 27l28 52h10v-180h-10l-28 54c-8.66699 18 -23 27 -43 27h-104v-138.5c0 -37 0.166992 -68.833 0.5 -95.5
s0.833008 -52.334 1.5 -77.001h196c24.667 0 41.334 11 50.001 33l44 101h10l-6 -154h-374c-20.667 -5.33301 -42.667 -9.66602 -66 -12.999s-46.666 -5 -69.999 -5zM383.998 1.99902c3.33301 0 6.66602 0.167969 9.99902 0.500977s6.33301 0.833008 9 1.5
c9.33301 0.666992 16.5 4.16699 21.5 10.5s7.5 14.5 7.5 24.5c2 105.333 3 195.666 3 270.999v40v118.5c0 43.667 -0.666992 91.167 -2 142.5c-1.33301 28 -11.333 43 -30 45c-2.66699 0.666992 -5.66699 1.16699 -9 1.5s-6.66602 0.5 -9.99902 0.5
c-45.333 0 -83 -14.333 -113 -43s-52.333 -67.667 -67 -117s-22 -105.333 -22 -168s7.33301 -118.667 22 -168s37 -88.333 67 -117s67.667 -43 113 -43z" />
    <glyph glyph-name="oe" unicode="&#x153;" horiz-adv-x="853" 
d="M273 -15c-50.667 0 -94.6729 10.501 -132.006 31.501s-66.166 50.833 -86.499 89.5s-30.5 84 -30.5 136s10.833 97 32.5 135s51.334 67.333 89.001 88s80.167 31 127.5 31c71.333 0 130 -22 176 -66c22.667 21.333 48.834 37.666 78.501 48.999s59.834 17 90.501 17
c43.333 0 80.333 -8.83301 111 -26.5s54.167 -41.667 70.5 -72s24.5 -64.833 24.5 -103.5c0 -7.33301 -0.333008 -14.833 -1 -22.5s-2 -14.5 -4 -20.5h-298c0.666992 -71.333 14.834 -123 42.501 -155s65.167 -48 112.5 -48c30.667 0 56.167 5.33301 76.5 16
s39.5 26.334 57.5 47.001l10 -9c-20.667 -36.667 -48.167 -65.334 -82.5 -86.001s-75.5 -31 -123.5 -31c-68.667 0 -125 20.333 -169 61c-43.333 -40.667 -100.666 -61 -171.999 -61zM272.994 5.00098c22.667 0 41 7.16699 55 21.5s24.333 38.666 31 72.999
s10 81.166 10 140.499c0 60 -3.33301 107.167 -10 141.5s-17 58.666 -31 72.999s-32.333 21.5 -55 21.5s-41.167 -7.16699 -55.5 -21.5s-24.833 -38.666 -31.5 -72.999s-10 -81.5 -10 -141.5c0 -59.333 3.33301 -106.166 10 -140.499s17.167 -58.666 31.5 -72.999
s32.833 -21.5 55.5 -21.5zM614.994 476.001c-16.667 0 -31.999 -5.83203 -45.999 -17.499s-25.333 -32.334 -34 -62.001s-13.334 -71.5 -14.001 -125.5h170c6.66699 61.333 4 110.833 -8 148.5s-34.667 56.5 -68 56.5z" />
    <glyph glyph-name="Racute" unicode="&#x154;" horiz-adv-x="628" 
d="M22 0v9.99805l21 7c13.333 4.66699 22 10.834 26 18.501s6 18.5 6 32.5v523c0 13.333 -1.83301 23.833 -5.5 31.5s-11.834 13.834 -24.501 18.501l-23 9v10h286c78.667 0 139 -14.833 181 -44.5s63 -70.834 63 -123.501c0 -29.333 -11 -58.666 -33 -87.999
s-56.667 -52 -104 -68l139 -276c6 -11.333 12.833 -20.5 20.5 -27.5s17.834 -13.167 30.501 -18.5l13 -5v-9h-179l-148 315h-68v-247c0 -12.667 2 -23 6 -31s12.333 -14 25 -18l24 -9v-10h-256zM223 334.998l48 -0.000976562c48 0 82.667 12.833 104 38.5
s32 63.834 32 114.501c0 51.333 -10 89.5 -30 114.5s-53.667 37.5 -101 37.5h-53v-305zM196 724.997l51.999 53.5l50 52.5c16.667 18 30.167 30 40.5 36s20.5 9 30.5 9c12.667 0 22.834 -3.83301 30.501 -11.5s11.5 -17.167 11.5 -28.5c0 -21.333 -20.667 -41.333 -62 -60
l-71.5 -31l-71.5 -32z" />
    <glyph glyph-name="racute" unicode="&#x155;" horiz-adv-x="441" 
d="M20 0l0.00195312 10l15 4c13.333 4 22.5 10 27.5 18s7.5 18.333 7.5 31v313c0 14.667 -2.5 25.5 -7.5 32.5s-14.167 11.833 -27.5 14.5l-15 4v10l172 58l10 -10l9 -86v-8c9.33301 18.667 21.5 35.834 36.5 51.501s31.667 28.5 50 38.5s36.5 15 54.5 15
c25.333 0 44.666 -7 57.999 -21s20 -31.667 20 -53c0 -22.667 -6.5 -40.167 -19.5 -52.5s-28.5 -18.5 -46.5 -18.5c-28 0 -52.667 14 -74 42l-2 2c-6.66699 9.33301 -14.334 14.5 -23.001 15.5s-16.667 -3.16699 -24 -12.5c-6.66699 -6 -12.167 -13.167 -16.5 -21.5
s-8.5 -17.833 -12.5 -28.5v-279c0 -26.667 11.667 -43.334 35 -50.001l32 -9v-10h-259zM182.002 573l32.001 58.5l43 79.5c11.333 21.333 22.333 36.833 33 46.5s23 14.5 37 14.5c12.667 0 23.667 -4.16699 33 -12.5s14 -18.5 14 -30.5c0 -12.667 -4.33301 -24.5 -13 -35.5
s-23.334 -23.833 -44.001 -38.5c-28.667 -20 -52.667 -37.5 -72 -52.5l-52 -39.5z" />
    <glyph glyph-name="uni0156" unicode="&#x156;" horiz-adv-x="628" 
d="M22 0v9.99805l21 7c13.333 4.66699 22 10.834 26 18.501s6 18.5 6 32.5v523c0 13.333 -1.83301 23.833 -5.5 31.5s-11.834 13.834 -24.501 18.501l-23 9v10h286c78.667 0 139 -14.833 181 -44.5s63 -70.834 63 -123.501c0 -29.333 -11 -58.666 -33 -87.999
s-56.667 -52 -104 -68l139 -276c6 -11.333 12.833 -20.5 20.5 -27.5s17.834 -13.167 30.501 -18.5l13 -5v-9h-179l-148 315h-68v-247c0 -12.667 2 -23 6 -31s12.333 -14 25 -18l24 -9v-10h-256zM223 334.998l48 -0.000976562c48 0 82.667 12.833 104 38.5
s32 63.834 32 114.501c0 51.333 -10 89.5 -30 114.5s-53.667 37.5 -101 37.5h-53v-305zM256 -265.003l-3.00195 11.001c23.333 9.33301 41.833 19.166 55.5 29.499s23.834 23.833 30.501 40.5c-23.333 1.33301 -41.666 8.16602 -54.999 20.499s-20 27.833 -20 46.5
s6.66699 34 20 46s29.333 18 48 18c22.667 0 40 -6.33301 52 -19s18 -30 18 -52c0 -22.667 -6.66699 -43.167 -20 -61.5s-31 -34.166 -53 -47.499s-46.333 -24 -73 -32z" />
    <glyph glyph-name="uni0157" unicode="&#x157;" horiz-adv-x="441" 
d="M20 0l0.00195312 10l15 4c13.333 4 22.5 10 27.5 18s7.5 18.333 7.5 31v313c0 14.667 -2.5 25.5 -7.5 32.5s-14.167 11.833 -27.5 14.5l-15 4v10l172 58l10 -10l9 -86v-8c9.33301 18.667 21.5 35.834 36.5 51.501s31.667 28.5 50 38.5s36.5 15 54.5 15
c25.333 0 44.666 -7 57.999 -21s20 -31.667 20 -53c0 -22.667 -6.5 -40.167 -19.5 -52.5s-28.5 -18.5 -46.5 -18.5c-28 0 -52.667 14 -74 42l-2 2c-6.66699 9.33301 -14.334 14.5 -23.001 15.5s-16.667 -3.16699 -24 -12.5c-6.66699 -6 -12.167 -13.167 -16.5 -21.5
s-8.5 -17.833 -12.5 -28.5v-279c0 -26.667 11.667 -43.334 35 -50.001l32 -9v-10h-259zM74.002 -265l-3.00195 11.001c23.333 9.33301 41.833 19.166 55.5 29.499s23.834 23.833 30.501 40.5c-23.333 1.33301 -41.666 8.16602 -54.999 20.499s-20 27.833 -20 46.5
s6.66699 34 20 46s29.333 18 48 18c22.667 0 40 -6.33301 52 -19s18 -30 18 -52c0 -22.667 -6.66699 -43.167 -20 -61.5s-31 -34.166 -53 -47.499s-46.333 -24 -73 -32z" />
    <glyph glyph-name="Rcaron" unicode="&#x158;" horiz-adv-x="628" 
d="M22 0v9.99805l21 7c13.333 4.66699 22 10.834 26 18.501s6 18.5 6 32.5v523c0 13.333 -1.83301 23.833 -5.5 31.5s-11.834 13.834 -24.501 18.501l-23 9v10h286c78.667 0 139 -14.833 181 -44.5s63 -70.834 63 -123.501c0 -29.333 -11 -58.666 -33 -87.999
s-56.667 -52 -104 -68l139 -276c6 -11.333 12.833 -20.5 20.5 -27.5s17.834 -13.167 30.501 -18.5l13 -5v-9h-179l-148 315h-68v-247c0 -12.667 2 -23 6 -31s12.333 -14 25 -18l24 -9v-10h-256zM223 334.998l48 -0.000976562c48 0 82.667 12.833 104 38.5
s32 63.834 32 114.501c0 51.333 -10 89.5 -30 114.5s-53.667 37.5 -101 37.5h-53v-305zM265 716.997l-151 154l10 12l148 -82l148 82l10 -12l-151 -154h-14z" />
    <glyph glyph-name="rcaron" unicode="&#x159;" horiz-adv-x="441" 
d="M20 0l0.00195312 10l15 4c13.333 4 22.5 10 27.5 18s7.5 18.333 7.5 31v313c0 14.667 -2.5 25.5 -7.5 32.5s-14.167 11.833 -27.5 14.5l-15 4v10l172 58l10 -10l9 -86v-8c9.33301 18.667 21.5 35.834 36.5 51.501s31.667 28.5 50 38.5s36.5 15 54.5 15
c25.333 0 44.666 -7 57.999 -21s20 -31.667 20 -53c0 -22.667 -6.5 -40.167 -19.5 -52.5s-28.5 -18.5 -46.5 -18.5c-28 0 -52.667 14 -74 42l-2 2c-6.66699 9.33301 -14.334 14.5 -23.001 15.5s-16.667 -3.16699 -24 -12.5c-6.66699 -6 -12.167 -13.167 -16.5 -21.5
s-8.5 -17.833 -12.5 -28.5v-279c0 -26.667 11.667 -43.334 35 -50.001l32 -9v-10h-259zM228.002 567l-135 178l13 11l134 -100l134 100l13 -11l-135 -178h-24z" />
    <glyph glyph-name="Sacute" unicode="&#x15a;" horiz-adv-x="521" 
d="M237 -18c-36.667 0 -74.0029 4.50098 -112.003 13.501s-69.667 20.833 -95 35.5l5 136h10l31 -65c9.33301 -18.667 19.333 -35.167 30 -49.5s25.334 -25.5 44.001 -33.5c13.333 -6.66699 26.166 -11.167 38.499 -13.5s26.166 -3.5 41.499 -3.5
c40.667 0 72.834 11 96.501 33s35.5 50.333 35.5 85c0 32.667 -8 58.167 -24 76.5s-41.667 36.166 -77 53.499l-41 18c-57.333 25.333 -102.166 54.5 -134.499 87.5s-48.5 76.833 -48.5 131.5c0 39.333 10.167 73.333 30.5 102s48.666 50.667 84.999 66s78.833 23 127.5 23
c35.333 0 68.833 -4.66699 100.5 -14s59.167 -22 82.5 -38l-6 -120h-10l-41 75c-11.333 23.333 -22.666 39.833 -33.999 49.5s-24.333 16.5 -39 20.5c-8.66699 2.66699 -16.667 4.5 -24 5.5s-16.666 1.5 -27.999 1.5c-34 0 -62.667 -9.83301 -86 -29.5
s-35 -46.167 -35 -79.5c0 -34 9 -61.167 27 -81.5s44.333 -38.5 79 -54.5l46 -20c64 -28 110 -57.833 138 -89.5s42 -72.5 42 -122.5c0 -58.667 -22.167 -106.5 -66.5 -143.5s-107.166 -55.5 -188.499 -55.5zM185.997 725.001l51.999 53.5l50 52.5
c16.667 18 30.167 30 40.5 36s20.5 9 30.5 9c12.667 0 22.834 -3.83301 30.501 -11.5s11.5 -17.167 11.5 -28.5c0 -21.333 -20.667 -41.333 -62 -60l-71.5 -31l-71.5 -32z" />
    <glyph glyph-name="sacute" unicode="&#x15b;" horiz-adv-x="436" 
d="M193 -15c-32.667 0 -62.0029 3.83301 -88.0029 11.5s-50 17.167 -72 28.5l1 119h10l34 -60c14.667 -26.667 30.834 -46.5 48.501 -59.5s40.167 -19.5 67.5 -19.5c32 0 57.833 7.16699 77.5 21.5s29.5 33.5 29.5 57.5c0 22 -7 40 -21 54s-40 26.667 -78 38l-42 13
c-40.667 12 -72.667 30.667 -96 56s-35 56.333 -35 93c0 44 17.333 81.333 52 112s84.334 46 149.001 46c26 0 50.5 -2.83301 73.5 -8.5s45.167 -14.167 66.5 -25.5l-6 -108h-10l-35 62c-12.667 22 -25.167 37.5 -37.5 46.5s-30.833 13.5 -55.5 13.5
c-22.667 0 -44 -6.33301 -64 -19s-30 -30.667 -30 -54c0 -22.667 8.5 -40.667 25.5 -54s42.167 -25.666 75.5 -36.999l45 -13c48 -14.667 82.333 -34.834 103 -60.501s31 -56.5 31 -92.5c0 -48.667 -19.167 -87.667 -57.5 -117s-92.166 -44 -161.499 -44zM167.997 573
l32.001 58.5l43 79.5c11.333 21.333 22.333 36.833 33 46.5s23 14.5 37 14.5c12.667 0 23.667 -4.16699 33 -12.5s14 -18.5 14 -30.5c0 -12.667 -4.33301 -24.5 -13 -35.5s-23.334 -23.833 -44.001 -38.5c-28.667 -20 -52.667 -37.5 -72 -52.5l-52 -39.5z" />
    <glyph glyph-name="Scedilla" unicode="&#x15e;" horiz-adv-x="521" 
d="M237 -18c-36.667 0 -74.0029 4.50098 -112.003 13.501s-69.667 20.833 -95 35.5l5 136h10l31 -65c9.33301 -18.667 19.333 -35.167 30 -49.5s25.334 -25.5 44.001 -33.5c13.333 -6.66699 26.166 -11.167 38.499 -13.5s26.166 -3.5 41.499 -3.5
c40.667 0 72.834 11 96.501 33s35.5 50.333 35.5 85c0 32.667 -8 58.167 -24 76.5s-41.667 36.166 -77 53.499l-41 18c-57.333 25.333 -102.166 54.5 -134.499 87.5s-48.5 76.833 -48.5 131.5c0 39.333 10.167 73.333 30.5 102s48.666 50.667 84.999 66s78.833 23 127.5 23
c35.333 0 68.833 -4.66699 100.5 -14s59.167 -22 82.5 -38l-6 -120h-10l-41 75c-11.333 23.333 -22.666 39.833 -33.999 49.5s-24.333 16.5 -39 20.5c-8.66699 2.66699 -16.667 4.5 -24 5.5s-16.666 1.5 -27.999 1.5c-34 0 -62.667 -9.83301 -86 -29.5
s-35 -46.167 -35 -79.5c0 -34 9 -61.167 27 -81.5s44.333 -38.5 79 -54.5l46 -20c64 -28 110 -57.833 138 -89.5s42 -72.5 42 -122.5c0 -58.667 -22.167 -106.5 -66.5 -143.5s-107.166 -55.5 -188.499 -55.5zM217.997 -84.999l13 87.001h21l-6 -49
c39.333 -4.66699 68.666 -14.667 87.999 -30s29 -34.333 29 -57c0 -24.667 -10.667 -45.334 -32 -62.001s-53.666 -25 -96.999 -25c-16 0 -29.833 1.16699 -41.5 3.5s-22.834 5.16602 -33.501 8.49902l4 17c19.333 -6 37 -9 53 -9c18.667 0 33.167 5.5 43.5 16.5
s15.5 26.167 15.5 45.5c0 16 -5.16699 28.333 -15.5 37s-24.166 14.334 -41.499 17.001z" />
    <glyph glyph-name="scedilla" unicode="&#x15f;" horiz-adv-x="436" 
d="M193 -15c-32.667 0 -62.0029 3.83301 -88.0029 11.5s-50 17.167 -72 28.5l1 119h10l34 -60c14.667 -26.667 30.834 -46.5 48.501 -59.5s40.167 -19.5 67.5 -19.5c32 0 57.833 7.16699 77.5 21.5s29.5 33.5 29.5 57.5c0 22 -7 40 -21 54s-40 26.667 -78 38l-42 13
c-40.667 12 -72.667 30.667 -96 56s-35 56.333 -35 93c0 44 17.333 81.333 52 112s84.334 46 149.001 46c26 0 50.5 -2.83301 73.5 -8.5s45.167 -14.167 66.5 -25.5l-6 -108h-10l-35 62c-12.667 22 -25.167 37.5 -37.5 46.5s-30.833 13.5 -55.5 13.5
c-22.667 0 -44 -6.33301 -64 -19s-30 -30.667 -30 -54c0 -22.667 8.5 -40.667 25.5 -54s42.167 -25.666 75.5 -36.999l45 -13c48 -14.667 82.333 -34.834 103 -60.501s31 -56.5 31 -92.5c0 -48.667 -19.167 -87.667 -57.5 -117s-92.166 -44 -161.499 -44zM185.997 -85
l13 87.001h21l-6 -49c39.333 -4.66699 68.666 -14.667 87.999 -30s29 -34.333 29 -57c0 -24.667 -10.667 -45.334 -32 -62.001s-53.666 -25 -96.999 -25c-16 0 -29.833 1.16699 -41.5 3.5s-22.834 5.16602 -33.501 8.49902l4 17c19.333 -6 37 -9 53 -9
c18.667 0 33.167 5.5 43.5 16.5s15.5 26.167 15.5 45.5c0 16 -5.16699 28.333 -15.5 37s-24.166 14.334 -41.499 17.001z" />
    <glyph glyph-name="Scaron" unicode="&#x160;" horiz-adv-x="521" 
d="M237 -18c-36.667 0 -74.0029 4.50098 -112.003 13.501s-69.667 20.833 -95 35.5l5 136h10l31 -65c9.33301 -18.667 19.333 -35.167 30 -49.5s25.334 -25.5 44.001 -33.5c13.333 -6.66699 26.166 -11.167 38.499 -13.5s26.166 -3.5 41.499 -3.5
c40.667 0 72.834 11 96.501 33s35.5 50.333 35.5 85c0 32.667 -8 58.167 -24 76.5s-41.667 36.166 -77 53.499l-41 18c-57.333 25.333 -102.166 54.5 -134.499 87.5s-48.5 76.833 -48.5 131.5c0 39.333 10.167 73.333 30.5 102s48.666 50.667 84.999 66s78.833 23 127.5 23
c35.333 0 68.833 -4.66699 100.5 -14s59.167 -22 82.5 -38l-6 -120h-10l-41 75c-11.333 23.333 -22.666 39.833 -33.999 49.5s-24.333 16.5 -39 20.5c-8.66699 2.66699 -16.667 4.5 -24 5.5s-16.666 1.5 -27.999 1.5c-34 0 -62.667 -9.83301 -86 -29.5
s-35 -46.167 -35 -79.5c0 -34 9 -61.167 27 -81.5s44.333 -38.5 79 -54.5l46 -20c64 -28 110 -57.833 138 -89.5s42 -72.5 42 -122.5c0 -58.667 -22.167 -106.5 -66.5 -143.5s-107.166 -55.5 -188.499 -55.5zM254.997 717.001l-151 154l10 12l148 -82l148 82l10 -12
l-151 -154h-14z" />
    <glyph glyph-name="scaron" unicode="&#x161;" horiz-adv-x="436" 
d="M193 -15c-32.667 0 -62.0029 3.83301 -88.0029 11.5s-50 17.167 -72 28.5l1 119h10l34 -60c14.667 -26.667 30.834 -46.5 48.501 -59.5s40.167 -19.5 67.5 -19.5c32 0 57.833 7.16699 77.5 21.5s29.5 33.5 29.5 57.5c0 22 -7 40 -21 54s-40 26.667 -78 38l-42 13
c-40.667 12 -72.667 30.667 -96 56s-35 56.333 -35 93c0 44 17.333 81.333 52 112s84.334 46 149.001 46c26 0 50.5 -2.83301 73.5 -8.5s45.167 -14.167 66.5 -25.5l-6 -108h-10l-35 62c-12.667 22 -25.167 37.5 -37.5 46.5s-30.833 13.5 -55.5 13.5
c-22.667 0 -44 -6.33301 -64 -19s-30 -30.667 -30 -54c0 -22.667 8.5 -40.667 25.5 -54s42.167 -25.666 75.5 -36.999l45 -13c48 -14.667 82.333 -34.834 103 -60.501s31 -56.5 31 -92.5c0 -48.667 -19.167 -87.667 -57.5 -117s-92.166 -44 -161.499 -44zM213.997 567
l-135 178l13 11l134 -100l134 100l13 -11l-135 -178h-24z" />
    <glyph glyph-name="uni0162" unicode="&#x162;" horiz-adv-x="627" 
d="M156 0l0.00195312 10l41 10c27.333 6 41 22.667 41 50v570h-85c-24.667 0 -42.334 -6.5 -53.001 -19.5s-22 -30.833 -34 -53.5l-36 -70h-10l5 163h577l4 -163h-10l-36 70c-11.333 22.667 -22.333 40.5 -33 53.5s-28.334 19.5 -53.001 19.5h-85v-570
c0 -27.333 13.667 -44 41 -50l41 -10v-10h-315zM287.002 -85l13 87.001h21l-6 -49c39.333 -4.66699 68.666 -14.667 87.999 -30s29 -34.333 29 -57c0 -24.667 -10.667 -45.334 -32 -62.001s-53.666 -25 -96.999 -25c-16 0 -29.833 1.16699 -41.5 3.5
s-22.834 5.16602 -33.501 8.49902l4 17c19.333 -6 37 -9 53 -9c18.667 0 33.167 5.5 43.5 16.5s15.5 26.167 15.5 45.5c0 16 -5.16699 28.333 -15.5 37s-24.166 14.334 -41.499 17.001z" />
    <glyph glyph-name="uni0163" unicode="&#x163;" horiz-adv-x="356" 
d="M210 -15c-42.667 0 -75.8359 10.665 -99.5029 31.998s-35.5 55.333 -35.5 102v342h-69v10l24 4c20.667 4.66699 38.5 11.334 53.5 20.001s29.833 20.334 44.5 35.001l82 91h10l-3 -140h112v-20h-113v-360c0 -23.333 5.16699 -41 15.5 -53s23.5 -18 39.5 -18
c14 0 26.333 3.5 37 10.5s21.334 16.5 32.001 28.5l10 -10c-13.333 -22.667 -31.666 -40.667 -54.999 -54s-51.666 -20 -84.999 -20zM173.998 -88.002l13 87.001h21l-6 -49c39.333 -4.66699 68.666 -14.667 87.999 -30s29 -34.333 29 -57
c0 -24.667 -10.667 -45.334 -32 -62.001s-53.666 -25 -96.999 -25c-16 0 -29.833 1.16699 -41.5 3.5s-22.834 5.16602 -33.501 8.49902l4 17c19.333 -6 37 -9 53 -9c18.667 0 33.167 5.5 43.5 16.5s15.5 26.167 15.5 45.5c0 16 -5.16699 28.333 -15.5 37
s-24.166 14.334 -41.499 17.001z" />
    <glyph glyph-name="Tcaron" unicode="&#x164;" horiz-adv-x="627" 
d="M156 0l0.00195312 10l41 10c27.333 6 41 22.667 41 50v570h-85c-24.667 0 -42.334 -6.5 -53.001 -19.5s-22 -30.833 -34 -53.5l-36 -70h-10l5 163h577l4 -163h-10l-36 70c-11.333 22.667 -22.333 40.5 -33 53.5s-28.334 19.5 -53.001 19.5h-85v-570
c0 -27.333 13.667 -44 41 -50l41 -10v-10h-315zM306.002 717l-151 154l10 12l148 -82l148 82l10 -12l-151 -154h-14z" />
    <glyph glyph-name="tcaron" unicode="&#x165;" horiz-adv-x="351" 
d="M284 526l-4.00195 10c18 12 32.667 25 44 39s19.333 31.667 24 53l-14 2c-16.667 3.33301 -29.834 10.166 -39.501 20.499s-14.5 22.833 -14.5 37.5c0 16.667 5.33301 30.334 16 41.001s24.334 16 41.001 16c18.667 0 33.334 -6.16699 44.001 -18.5
s15.667 -29.5 15 -51.5c-0.666992 -32.667 -10.667 -62 -30 -88s-46.666 -46.333 -81.999 -61zM209.998 -15c-42.667 0 -75.8359 10.665 -99.5029 31.998s-35.5 55.333 -35.5 102v342h-69v10l24 4c20.667 4.66699 38.5 11.334 53.5 20.001s29.833 20.334 44.5 35.001l82 91
h10l-3 -140h112v-20h-113v-360c0 -23.333 5.16699 -41 15.5 -53s23.5 -18 39.5 -18c14 0 26.333 3.5 37 10.5s21.334 16.5 32.001 28.5l10 -10c-13.333 -22.667 -31.666 -40.667 -54.999 -54s-51.666 -20 -84.999 -20z" />
    <glyph glyph-name="Umacron" unicode="&#x16a;" horiz-adv-x="649" 
d="M339 -18c-50.667 0 -95.501 9.00293 -134.501 27.0029s-69.333 46.5 -91 85.5s-32.5 90.5 -32.5 154.5v345c0 25.333 -13 42 -39 50l-22 6v10h277v-10l-29 -8c-24.667 -6 -37 -22.667 -37 -50v-369c0 -62 13 -107.833 39 -137.5s63.333 -44.5 112 -44.5
c50.667 0 90.834 15.667 120.501 47s44.5 75.666 44.5 132.999v367c0 13.333 -2.16699 25.166 -6.5 35.499s-13.166 17.166 -26.499 20.499l-25 6v10h140v-10l-27 -7c-12.667 -2.66699 -21 -9 -25 -19s-6 -21.667 -6 -35v-366c0 -48.667 -9.66699 -91.167 -29 -127.5
s-46.333 -64.333 -81 -84s-75.334 -29.5 -122.001 -29.5zM241.999 768.003v25h316v-25h-316z" />
    <glyph glyph-name="umacron" unicode="&#x16b;" horiz-adv-x="567" 
d="M201 -15c-26 0 -49.835 5 -71.502 15s-38.667 26.167 -51 48.5s-18.166 51.833 -17.499 88.5l3 257c0 15.333 -2.66699 26.333 -8 33s-13.666 11.334 -24.999 14.001l-12 4v10l179 35l10 -10l-5 -142v-241c0 -21.333 6.16699 -37 18.5 -47s27.833 -15 46.5 -15
s35.334 2.66699 50.001 8s29.334 13.333 44.001 24l4 326c0 15.333 -2.33301 26.166 -7 32.499s-13.334 10.833 -26.001 13.5l-10 3v10l175 38l10 -10l-3 -142v-271c0 -14.667 2 -26 6 -34s12.667 -14.667 26 -20l10 -3v-10l-175 -10l-9 59
c-22 -18 -45.833 -33.167 -71.5 -45.5s-55.834 -18.5 -90.501 -18.5zM128.998 617v22h306v-22h-306z" />
    </font>
</defs>
</svg>
